<?xml version="1.0" standalone="no"?>
<!DOCTYPE svg PUBLIC "-//W3C//DTD SVG 1.1//EN" "http://www.w3.org/Graphics/SVG/1.1/DTD/svg11.dtd" >
<svg xmlns="http://www.w3.org/2000/svg" xmlns:xlink="http://www.w3.org/1999/xlink" version="1.1">
<metadata>
Created by FontForge 20190801 at Tue Oct  4 15:14:52 2016
 By www-data
Copyright (c) 2016 by Daria Kwon &#38; Jovanny Lemonad. All rights reserved.
</metadata>
<defs>
<font id="LemonTuesday" horiz-adv-x="467" >
  <font-face 
    font-family="LemonTuesday"
    font-weight="400"
    font-stretch="normal"
    units-per-em="1000"
    panose-1="2 0 5 6 4 0 0 2 0 4"
    ascent="800"
    descent="-200"
    x-height="484"
    cap-height="750"
    bbox="-200 -714 1083 1244"
    underline-thickness="50"
    underline-position="-100"
    unicode-range="U+000D-F6D4"
  />
<missing-glyph horiz-adv-x="270" 
 />
    <glyph glyph-name="e_e" unicode="ee" horiz-adv-x="732" 
d="M472 513q7 0 17 -1.5t13 -1.5q10 5 18 5q31 0 61 -25t30 -61q0 -50 -50 -83q-6 -6 -19.5 -17t-21 -18t-16 -18.5t-13.5 -23.5q0 -7 0.5 -25t0.5 -27q0 -18 -1 -26q0 -19 23.5 -52.5t52.5 -33.5q21 0 37.5 18.5t32 50t21.5 39.5q3 4 6.5 7.5t7 6.5t5.5 5q23 75 47 88
q2 2 4 7t3 7q3 5 20 44t31 60.5t28 27.5q6 0 20 -6q3 -4 -3 -14t-17 -24t-15 -23q-2 -4 -5 -18.5t-7 -25t-9 -10.5q-3 0 -5 1l-3 -6v-7q0 -12 -12.5 -30.5t-12.5 -23.5q-3 -8 -10.5 -27t-12 -34t-4.5 -29q0 -8 1 -23t1 -22q-4 1 -8.5 5t-7.5 5q-8 -7 -10.5 -18t-2 -19.5
t-6.5 -15t-23 -6.5q0 -2 2 -7.5t2 -6.5q-4 -3 -11.5 -9.5t-12.5 -10t-11 -8t-11 -6.5t-9 -2q-3 0 -8.5 0.5t-7.5 0.5q-3 0 -12 -2t-15 -2q-60 0 -96 21q-4 2 -10.5 17.5t-19.5 14.5l-3 5q-2 14 -22.5 35t-21.5 41q-27 -52 -32 -61q-3 -8 -8 -27t-9 -29h-14q0 -36 -18.5 -52
t-64.5 -16q-40 0 -80 18.5t-55 53.5q7 0 17 0.5t15 0.5l-3.5 3.5t-2 2.5t-1.5 1q-45 4 -54 51q-10 7 -12.5 24.5t-4.5 21.5q-6 22 -11 62q1 0 4.5 2t9 5.5t12.5 8.5h-29q1 7 3.5 36t5.5 45q17 89 55 147q1 0 4.5 2.5t6.5 2.5q49 15 75 15q39 0 66 -21t27 -58
q0 -39 -33.5 -82.5t-76.5 -64.5q-32 -17 -32 -39q0 -3 1.5 -10.5t1.5 -10.5q0 -9 -7 -17q2 -9 2.5 -28.5t5 -33t18.5 -23.5q2 -2 15.5 -20t24.5 -23q8 -5 29 -18q4 7 12.5 26t14.5 30t16 24.5t21 20.5q10 12 25 38t31 42q24 29 24 56q0 4 -1.5 14.5t-1.5 16.5q0 11 4.5 33.5
t5.5 33.5q0 7 7 21t7 17q-1 3 -1 8q0 11 11.5 26t29.5 33.5t25 27.5zM156 308q37 12 62.5 42.5t25.5 67.5q0 16 -6.5 29.5t-18.5 13.5q-8 0 -25.5 -22t-24.5 -38q-16 -40 -15 -69q0 -8 2 -24zM497 351q5 -2 6 -5q23 14 39.5 38.5t16.5 46.5q0 15 -6.5 24.5t-15.5 9.5
q-3 0 -4.5 -0.5t-3.5 -1.5t-3 -2t-2.5 -4l-2.5 -5t-3 -7t-4 -8q-8 -11 -10.5 -25t-3.5 -33t-3 -28zM106 124q3 6 3 10q0 8 -13 17q-4 -5 -9 -5q3 -4 8.5 -10t10.5 -12zM125 185q-5 13 -19 25q-6 -6 -12 -13q17 -4 31 -12zM431 154l-9 -8q1 0 3 -3.5t5 -3.5l5 5q0 1 -2 4.5
t-2 5.5zM137 157l-12 -3q0 -3 4 -8q2 3 13 8q0 3 -5 3z" />
    <glyph glyph-name="j_j" unicode="jj" horiz-adv-x="741" 
d="M-91 -555q-15 4 -15 13q0 18 20 52q0 1 -2 6.5t-2 8.5q0 8 16 11q-2 4 -5 8l-3 4q2 0 6.5 2t8.5 2q-3 3 -14 19q2 3 8 9.5t10.5 11.5t4.5 8q-3 6 -3 10q0 7 12 31t23 31q8 5 13.5 32t18.5 27h2q8 0 8 9q0 1 -2 7q0 11 5 26t11 15q1 0 4.5 -3.5t5.5 -3.5q3 0 3 7
q0 3 1.5 5.5t3.5 3.5t4.5 2.5t3.5 2.5q1 2 1.5 11.5t5 14t15.5 8.5q-3 6 -3 19q3 2 9.5 3.5t9.5 2.5q0 25 26 25q1 0 2.5 -0.5t2.5 -0.5q10 0 14 13t3 26v13q3 -1 7 -1q8 0 18.5 12t18.5 15q-6 15 -6 27q0 22 21 39q-11 13 -11 21q0 4 5 15.5t5 19.5q0 7 -3.5 15t-3.5 12
q0 3 0.5 7t0.5 6q0 4 -2 10q9 10 12 14q-3 4 -7.5 11t-7.5 11q13 22 13 36q0 5 -1 7q-19 38 -19 94q0 14 -3 23q-25 -28 -28 -28q-9 -2 -15.5 -8t-9.5 -11.5t-6.5 -15t-5.5 -12.5q-67 -105 -80 -170q-8 -24 -19 -24q-22 0 -32 14q1 9 3.5 19t5 18.5t8 20t9 18.5t11 19.5
t11 18t12.5 18.5t11.5 17t12 17.5t11.5 15.5q15 28 42 45q2 1 7.5 12t10.5 16q12 11 27.5 35.5t20.5 31.5q18 0 29.5 -7t17.5 -16t8.5 -26.5t2.5 -29t-1 -33t-1 -30.5q0 -7 -6 -15.5t-6 -11.5q0 -4 6.5 -12t6.5 -17q0 -4 -0.5 -12.5t-0.5 -13.5l-4.5 4.5t-5.5 4.5
q-12 -12 -24 -19q4 -2 7.5 -6.5t4.5 -4.5q2 0 3.5 0.5t2.5 0.5q0 4 -1 10.5t-1 9.5q5 -5 25 -21q-1 -3 -3.5 -11.5t-4.5 -12.5t-6 -10t-10.5 -10t-16.5 -6q12 -3 23 -3q28 0 46 20q3 -3 9.5 -8.5t11.5 -10.5t10 -9q-18 -42 -19 -45q-3 4 -21 19q-7 -17 -12.5 -55t-13.5 -52
q-22 -34 -41 -56q5 0 14.5 1.5t14.5 1.5q-5 -9 -13 -25.5t-13 -25.5h32q-2 -5 -13.5 -8.5t-11.5 -13.5v-3q-7 -2 -17.5 -6.5t-17.5 -6.5q0 5 -0.5 12.5t-0.5 10.5q0 12 5.5 34t5.5 28q0 13 -12 28q-3 -4 -4.5 -9t-2 -7t-2.5 -4t-5 -3t-9 -1q2 -10 2 -14q0 -7 -2 -13t-7 -12
t-8 -8.5t-11.5 -9t-10.5 -7.5q5 -8 5 -15l-5 -15q-6 -14 -14 -29.5t-13 -15.5q5 21 11 44q-6 0 -15 1.5t-11 1.5q12 -33 15 -45q-1 2 -15 11q-8 -8 -8 -19q0 -6 2.5 -16.5t2.5 -15.5q-1 0 -13 2t-19 4q2 -4 6 -9.5t6.5 -9t2.5 -6.5q0 -10 -12 -26t-12 -27q0 -21 -12 -21
q-7 0 -20 7q-2 -1 -2 -2t2 -1q7 -13 7 -24q0 -12 -11 -32q-7 -12 -12.5 -38.5t-5.5 -35.5q-5 -2 -13.5 -3.5t-12.5 -4t-4 -8.5q0 -2 1 -8t1 -10q-6 -24 -28 -28q-7 0 -9 -3zM247 80q-3 1 -5 4.5t-3 4.5q0 -1 -3.5 -3t-3.5 -4q0 -1 2 -4.5t2 -5.5q2 2 6 4zM-45 -470
q3 -10 5 -11.5t11 -1.5q-10 10 -16 13zM563 63q0 45 18 57q-11 36 -11 38q1 4 8.5 13.5t7.5 17.5q0 4 -1 7q-1 -2 -4.5 -6t-6 -8t-4.5 -8q-7 4 -8.5 28.5t-0.5 48.5l1 24q-10 12 -12 38t-5 34q0 4 4 10t5 10q-13 9 -24 11q0 -1 -1 -3.5t-2.5 -5.5l-2.5 -5q-2 6 -11.5 18
t-9.5 20q0 15 11.5 32.5t11.5 33.5q2 19 13 28.5t26 9.5q19 0 26 -11.5t10 -33t8 -31.5v-5q0 -5 -2.5 -12t-2.5 -11t2 -13t2 -14q0 -9 -2 -28.5t-2 -29.5q0 -5 7 -13.5t7 -17.5q0 -10 -9 -39q-3 -3 -11.5 -8.5t-12.5 -9.5q5 -11 12 -11q4 0 11.5 3.5t10.5 3.5h2
q0 -5 -1.5 -15.5t-1.5 -17.5q-6 4 -9 4q-7 0 -10 -13h3q15 2 16 13q13 -12 13 -20q0 -18 -32 -23q6 -9 13 -9q3 0 8 2.5t7 2.5q17 -24 20 -31q4 9 11 36q1 0 23 -15q14 52 23 52q4 0 10.5 -5t9.5 -5t7 4q-10 14 -13 14q-4 0 -15 -9q10 31 42 31q5 0 12.5 -4t7.5 -10
q0 -4 -8 -11q0 3 -1 6t-3 7.5t-3 8.5q-10 -9 -10 -14q0 -2 1 -4t2.5 -3.5l3.5 -3.5l3 -3q-2 -2 -6 -9t-8.5 -10.5t-9.5 -3.5q-3 0 -4 1q-8 0 -79 -121q-1 -2 -2 -14t-6.5 -18t-19.5 -6q-7 -14 -16 -35q-23 28 -29 39q-19 -24 -25 -33q-13 13 -13 21q0 12 31 37q5 -10 12 -10
q8 0 14 7t6 14q0 9 -14 31q-11 -6 -18 -17zM605 287q-5 -4 -18 -7t-17 -11q6 -2 15 -3.5t14 -2.5zM539 386q0 -3 1.5 -5t1.5 -3q7 4 12 11q0 2 -2 6q-2 -2 -7 -5t-6 -4zM599 108l-3 3q-2 -1 -5 -3t-5 -3.5t-3 -1.5l2 -5q7 4 14 10zM299 -490q-1 1 -4.5 3t-5.5 4q0 -2 -1 -4
t-1 -3q0 -4 2.5 -17.5t2.5 -21.5q0 -4 -2 -14.5t-2 -15.5q0 -7 2 -22.5t2 -24.5h-24q0 11 -1.5 13.5t-9.5 6.5q-3 2 -5 3q0 7 4.5 22t4.5 18q0 7 -19 19q14 21 14 27q0 9 -7 17q-5 -22 -17 -22q2 7 9.5 26.5t12 33.5t4.5 22q5 26 31 32q-1 7 -8 28q0 4 8 6t8 11q-2 6 -2 11
q0 24 12.5 39.5t24.5 24.5t12 16t-7 19q24 9 57 44q0 3 -0.5 10t-0.5 10q0 9 10 16t10 11q0 10 8.5 12.5t9.5 4.5q0 2 -2 12t-4 16l4 3q2 -6 10.5 -18.5t8.5 -20.5q0 -9 -13 -21q-4 2 -6 6q-11 0 -11 -19q0 -3 2 -10.5t2 -10.5q0 -22 -21 -51.5t-25 -41.5q-12 -38 -17 -54
q-1 0 -9.5 -2t-12.5 -4q1 -4 1 -12q0 -12 -15 -47t-15 -58q0 -8 -6 -10.5t-6 -5.5q0 -2 2 -6.5t2 -6.5v-1zM384 -214q0 -6 1.5 -13t1.5 -8q10 6 10 10q0 7 -13 11zM380 229q3 -8 8 -8q11 0 13.5 35t18.5 35q4 0 7.5 4t3.5 8q7 19 30.5 55.5t27.5 36.5q7 -12 7 -17
q0 -2 -3.5 -8t-3.5 -11q-1 -4 -2 -12.5t-3 -15t-5 -11.5q-2 -5 -6.5 -8.5t-13 -7.5t-12.5 -7q17 -9 17 -27q0 -9 -4.5 -13t-20.5 -7.5t-23 -5.5q6 -6 25 -15q-3 -2 -8.5 -8.5t-7.5 -8.5q-1 4 -2.5 9.5t-2.5 7.5q-10 -4 -23 -17q-3 -3 -7 -5.5t-10 -4.5t-8 -3q-3 -1 -4 -8.5
t-5 -7.5t-7 2q-2 -10 -7.5 -28.5t-7.5 -26.5q-5 6 -26 38q16 0 25.5 9.5t13 20.5t8.5 20.5t13 9.5q4 0 5 1zM567 -357q-10 8 -22 16q31 42 36 48q0 10 0.5 25.5t0.5 21.5q0 24 -19 32q8 19 11 20q1 0 3 -1q1 -2 2 -7.5t3 -8.5t8 -3q10 0 14.5 11.5t4.5 19.5q5 0 27 -6
q-26 -19 -26 -35q0 -5 2 -8t4 -4l7 -3.5t8 -3.5v-3h-16q-8 -11 -16 -36.5t-16 -36.5q-2 -4 -2 -6t1 -4.5t3.5 -4.5t4.5 -4t6 -4.5t6 -4.5q-20 -13 -25 -19q3 0 8.5 -2.5t10.5 -3.5q-37 -22 -44 -26l-7 3q4 7 11 19t11 19zM855 277q-16 -4 -18 -8q-4 -19 -24.5 -37t-33.5 -18
q14 11 14 29q0 4 -1 12t-1 13q0 21 15 41t33 20q15 0 18 -9.5t3 -28.5q0 -7 -5 -14zM-91 -555q2 3 9 3q7 -13 7 -26q0 -6 -1.5 -17.5t-1.5 -16.5q0 -29 8 -58q2 -6 16 -16.5t13 -15.5q0 -3 -3.5 -7.5t-7.5 -4.5q-3 0 -9.5 6.5t-11.5 6.5q-3 0 -8 -3q-2 5 -6.5 17.5
t-8.5 21.5q-9 0 -17 -5q1 9 5 27.5t4 30.5q0 18 -16 29h31q0 7 -1 16t-1 12zM475 -631q5 8 25.5 27.5t20.5 27.5q0 2 -1 6t-1 6q0 9 5 12q10 7 12.5 28t8.5 29q0 2 -2 5.5t-2 5.5q0 12 2 19.5t9 12t11 6t16.5 4.5t16.5 4q-5 -6 -18 -16.5t-19.5 -19.5t-6.5 -22q0 -4 2 -12
q5 2 12.5 7t10.5 6q4 0 4 -3l-9 -9q-13 -13 -16 -18t-7 -19q0 -3 -1 -5q-2 -6 -7.5 -21t-9.5 -23t-11.5 -18t-18.5 -15t-26 -5zM510 -70l-5 -1q-5 -1 -10 -1q4 -2 8 -5t5 -4q-22 -35 -26 -44q-17 8 -29 11q11 36 11 73q5 -4 14.5 -14t16.5 -15q10 38 13.5 45.5t15.5 18.5
q-8 -44 -14 -64zM643 -26q2 -8 2 -9q0 -9 -17.5 -25t-17.5 -20t17 -23q-5 0 -14 -7t-14 -7q-16 0 -16 57q11 26 60 34zM208 470q0 3 1 11t2 11t3 7.5t6.5 6.5t11.5 2q20 0 20 -12q0 -17 -7 -30t-16 -13q-5 0 -11.5 8t-9.5 9zM562 597q14 7 21 7q23 0 23 -24q0 -14 -23 -30
q-15 9 -17.5 15t-3.5 32zM182 -214q2 -2 17.5 -5.5t15.5 -20.5q-22 6 -55 9q3 3 10.5 11t13 13.5t12 11.5t11.5 9.5t8 3.5q1 0 5 -0.5t6 -0.5q-1 -1 -13.5 -16t-25.5 -15h-5zM204 -255q0 -30 -8.5 -40.5t-29.5 -12.5q-1 3 -1 8q0 13 18 27t21 18zM101 -502q4 1 17.5 7
t23.5 8q-5 2 -11 4l-9 3q14 14 22 14q1 0 25 -4q-7 -4 -23 -20t-29 -16q-8 0 -16 4zM201 -312q-4 -3 -10.5 -8.5t-9 -8.5t-5 -7.5t-2.5 -10.5v-1q0 -2 -16 -15q-3 15 -3 24q0 15 9.5 20t36.5 7zM570 -154q28 4 32 6q0 -12 -15 -21.5t-20 -16.5q3 16 3 32zM132 -410
q22 22 34 31q-1 -20 -4 -26.5t-13 -6.5q-3 0 -17 2zM757 218q-4 3 -12 3q4 25 21 35q4 -10 4 -15q0 -13 -13 -23zM129 -531q-9 -6 -18 -6q-12 0 -24 16q1 0 2 -0.5t2 -0.5q4 0 11.5 2t10.5 2q11 0 16 -13zM92 -615q-2 -4 -10.5 -11t-8.5 -12q0 -6 5 -12q-3 -3 -15 -9
q0 1 -3 5l-2 3q0 3 20 36h14zM475 -631q3 -9 3 -16q0 -17 -27 -26q21 32 24 42zM504 359l10 -1q-7 -13 -19 -30q0 3 -0.5 9t-0.5 9q0 12 10 13zM640 -152q-11 -24 -16 -24q-4 0 -12 6q25 16 28 18zM631 -120q-2 -3 -5.5 -10l-4.5 -9q-1 0 -3 1.5t-3 1.5q6 14 6 19
q4 -3 10 -3zM109 -571q-3 -2 -8.5 -5.5t-8.5 -5.5q-1 3 -1 8q0 7 6 7q7 0 12 -4zM563 66v-28q-8 5 -8 12t8 16zM101 -590l-1 -6q-2 -6 -2 -10q-4 3 -6 3q0 1 1 7.5t1 9.5q2 0 4 -2t3 -2zM308 -643l7 2q1 -3 3 -7.5t3 -7.5q-3 0 -5.5 0.5t-4 1.5t-2.5 4t-1 7zM169 -435
q-1 0 -5 -0.5t-5 -0.5q-6 0 -6 1q0 6 12 6zM380 227q0 1 -0.5 3t-0.5 4q0 10 8 18q5 -7 5 -10t-2 -5.5t-5 -5t-5 -4.5zM384 161q-4 -2 -4.5 -4.5t-1.5 -3t-6 -0.5l4 6t3 5q1 0 5 -3zM308 139q0 -12 -5 -13q0 14 5 13z" />
    <glyph glyph-name="s_e" unicode="se" horiz-adv-x="648" 
d="M307 -23h16q-4 -4 -7.5 -8t-8 -8t-6.5 -6l6 -5q3 1 7.5 3.5t10 6t10.5 5.5q-9 -17 -13 -20t-21 -6q4 -13 17 -13q2 0 7 0.5t8 0.5q7 0 13 -3q-4 -8 -7.5 -21.5t-8 -23t-12.5 -15.5q-28 4 -48 9q-3 -3 -3 -6q7 0 19 -7q-4 -1 -11 -7t-11 -8q5 -1 12 -3t12 -3t11 -1
q-12 -10 -23 -11q0 -3 0.5 -10t0.5 -11q0 -10 -11 -18t-11 -12q-13 -27 -33 -27q-14 0 -31 17q3 7 16 12q-6 7 -10 7q-3 0 -10 -4.5t-12 -4.5q-40 40 -54.5 64t-14.5 55q0 34 23 93q13 18 31.5 70t33.5 68q16 14 28.5 44t24.5 41q7 11 7 17q0 12 -11 21t-23 9q-7 0 -21 -6
t-21 -6q-34 0 -66 15t-50 42q-8 13 -14 34t-9.5 36.5t-8.5 17.5q2 11 4.5 32t6 35.5t9.5 24.5q1 3 3.5 5.5t5.5 4t7.5 3.5t7.5 3q-9 11 -9 21q0 13 33.5 50t61.5 52q32 17 55 17q27 0 66.5 -22t39.5 -48q0 -14 -15 -52t-15 -51q0 -7 1.5 -21t1.5 -20q0 -2 -0.5 -6t-0.5 -6
q-58 4 -58 67q0 6 1 17t1 16q0 8 -1 26t-1 28q-88 -52 -111 -113q-3 -7 -11 -24t-12.5 -30.5t-4.5 -23.5q3 -13 5.5 -32t4 -26.5t10 -14t25.5 -6.5q9 0 29 3.5t31 3.5q41 0 69 -15l18 -3q6 0 11 3q29 20 54 20q13 0 27 -6q5 0 27 29t22 32q0 2 -4 8.5t-4 9.5q0 7 4 11
q16 34 49.5 62.5t68.5 28.5q22 0 62 -21q15 -8 26.5 -30.5t11.5 -39.5q0 -38 -75 -132q-30 -38 -80 -40q-8 -18 -8 -40q0 -30 12.5 -61t32.5 -48q11 7 36 41q8 14 25.5 40.5t25.5 42.5q1 1 11 9t10 18v4q8 0 15.5 8t12.5 17t15.5 17t25.5 8q13 0 24.5 -7.5t11.5 -18.5
q0 -6 -16 -19t-16 -30l-14 4q-15 0 -15 -7q0 -1 2.5 -5.5t2.5 -7.5q0 -7 -5 -12q-7 -11 -12.5 -35t-6.5 -28q-9 12 -12 15q-5 -22 -5 -35q0 -3 1 -15.5t1 -19.5q-7 0 -15.5 -1.5t-13.5 -1.5q0 -49 -53 -54q-4 0 -14.5 -2t-15.5 -2q-10 0 -13.5 16t-9.5 16q-3 0 -9 -4.5
t-8 -4.5q-8 0 -17.5 10.5t-9.5 18.5q0 12 8 22q-5 0 -15.5 -3.5t-14.5 -3.5q-5 0 -6.5 9t-5.5 13q-3 6 -17 20q-1 4 -11 25t-10 33q0 3 2 9t2 8q0 13 -18 26q6 13 6 23q0 9 -6 18q-22 -10 -30 -21t-8 -32q3 -27 3 -80q0 -2 -8 -29q-18 -4 -17 -9q30 -10 34 -12
q-9 -10 -33 -11.5t-33 -10.5q0 1 0.5 5t0.5 5q0 11 -5 30t-6 30q-3 -3 -21 -31.5t-39 -31.5q0 -2 0.5 -7t0.5 -7q0 -32 -24 -91t-24 -84t17 -38.5t44 -13.5q5 0 9 5t4 11q-3 9 -3 16q0 26 24 41q3 10 8.5 23t9 21.5t3.5 11.5q0 1 -3.5 5t-3.5 6q0 1 7 15.5t7 23.5
q0 14 -9 24q30 12 63 31q2 -10 2 -14q0 -30 -28 -52q0 3 3 9t3 8q0 6 -8 7q-1 -2 -3 -6.5t-4 -8.5t-4 -7zM485 288q3 0 6 -4q5 5 20.5 14t26 17t10.5 13q-1 1 -1 4q0 5 16.5 27.5t16.5 35.5q0 16 -12 40q-12 0 -22.5 -8.5t-19.5 -29t-11.5 -28l-10.5 -31.5q-3 -7 -9.5 -23.5
t-9.5 -26.5zM323 -99q-13 5 -26 14q3 -24 9 -26q2 -1 4 -1q7 0 13 13z" />
    <glyph glyph-name="v_e" unicode="ve" horiz-adv-x="620" 
d="M51 492q13 3 25 3q39 0 63 -29.5t24 -69.5q0 -7 -3 -18.5t-3 -13.5q0 -5 7 -8q0 -10 -5 -22q10 -10 10 -18t-12 -21.5t-14 -20.5q3 -2 12 -5t12 -5q-3 -7 -11 -40q3 0 6.5 -2t5 -3.5t1.5 -0.5h-2q-2 -3 -2.5 -9t-2.5 -10t-6 -4q-2 0 -4 1q-2 0 -4.5 -5.5t-2.5 -8.5
q5 -9 5 -18q0 -8 -8.5 -22t-8.5 -24q13 -73 29 -97l1 -1l-1 -2v-4l2 -4q3 -3 8 -5q1 3 9 23.5t8 32.5q0 3 -1.5 8t-1.5 7q0 3 6.5 13t6.5 15q5 22 24.5 85.5t23.5 106.5q24 6 34 6q19 0 32 -11q6 -5 15 -6.5t23 -2.5t22 -2q10 0 16 25t10 55t8 36q12 9 23.5 32.5t19.5 31.5
l10 10l12 12t12 10.5t14.5 10t13.5 5.5t16 3q36 0 66.5 -31t30.5 -67q0 -42 -33.5 -80.5t-80.5 -52.5q-44 -21 -53 -31q0 -1 2.5 -6.5t2.5 -7.5q0 -4 -4 -13.5t-4 -14.5q0 -4 2.5 -12.5t2.5 -14.5q0 -9 -3.5 -25t-3.5 -23q0 -9 7 -28.5t7 -31.5q3 -16 17.5 -24.5t28.5 -8.5
q16 0 90 102q5 7 12 23t10 21q17 19 33 58.5t21 47.5q4 10 6 30.5t6.5 32.5t15.5 12q1 0 4.5 0.5t6 0t6 -1.5t5 -5t1.5 -11q-6 -10 -11 -35.5t-14 -36.5q-10 -14 -18 -38.5t-11 -28.5q-16 -7 -16 -30q0 -1 0.5 -3t0.5 -3q0 -11 -19 -27t-19 -35q-2 -6 -11 -17.5t-11 -16.5
l-12.5 -25t-17.5 -31t-15 -10q-2 0 -6 2h-6q-12 -20 -33 -20q-56 0 -77 19q-41 36 -42 43q0 4 3 11.5t4 10.5q-4 1 -12.5 4.5t-13.5 4.5q-7 27 -7 56q0 42 19 84q-13 13 -26.5 19.5t-22.5 7.5t-26 2t-26 2q0 -1 -6.5 -12t-8.5 -15.5t-4.5 -14.5t-2.5 -20q-2 -18 -9.5 -66
t-7.5 -67q0 -2 0.5 -6t0.5 -5q0 -10 -9 -21t-9 -18q1 -5 5.5 -15t4.5 -15q0 -13 -19.5 -27t-42.5 -14q-29 0 -48.5 17t-27.5 37.5t-18.5 52t-17.5 45.5q-4 4 -4 11q0 2 2.5 9t2.5 10q0 5 -2 17t-2 18t1 9q0 7 -6 17.5t-6 15.5q0 3 4.5 13t4.5 17q0 5 -3 16t-3 16
q0 37 17 109v4q0 4 -1 8t-2.5 9t-2.5 8q-2 33 -13 91zM540 460q-15 -9 -23.5 -39t-14.5 -37q-13 -10 -17.5 -22.5t-6 -31t-5.5 -29.5q75 25 106 92q-1 4 -3 16.5t-3.5 17.5t-5.5 13t-10.5 12.5t-16.5 7.5z" />
    <glyph glyph-name="t_t" unicode="tt" horiz-adv-x="727" 
d="M558 230q4 -7 14 -7q-14 -26 -16 -36l-4 -1q-5 -1 -6.5 -1t-5 -1.5t-5.5 -3.5t-4 -5t-4 -7h4q12 0 21.5 12.5t19.5 16.5q4 -5 4 -11t-6 -15.5t-6 -14.5q0 -3 2 -8t2 -7q0 -5 -7 -14.5t-7 -16.5q0 -5 2 -8q4 6 19 16q2 -4 2 -11q0 -8 -14.5 -13t-14.5 -17q0 -3 2 -9
q-2 0 -4 0.5t-3 0.5q-13 0 -22 -17q6 -2 7 -2q8 0 16.5 10.5t22.5 10.5q3 -5 7 -21.5t6 -19.5q15 -15 15 -21q0 -5 -15 -19q3 -5 10.5 -15t11 -16t7 -17.5t3.5 -24.5q4 -20 7.5 -25.5t20.5 -18.5q4 17 4 53q23 14 23 15q0 13 -23 20q0 3 1.5 9.5t1.5 11.5q25 -8 28 -9
q-1 7 -4.5 16.5t-3.5 12.5q0 5 -2.5 6.5t-8.5 1.5t-9 1q0 3 2 10t2 12q5 -3 18 -3q0 10 -3 29t-3 29q0 18 6 30q16 -12 19.5 -62t15.5 -70q-19 -27 -19 -31q0 -12 13 -32q4 2 11 9q33 -27 33 -51q0 -17 -16 -41q7 -18 7 -33q0 -19 -16.5 -30t-57.5 -21q2 3 6.5 8.5t7.5 9.5
q-10 -2 -22.5 -6.5t-18.5 -4.5q-13 0 -33 19t-24 36q14 8 14 32q-4 -3 -11.5 -10.5t-12.5 -10.5q1 -2 6.5 -5.5t6.5 -5.5q-16 3 -22.5 8.5t-9.5 17.5q-4 14 -20 46t-16 42v15q0 7 -4 9.5t-20 4.5q4 22 6 25q10 3 25.5 10t21.5 9q16 2 18.5 6t2.5 25q-15 -24 -21 -31
q-16 4 -22 4q-15 0 -29 -10q-10 0 -10 8q0 4 2 13.5t2 13.5q0 18 -9 30q-7 14 -7 45q0 1 0.5 4.5t0.5 5.5q0 5 -1.5 17t-1.5 18t4 17t4 13q0 3 -2 3q-12 19 -12 75q0 7 2.5 20t3.5 17l-7 15q-1 0 -2 -0.5t-2 -0.5q-4 0 -7 3t-6.5 7.5t-5.5 6.5l-2 -6q5 -10 5 -24
q0 -13 -8.5 -37t-8.5 -35q0 -3 2.5 -10.5t2.5 -12.5t-2 -11q-5 -9 -7 -21.5t-2 -29.5t-1 -25q-6 -36 -6 -63v-8q0 -12 -8.5 -30.5t-9.5 -24.5q-14 -9 -31 -9q-8 0 -23 3.5t-16 3.5q-30 0 -66 70.5t-39 96.5q-1 14 -4 148q2 21 7 72.5t7 79.5q0 5 3 17t3 19q0 17 -21 17h-4
q-6 0 -9.5 3t-6 8.5t-3.5 7.5q2 0 5 -0.5t5 -0.5q11 0 13 11q-6 -4 -23 -10q-12 -16 -45 -16q-36 0 -66.5 19.5t-65.5 59.5q-9 12 -9 24q0 7 5 20q25 0 45 -17q34 -28 79 -28q17 0 54 0.5t57 0.5q4 34 6.5 50.5t8 41.5t12.5 36t16 11q49 0 49 -47q-2 -12 -4 -37.5t-3 -34.5
q47 3 124 17q17 0 22.5 6t8.5 27q4 51 8 163q0 2 3 4.5t4 4.5q6 -1 19 -2.5t20 -2.5t17 -4t14.5 -6.5t8.5 -10t4 -15.5q0 -6 -0.5 -17t-0.5 -16t3 -18.5t3 -20.5q0 -31 -11 -66q6 -10 21 -10q6 0 16.5 1t16.5 1q9 0 24.5 -1t22.5 -1h23q18 0 30 -6q6 6 16 6q6 0 20 -4.5
t20 -4.5h7q14 0 41.5 -8.5t42.5 -8.5v-23q2 -1 5 -1q5 0 7 2.5t3 8.5t2 8q6 -1 12 -9t10 -8q1 0 3.5 0.5t3.5 0.5q8 0 8 -19q0 -18 -15 -27q-55 6 -95 24q7 6 7 12q0 4 -6.5 8t-11.5 4q-2 0 -8 -4.5t-15.5 -11t-17.5 -10.5q-3 14 -10 24q-5 -7 -12 -12t-12.5 -7.5t-16 -3.5
t-15.5 -1h-17.5h-14.5q1 5 14 22q-7 0 -19 -2t-18 -2q3 -9 3 -18q-6 0 -12 5t-11 5q-16 0 -38 -25t-22 -46q0 -2 0.5 -6.5t0.5 -7.5q0 -6 -2.5 -20t-2.5 -22q3 4 7 22q17 -13 17 -19q0 -2 -3 -14.5t-3 -16.5v-17q0 -23 -20 -32q2 -9 14 -21q-2 -3 -5.5 -11.5t-6.5 -10.5
q13 -18 13 -21q0 -2 -6 -7.5t-13.5 -14t-10.5 -15.5q17 -3 32 -10q-4 -7 -8.5 -20t-8.5 -19h-3q-9 0 -19 -12l3 -5q3 3 9.5 9t9.5 8zM338 63q5 24 22 83q9 72 22 122q2 8 8 33.5t10 39.5q5 16 15.5 44t13.5 37q0 60 35 112q1 2 1 4q0 7 -6 12t-11 5q-11 0 -45 -23
q-6 20 -6 22q-10 -5 -32 -23t-36 -18h-4q-9 -61 -9 -84q0 -10 0.5 -28t0.5 -27q0 -15 -6 -41.5t-6 -40.5q0 -11 4.5 -29t4.5 -27t-5 -27t-5 -28q0 -3 1.5 -12t1.5 -12q0 -13 -13 -18q9 -2 14 -4t8 -4t3.5 -8.5t0.5 -11t-0.5 -17.5t-0.5 -23q15 -8 19 -8zM505 131
q18 -17 22 -22q5 8 11 22.5t8 19.5h-4q-8 0 -18.5 -9t-18.5 -11zM572 -48q-5 2 -9.5 11.5t-12.5 9.5q-2 0 -5 -3.5t-3 -6.5q0 -16 11 -16q6 0 19 5zM855 596q-5 12 -11 12q-4 0 -7.5 -3t-3.5 -7q4 -7 10 -7q4 0 12 5zM717 -153q7 6 7 10q0 3 -7 12q-3 0 -5 -1.5t-3 -1.5
q0 -9 8 -19zM534 387l2 -3q4 4 8.5 8t7.5 7q-1 0 -2.5 1t-3.5 1q-1 -1 -12 -14zM442 607l12 -11l3 6q-1 1 -5.5 4t-7.5 6zM575 -90l-3 16h-7q0 -14 2 -15t8 -1zM688 122q-1 3 -7.5 7.5t-7.5 7.5q-3 14 -3 25q0 6 5.5 20t5.5 20q0 4 -1.5 14t-1.5 14q10 0 17 -4q0 11 -3 19
t-3 12q0 10 6 20q19 73 37 101q3 6 3 15q8 59 64 59q1 0 6.5 0.5t8 0t7 -2t6.5 -5t4 -10.5t2 -17q-26 -15 -47.5 -38t-30.5 -29q1 -5 6 -13t5 -12q0 -7 -8 -12q-3 6 -17 20q0 -6 -6 -16t-6 -16q0 -2 3.5 -8t3.5 -8q0 -12 -13 -20t-13 -16q0 -5 2 -15q-3 -5 -3 -9q4 -1 10 -5
t10 -5q0 -3 -2.5 -5t-7 -3.5t-8.5 -2.5t-9 -2t-7 -2q3 -10 3 -20q0 -11 -5 -31t-5 -28zM720 -24q6 -6 6 -12q0 -2 -1.5 -4.5t-3.5 -4t-5 -4t-4 -3.5q0 5 3.5 14t4.5 14zM688 122q29 0 29 -20l-5 -2q-4 3 -11.5 10.5t-12.5 11.5zM712 115q6 13 10 13q3 0 10 -4
q-6 -1 -11.5 -4.5t-8.5 -4.5z" />
    <glyph glyph-name="r_r" unicode="rr" horiz-adv-x="648" 
d="M587 173q6 -5 15 -11q-9 -9 -15 -28t-9 -34t-4 -16q-6 -6 -17 -31t-28 -32q-3 0 -12.5 -12t-17.5 -12q-7 0 -13 5q-6 3 -21 4t-20 2q-9 15 -16 25q3 7 9 41l-2 4q-2 -1 -7.5 -4.5t-9.5 -5.5q-4 3 -4 7t5.5 13t5.5 12q0 6 -9 9q1 6 4 14.5t3 11.5l-1 2q-10 5 -12.5 22.5
t-4.5 22.5q3 2 30 22q-1 5 -6.5 14.5t-6.5 13.5q6 32 50 76q-18 9 -31 12q8 9 12 16.5t5 11t2.5 14t2.5 16.5q-5 0 -14 1t-12 1q-34 0 -47 -21q-10 -15 -38.5 -46.5t-40.5 -52.5q-6 -13 -23.5 -38.5t-23.5 -36.5q-8 -16 -14 -51t-12 -50q-4 -26 -9.5 -42t-19.5 -29t-36 -13
q-37 0 -54 36q-18 23 -18 32q0 8 4 13q-4 4 -4 14v7q0 12 -6.5 34t-6.5 33q0 9 9 30t9 35q0 15 -7 30q2 2 7.5 3t9 2t3.5 3q0 6 -4 8t-10.5 3.5t-9.5 4.5q16 13 21 13q0 5 -1 12.5t-1 10.5q0 9 3.5 22t9.5 30.5t8 24.5q-44 15 -74.5 43t-30.5 69v5v6t0.5 5.5t1.5 6l3 4.5
t4.5 4t6.5 2t9 1q12 0 21 -7.5t9 -17.5q0 -4 -1.5 -10.5t-1.5 -8.5q0 -15 21.5 -31.5t43.5 -25.5q57 -25 73 -45q-2 -5 -10 -33t-16 -41q-4 -5 -12 -41q0 -8 -7.5 -20.5t-7.5 -19.5q0 -2 1 -6t1 -7q0 -10 -9 -33t-13 -43q11 0 11 -12q0 -2 -0.5 -7.5t-0.5 -8.5q0 -19 10 -55
q22 26 22 35q1 18 22 47.5t21 44.5q4 25 59.5 92t69.5 103q-28 37 -28 61q0 11 4 22q-9 6 -9 28q0 32 20.5 61.5t53.5 29.5q30 0 46 -18t16 -43q0 -24 -13.5 -57t-15.5 -43q-1 -1 -2.5 -5.5t-4.5 -9.5q12 0 29.5 0.5t24.5 0.5q26 0 53.5 -14t37.5 -38q-19 -24 -27.5 -54
t-18.5 -38q2 -12 2 -18q0 -22 -19 -76q-2 3 -3.5 10t-1.5 9q-20 -17 -20 -22q0 -7 22 -16q7 -28 7 -38q-4 -2 -14.5 -10t-16.5 -12q5 -5 16 -4.5t17.5 -2t6.5 -15.5q5 2 4.5 8t0.5 8q-4 5 -4 10q0 6 10.5 16.5t13.5 17.5q7 11 10 15t11 9t17 5zM395 457q34 38 34 73
q0 20 -12 36q-24 -29 -24 -74q0 -11 2 -35zM498 168q-7 -5 -22.5 -14t-24.5 -15q8 -4 18 -4q36 0 36 17q0 6 -7 16zM486 251q0 -12 20 -21q0 10 -2.5 15t-3.5 6t-8 1zM442 162q-6 6 -8 6q-6 0 -11 -6q1 0 3 -1.5t3 -1.5q7 0 13 3zM639 238v16q9 2 11 20t10 18q4 0 6 -1
q35 49 35 78q0 8 11.5 19t21.5 11q4 0 10 -1t13 -2.5t11 -2.5q-9 -13 -30.5 -46.5t-33.5 -50.5q-1 0 -7.5 1.5t-12.5 1.5q0 -13 5 -16q-8 -7 -24.5 -22t-25.5 -23zM587 173q2 9 2 34q15 -21 15 -26q0 -6 -17 -8zM612 213q11 8 12 10l4 -5q-10 -5 -12 -8z" />
    <glyph glyph-name="l_l" unicode="ll" horiz-adv-x="530" 
d="M489 -157q0 -6 2 -15.5t2 -13.5q18 9 21 43.5t15 44.5q7 9 7 44q-2 9 -2 28q0 10 13 91q2 12 6 40t6.5 46.5t7.5 45.5t10 45t11.5 35.5t15 26t18.5 8.5q5 0 8 -1q-23 -41 -37 -95q5 -12 5 -21q0 -11 -6 -31t-6 -30q0 -7 1 -10q2 -2 -4.5 -7.5t-6.5 -7.5l2 -5q2 -5 2 -7
q0 -7 -7.5 -22t-7.5 -24q1 -3 1 -9q0 -16 -17 -23q3 -13 8 -13q3 0 7.5 4.5t5.5 4.5q3 -6 3 -9t-2.5 -5.5t-6.5 -5t-6 -4.5q8 -19 8 -43q0 -11 -5 -33t-5 -33q0 -4 5 -14t5 -14q0 -3 -7.5 -21t-7.5 -29q0 -2 0.5 -4.5t0.5 -3.5q0 -2 -6 -7t-10 -6q1 -3 1 -9q0 -19 -21.5 -32
t-37.5 -13q-24 0 -37.5 13t-18 28t-8.5 39q-1 5 -1 8q-2 1 -11 2t-13 7t-4 20q0 10 3 26t3 23q0 11 -18 32t-18 23q0 9 6.5 28t6.5 28q0 7 -6 22t-6 30q0 65 10 79q3 6 9 9q0 -1 7 -17q23 24 23 55q0 2 -0.5 7.5t-0.5 8.5q-14 -6 -14 -11q0 -3 5 -15q-7 -4 -18 -8.5
t-17 -8.5q9 33 9 61q0 7 -5 17.5t-5 13.5q0 5 5 14t5 13q0 1 -0.5 2.5t-0.5 2.5q9 6 9 17q0 4 -1 11t-1 10q0 7 4 12q-6 7 -6 15q0 10 12.5 23.5t12.5 18.5q0 9 -13 19q-3 -3 -11 -11.5t-12 -15t-4 -14.5q0 -3 2 -9q0 -5 -12.5 -29t-23.5 -24q0 -3 2.5 -10.5t2.5 -12.5
q-23 -20 -26 -23q6 -8 10 -14q0 -3 -1 -4l-2 -2q-30 -26 -36 -77q0 -5 -8 -23.5t-8 -28.5q1 -3 1 -9q0 -18 -17 -30q7 -10 7 -19q0 -7 -8.5 -21t-8.5 -22q0 -6 1.5 -20t1.5 -21q0 -28 -14 -56.5t-36 -28.5q-21 0 -43.5 30.5t-22.5 39.5q3 9 3 16q0 16 -21 23q-23 82 -29 107
q3 12 27 32.5t24 35.5q0 19 -19 34q0 -60 -23 -60q-13 0 -21 15q0 1 5 8.5t7 13.5q-9 10 -9 25q0 8 6 23t6 16q0 2 -1.5 4t-5.5 6.5t-8 9.5q3 7 3 21v10q0 24 16 34v5q0 23 10 32q-8 9 -8 19q0 4 4 21.5t4 29.5q0 4 -0.5 11.5t-0.5 11.5q0 25 16 75q6 10 6 21q0 3 -2 8t-2 6
q0 8 2 21.5t2 21.5q1 2 6 9t7.5 13t2.5 12q0 3 -2 11q0 2 2 5.5t6 11t7 14.5q13 0 22 3q-2 1 -6.5 2t-7 2t-2.5 2q-4 18 -4 25q0 12 5.5 28t15.5 38.5t12 28.5q3 9 9.5 27.5t8.5 25.5q71 -9 71 -41q0 -11 -7.5 -38t-15.5 -37q-1 -1 -1 -4q0 -1 0.5 -5.5t0.5 -6.5t-1 -11
t-2.5 -13t-4.5 -10t-9 -9t-15 -4q9 -8 22 -19q-3 -3 -13 -9.5t-15 -10.5q1 -4 7.5 -11.5t8.5 -12.5q0 -3 -5 -10t-5 -11q-6 -20 -9 -36q-30 -14 -47 -24q4 -9 10 -9q4 0 12 5.5t12 5.5q-5 -22 -19 -22q-5 0 -9 -7q16 -10 20 -10q3 0 10.5 2t10.5 3q-4 -8 -8.5 -11.5
t-15.5 -7t-12 -4.5q-4 -5 -9.5 -17.5t-8.5 -16.5q6 -7 11 -7q4 0 11 4.5t10 5.5q0 -16 -18 -31t-27 -15q-5 0 -13 21l-7 -14t-11 -20q18 2 44 8q-26 -44 -35 -64q8 -5 13 -5q7 0 32 28q-2 -10 -5.5 -23.5t-4.5 -16.5q-30 -7 -37 -14t-7 -28q6 2 21 7.5t23 8.5q-1 -2 -3 -9.5
t-3 -10.5t-4 -9t-5.5 -9t-7 -7t-9.5 -6q-20 -8 -21 -19q0 -22 9 -22t11 12t7 14q11 -46 11 -76q0 -22 -8.5 -62.5t-8.5 -61.5q3 0 5.5 2t4 6.5t2.5 8t2.5 10t2.5 9.5q2 -4 9 -15t10.5 -17t6.5 -15t3 -16q0 -10 -5.5 -17.5t-11.5 -11.5q3 -1 28 -9q1 5 2 15t2 16t5 13.5
t11 11.5q0 3 -1 8.5t-1 7.5q0 15 18 47.5t18 43.5q0 17 13 39t13 25q0 11 9 24.5t10 17.5q0 9 9 24.5t9 25.5q2 11 12 27t11 19q7 27 33.5 73t35.5 73q7 20 27.5 54t26.5 50q3 14 13.5 47.5t14.5 53.5q13 77 32 119q1 2 4.5 14.5t5 17t6 14t9 13.5t12.5 7.5t17 3.5
q28 0 28 -19q0 -10 -2.5 -25t-7.5 -35.5t-7 -30.5q-3 -16 -18 -88q-2 -5 -7.5 -13t-7.5 -14q0 -4 2 -14t2 -15q0 -16 -17 -24q10 -18 10 -33q0 -20 -12 -34.5t-12 -15.5q0 -5 16 -11q-14 -18 -14 -40q0 -12 5 -29q0 -17 -3 -20q-16 -16 -16 -52v-18q-3 3 -8 9t-8 9
q-22 -32 -29 -40q0 -2 6.5 -11t9.5 -16q1 4 2.5 8.5t2 7.5t1.5 5.5t1.5 4t2 2.5t3.5 1q10 0 10 -13q-1 -2 -1 -6v-6q0 -5 -22 -32q-2 3 -12 3q-10 -16 -38 -51q4 -1 10 -1q9 0 24 21q17 0 17 -35q0 -23 -22 -26q2 -6 3 -17t2 -14q-2 0 -7 1.5t-9 1.5q-7 -22 -9 -25
q18 4 31 12q-6 -23 -6 -43q0 -21 6 -39q5 4 9.5 9.5t7.5 8.5q-6 -13 -12 -42t-13 -42q-18 -50 -18 -62q0 -18 12 -39q10 4 10 12q0 3 -2 9t-2 10q0 5 7 13t7 15q0 6 -6 14q3 -1 8 -2.5t6.5 -2.5t4 -3.5t3 -5.5t0.5 -9q0 -12 -3.5 -24.5t-10 -30t-8.5 -22.5q-3 -6 -3 -9
q0 -2 1 -5.5t3 -11.5t4 -17h3q8 0 18 12t16 14zM402 15q-6 -7 -14.5 -18t-12.5 -16h16q2 0 6 -6l-5 -2.5l-4 -2t-3.5 -2t-3.5 -3t-3.5 -4t-5 -6t-6.5 -9.5q3 -2 6.5 -5.5t7 -7.5t5.5 -6q4 4 7 8t5 10.5t3.5 9.5t2.5 12t1.5 11.5t1.5 14t1 13.5q0 4 -5 9zM420 427
q17 -21 27 -21q8 0 14 4t6 9q0 2 -1 6t-1 5q0 6 2.5 11t6.5 11.5t6 10.5q-8 -5 -24 -12t-25.5 -12.5t-10.5 -11.5zM430 376h-23q-5 -25 -5 -37q0 -4 1 -9t1 -9q28 22 28 43q0 4 -2 12zM420 307h-25v-46q13 0 17 7.5t4 20t4 18.5zM413 116l-11 5q-32 -22 -32 -33q0 -4 18 -18
q9 19 25 46zM135 483q0 8 4 20.5t4 19.5q0 6 -1 10q-9 -6 -23 -17t-18 -14q12 -7 34 -19zM483 474q7 29 10 38q-4 0 -7 2q-2 -1 -7.5 -5t-8 -6t-5 -6t-2.5 -8q0 -12 20 -15zM497 551q-8 4 -17 4q-11 0 -19 -9q0 -17 9 -17q3 0 13 7.5t14 14.5zM104 436q22 19 35 38
q-15 0 -19.5 -5t-15.5 -33zM430 6q7 5 7 13q0 5 -3.5 15t-3.5 14q-10 0 -14 3q-1 -1 -4 -3t-5 -4q18 -2 18 -15v-10q0 -8 5 -13zM163 729v-10q1 0 3.5 0.5t4.5 0.5t6 -0.5t6 -0.5q12 0 19 8q-12 2 -39 2zM170 587q2 -1 3.5 -2t2.5 -1.5t1 -1.5q12 18 15 34q-13 0 -15.5 -5.5
t-2 -13t-4.5 -10.5zM420 388q6 2 14.5 3.5t10.5 2.5q0 8 -12 8q-11 0 -13 -14zM152 589q2 0 3 3q2 2 3 2q-6 10 -10 15l-6 -5q1 -2 4.5 -6.5t5.5 -8.5zM161 572q0 5 -3 5q-1 0 -7 -1t-9 -1q0 -3 3 -7q1 0 7 2t9 2zM192 647q-2 -3 -7 -9.5t-8 -12.5q17 0 17 10q0 2 -2 12z
M420 -170l3 2q0 2 -7 14q-3 -3 -6 -3q4 -10 10 -13zM423 466q-2 0 -2.5 -1.5l-1.5 -4.5t-3 -5h7v11zM407 430q-4 4 -5 4q-2 0 -7 -4q0 -8 7 -8q2 5 5 8z" />
    <glyph glyph-name="t_h" unicode="th" horiz-adv-x="871" 
d="M814 -107h-4q-3 11 -22 14t-25 14q-37 39 -37 76q0 13 -8.5 32t-8.5 21q0 3 3.5 9t3.5 8q0 5 -9 5q0 4 1 11t1 10t-3 9t-3 11q8 12 8 29q0 14 -8 32q14 18 14 24q0 8 -7 17t-7 12t5.5 12t5.5 18q0 7 -4 13t-4 9l3 12q2 18 4 51.5t2 35.5q7 21 7 39q-4 0 -14 -11.5
t-20.5 -25t-14.5 -16.5q-9 -11 -22.5 -44.5t-20.5 -38.5q-6 -22 -19 -62t-21.5 -69t-8.5 -39q-4 -13 -13 -13q-14 0 -44 20q-3 1 -11 3.5t-13 5.5t-5 9q0 2 2.5 8t2.5 8q0 7 -9 13.5t-9 8.5q0 1 2.5 5.5t2.5 7.5q0 9 -10 9h-5q0 1 -0.5 8.5t0 11t1.5 8.5t4.5 7.5t8.5 2.5v7
q0 9 -10 9q-1 0 -3.5 -0.5t-4.5 -0.5q0 6 -2 18.5t-2 19.5q0 4 1 8t2 6t1.5 4t-0.5 3q-5 4 -5 10q0 2 2 7.5t2 12.5q-18 0 -54 -75q-18 -39 -31 -96.5t-13 -105.5q0 -9 -4.5 -25t-9.5 -27.5t-6 -11.5q-12 -11 -33 -11q-32 0 -51 26t-19 57q0 6 -6 14t-7 12q-22 150 -22 243
q0 16 3 49t3 44q0 4 -2 11t-2 9q0 16 2.5 44.5t2.5 44.5v7.5v8.5t-0.5 8t-2.5 7.5t-5 4.5t-8 2q-1 2 2 3h16q-15 11 -36 11q-12 0 -21 -14q-8 7 -18 7q-5 0 -16 -5.5t-16 -5.5q-9 0 -28 13t-20 13q-27 4 -45 26.5t-18 47.5q0 2 1 5t1 4q0 3 -2 10.5t-2 11.5q0 25 21 42
q5 -8 9 -23t10.5 -22t22.5 -10q68 -14 84 -13q4 -8 11 -8q6 0 16 5.5t14 5.5q2 0 7.5 -4t9.5 -4q8 0 13 7t6.5 20t1.5 24t-0.5 27.5t-0.5 20.5q0 24 -17 38q8 4 18 4q21 0 36.5 -8t25 -22.5t15.5 -28.5t12.5 -32.5t11.5 -28.5q36 4 59 4q3 0 5.5 -3.5t11.5 -3.5q2 0 6 10
q5 0 17 -0.5t19 -0.5t18.5 1.5t22.5 4.5q15 8 22 9q0 -2 2 -7l-3 -3q-3 -2 -5.5 -4.5t-3.5 -4.5q3 3 9 3q3 0 9 -1.5t8 -1.5q8 0 11 10q-7 14 -7 27q0 21 19 44.5t19 30.5q0 3 -3.5 10.5t-3.5 17.5q11 3 24 10q-10 13 -10 24q0 6 8.5 17.5t8.5 13.5q5 35 25 35q-7 0 -10 -3
q0 -4 4 -4q11 0 29.5 13.5t26.5 13.5q11 0 32 -3.5t31 -3.5q2 -1 9 -7.5t9 -8.5l8 -8t7.5 -9.5t5.5 -10.5t5 -13l2.5 -15t1.5 -19q0 -47 -45 -114q4 -8 8 -8q1 0 2 0.5t2 1.5t3 2t5 2t8.5 1.5t13.5 0.5q14 0 37 -9q-21 -7 -42 -10l5 -2q53 0 53 10q0 6 -7 13q8 8 12 8
q3 0 9.5 -8t11.5 -8q3 0 9 1.5t15.5 3.5t15.5 3q2 0 9 -7t7 -8q10 10 10 13q1 -2 5 -7t6 -9q2 -1 12.5 -2.5t15 -3t9.5 -8.5t5 -18q0 -9 -6.5 -16.5t-15.5 -9.5q-2 12 -9 12q-4 0 -11 -4v9q-2 2 -6 5t-5 4q-4 0 -6 -0.5t-4 -0.5q-6 0 -16 3.5t-15 3.5q-3 0 -9 -3.5t-8 -3.5
h-2q-2 1 -3 1q0 7 3 12q-11 -3 -31.5 -9t-29.5 -8v12q-5 0 -12 -8.5t-15 -8.5q-4 0 -7 1q-11 0 -20.5 -6.5t-11.5 -6.5q-32 -1 -51.5 -19t-39.5 -53q-18 -21 -57 -89q-3 -5 -11.5 -12.5t-12.5 -12.5q2 -2 8.5 -3.5t9.5 -2.5q-6 -12 -10 -24q0 2 3 2q0 -3 1 -6.5t1 -4.5
q0 -2 -3 -8t-3 -9t0.5 -7t0.5 -6l-6 -24q-6 -24 -13 -37q-6 -6 -6 -10q0 -7 13 -11q1 -4 6 -35q9 4 15.5 14.5t12.5 23.5t9 18q6 10 26 35t26 37q4 15 23.5 29t35 20.5t18.5 6.5q23 0 48.5 -19t25.5 -48q-1 -1 -1.5 -3.5t-3 -9.5t-4.5 -12.5t-3.5 -11.5t-2.5 -8.5t0 -1.5
q-3 -6 -3 -11q0 -6 7 -14t7 -12t-29 -36q5 3 14 3q0 -5 -4.5 -14t-4.5 -13q0 -7 6 -13q0 -6 -2.5 -16t-2.5 -16q0 -4 1.5 -10t1.5 -9q0 -13 -2 -24.5t-4 -18t-6.5 -19t-7.5 -20.5q8 2 11 2q8 0 8 -7q0 -2 -1 -8t-1 -9t0.5 -10.5t0.5 -11.5q0 -11 -25 -28q17 -3 22 -6t5 -12
q0 -2 -2 -20h11q3 -42 15 -58q5 -6 13 -12q2 9 3.5 22.5t3 20t3.5 14t5.5 10.5t8.5 3q-9 16 -9 37q0 5 4 5t8 -4q5 5 5 8q0 2 -1.5 4t-4 3.5t-3.5 2.5q2 29 4 35q0 9 -1.5 28t-1.5 29q7 7 7 13q-1 2 -1 8q0 5 2.5 12.5t4.5 12.5t1 7q0 13 3 19t3 7t-4 3.5t-4 4.5t1 8t1 9
l9 -9q4 9 9.5 26t10 26.5t10.5 20.5t14 16.5t19 5.5t23.5 -6.5t12.5 -16.5q0 -5 -4 -10q-29 -32 -45 -89q-11 -26 -11 -38q0 -2 1.5 -8t1.5 -8q0 -3 -2.5 -10.5t-2.5 -10.5q-7 -47 -7 -53q0 -8 2.5 -20t2.5 -19q-2 -9 -4 -26t-3 -23q0 -31 -13 -57q-1 -2 -3.5 -12.5
t-4.5 -17t-6 -15t-9.5 -13t-12.5 -4.5q-16 0 -17 5zM513 559q-14 14 -14 26q0 6 4.5 16t4.5 14q2 14 2 36q-13 -5 -36.5 -14.5t-35.5 -14.5q0 1 0.5 2.5t0.5 2.5q0 7 -10 15q-16 0 -39.5 -16.5t-31.5 -16.5h-9q0 -2 -12 -13t-12 -18q2 -10 2 -14q0 -21 -19 -37q18 0 18 -11
q0 -4 -3 -18.5t-5 -26.5l-3 -12q0 -17 -3.5 -30t-3.5 -19q8 0 8 -6q0 -2 -0.5 -6t-0.5 -7v-13q0 -26 -16 -40q-1 -2 5.5 -12t6.5 -17q0 -6 -6 -15t-6 -14q0 -6 7 -18.5t7 -19.5q0 -6 -4 -19t-4 -20q6 -7 6 -15t-6 -14q3 -13 10 -41q0 -6 -1.5 -21.5t-1.5 -22.5q0 -44 13 -44
q1 3 5 11t4 13q3 19 7 58t10 68t18 54q16 48 57.5 104.5t48.5 82.5q0 6 7 18q0 1 -3 17t-3 24q0 21 19 35q-7 3 -9 3q4 5 13 13t14 13zM618 736q37 0 53 2q14 4 22.5 14t17 27.5t11.5 22.5q11 17 11 75q0 12 -8.5 25t-17.5 13q-17 -7 -17 -13q-4 -31 -35 -38q0 -2 0.5 -6.5
t0.5 -6.5q0 -3 -1 -4q-8 -8 -28 -67q0 -10 -1.5 -16.5t-4 -14t-3.5 -13.5zM612 651q-17 -8 -17 -19q0 -6 3 -10q2 3 9 9t7 11q0 1 -2 9zM508 367q-10 -10 -10 -14q0 -5 12 -12q0 2 2 8t2 9q0 4 -6 9zM495 659q3 -3 3 -6q2 1 8 2t10 3.5t4 7.5q0 6 -6 6q-1 0 -19 -13z
M541 389l-2 2q-2 -1 -8.5 -2t-10.5 -3q2 -4 3.5 -6.5l3 -5t3.5 -5.5q1 6 11 20zM464 653h-32q1 -7 13 -7q11 0 19 7zM532 225v4q-3 -1 -11 -2t-11 -2q5 -7 7 -7q15 6 15 7z" />
    <glyph glyph-name=".notdef" horiz-adv-x="270" 
 />
    <glyph glyph-name=".null" horiz-adv-x="0" 
 />
    <glyph glyph-name=".null" horiz-adv-x="0" 
 />
    <glyph glyph-name="nonmarkingreturn" horiz-adv-x="333" 
 />
    <glyph glyph-name="CR" unicode="&#xd;" horiz-adv-x="0" 
 />
    <glyph glyph-name="space" unicode=" " horiz-adv-x="270" 
 />
    <glyph glyph-name="exclam" unicode="!" horiz-adv-x="308" 
d="M111 156q0 11 -1.5 34.5t-1.5 35.5q0 8 0.5 21.5t0.5 19.5q0 16 -1 48.5t-1 48.5l1 2v2q5 16 7 32.5t3 41.5t2 33q1 11 5 36.5t4 38.5q0 3 -1 10t-1 12q2 12 2.5 40t2 44.5t14 31t36.5 14.5q10 0 18 -10t8 -22q0 -17 -5.5 -48t-5.5 -46q0 -3 1 -10.5t1 -11.5q0 -5 -2 -13
q-10 -24 -10 -90q0 -4 2 -12t2 -12q0 -5 -0.5 -14t-0.5 -13q1 -14 1 -41q0 -13 -1.5 -37.5t-1.5 -35.5q0 -5 0.5 -13t0.5 -12q0 -6 -2.5 -16t-2.5 -15q0 -7 4 -21.5t4 -22.5q0 -17 -14 -20q-11 -3 -27.5 -13t-20.5 -10q-6 0 -19 13zM200 34q-6 -44 -34 -44q-22 3 -44 17.5
t-22 40.5q0 7 4 12q18 18 25.5 22t27.5 4q22 0 29.5 -11t13.5 -41z" />
    <glyph glyph-name="quotedbl" unicode="&#x22;" horiz-adv-x="364" 
d="M98 533q0 1 -0.5 4t-0.5 5q0 16 6.5 40t6.5 32q0 3 -15 30t-15 43q0 13 13 13q44 0 72 -19.5t28 -56.5q0 -10 -8.5 -30t-16.5 -30q-1 -1 -10.5 -16.5t-22.5 -27t-27 -11.5q-10 0 -10 24zM253 573q0 11 6.5 39.5t6.5 41.5q0 6 -0.5 19t-0.5 16q1 7 6.5 12.5t12.5 5.5
q25 0 42.5 -20.5t17.5 -41.5q0 -23 -5 -47t-24 -47.5t-48 -23.5q-14 0 -14 39v7z" />
    <glyph glyph-name="numbersign" unicode="#" horiz-adv-x="569" 
d="M236 602q6 5 17 5q24 0 24 -16q0 -13 -3 -29t-8 -37t-7 -30q-1 -6 -5 -18.5t-6.5 -25t-2.5 -25.5q0 -8 17 -11q4 0 13 0.5t14 0.5t21 -5t26 -5q35 0 41 59q0 8 5.5 26t5.5 28q0 2 -1 5.5t-1 4.5q0 13 8.5 43.5t15.5 30.5q40 0 44 -21q0 -38 -6 -55q0 -10 -6.5 -27.5
t-6.5 -26.5q0 -10 -7.5 -27t-7.5 -23q0 -13 25 -15t49.5 -6t24.5 -21q0 -9 -11 -18.5t-23 -9.5q-24 0 -57 6q-1 -1 -10 -3.5t-13.5 -4.5t-9.5 -6t-5 -10t-3.5 -18t-3.5 -16q0 -21 31 -21q5 0 16.5 2.5t17.5 2.5q49 0 49 -24q0 -12 -13 -21.5t-30 -9.5q-2 0 -7 2.5t-7 2.5
q-5 0 -15.5 -3t-16.5 -3q-2 0 -6 0.5t-5 0.5q-12 0 -26.5 -10.5t-14.5 -22.5q0 -19 -12 -59.5t-12 -64.5q0 -4 1.5 -13.5t1.5 -14.5q0 -30 -20 -30q-22 0 -22 18q1 9 9 42t8 53q0 6 6.5 31t6.5 48q0 22 -13 22q-10 0 -33.5 -6t-31.5 -6q-3 0 -9.5 1.5t-10.5 1.5
q-36 0 -36 -32q0 -15 -5.5 -33t-5.5 -23v-14q0 -10 -7 -15t-31 -11q-17 11 -17 19q13 60 13 68q0 28 -10 28q-3 0 -8.5 -1t-7.5 -1q-60 0 -60 48q0 26 21 26q7 0 15 -8t16 -8q41 0 53 15t18 63q0 10 -9 10q-4 0 -10.5 -3t-9.5 -3q-28 0 -58.5 24t-30.5 54q0 8 4 16.5t10 8.5
q2 0 6 -2q44 -30 106 -30q6 0 16.5 34.5t23 88.5t15.5 63zM200 298q13 -26 30 -26q4 0 14 1t14 1t11 -0.5t10 -0.5q38 0 55 14t17 46q0 31 -10 31q-2 0 -6 -3.5t-5 -3.5q-2 0 -7 4t-8 4q-5 0 -13 -2t-13 -2q-7 0 -10 1q-4 -2 -20.5 -4t-29.5 -6.5t-13 -13.5q0 -41 -17 -41
q3 -1 3 -3q0 -1 -1 -2q-3 0 -3 3q0 1 2 3z" />
    <glyph glyph-name="dollar" unicode="$" horiz-adv-x="510" 
d="M80 389q-7 4 -27 12q-3 17 -3 33q0 50 36 81q6 2 6 11q7 42 33.5 69t74.5 58q17 11 21 31q3 46 13 129q27 6 42 6q35 0 35 -37q0 -10 -4 -39t-4 -43q0 -63 62 -84q8 -2 17.5 -24t9.5 -31q0 -11 -8 -17.5t-16 -6.5q-9 0 -25.5 13t-19.5 14q-18 -1 -25 -11.5t-9 -27.5
t-5 -23q-8 -14 -14 -72q0 -20 10 -31t34 -18q176 -54 176 -162q0 -29 -20 -42q-12 -8 -12 -54q-18 -9 -64 -33q1 -4 1 -11q0 -19 -26.5 -42.5t-43.5 -23.5q-11 0 -22 11q-25 -24 -25 -56q-1 -12 5 -42.5t6 -45.5q0 -9 -9 -15t-17 -6t-22.5 4.5t-21.5 4.5q-19 0 -21 29
q-2 21 -6.5 62t-6.5 61q-7 1 -16 5t-12 4q-5 0 -14.5 -2.5t-13.5 -2.5q-17 0 -48 32t-31 52q0 21 19 21q11 0 29 -9.5t42.5 -25.5t32.5 -21q30 30 34 46q1 5 1 11q0 12 -7 25q8 8 8 17q0 5 -3.5 16.5t-3.5 17.5t1 15.5t1 14.5q0 6 -0.5 18t-0.5 17q-7 1 -22.5 2.5t-25.5 3.5
t-17 7q-18 12 -41.5 36t-23.5 37q0 5 3 16.5t4 15.5zM288 280q0 -4 -0.5 -12.5t-0.5 -11.5q0 -6 1.5 -18t1.5 -19t-4 -19t-4 -18q0 -22 5.5 -41.5t15.5 -19.5q6 0 14 5q32 19 53 49t21 64q0 19 -17 33.5t-42 14.5q-14 0 -44 -7zM148 398q19 -14 36 -14q12 0 15.5 13t3.5 47
v51q-20 -11 -32 -29t-15.5 -31.5t-7.5 -36.5zM338 42q0 2 1 5.5t1 5.5h-37q0 -4 2 -6t6.5 -3t8.5 -1.5t9.5 -0.5h8.5z" />
    <glyph glyph-name="percent" unicode="%" horiz-adv-x="487" 
d="M144 449h-5q-19 0 -29.5 1t-22 10.5t-11.5 27.5v4q1 5 2.5 15t4 20.5t6.5 23t10 23t14.5 19t18.5 12.5q5 2 22 19.5t28 23.5l6 -2q7 -2 15.5 -4.5t19 -6.5t19 -9t14.5 -11.5t6 -13.5q0 -26 -39.5 -73t-78.5 -79zM175 596l-13 -19.5t-13.5 -20t-10 -17.5t-8 -21t-3.5 -22
q0 -4 8 -4q16 4 50 36.5t34 54.5t-14 22q-3 0 -30 -9zM353 303q6 0 17.5 1t16.5 1q18 0 27 -9.5t10.5 -19t1.5 -26.5q0 -18 -10.5 -53.5t-27.5 -45.5q-6 -4 -21.5 -26.5t-30.5 -22.5q-21 0 -51 11t-30 28q0 23 17 50t37.5 51t23.5 32q1 3 20 29zM377 255v-1q-1 3 -5 7
q-14 0 -45.5 -40t-31.5 -57q0 -26 16 -26q22 1 44 36.5t22 80.5zM253 396l-1 3q14 -5 24 -16q-15 -10 -44 -12q-5 0 -9.5 5t-4.5 10q2 20 15 26q-5 -15 -5 -18q0 -5 4 -5q2 0 4 1.5t2.5 3t1 4t1.5 3.5q0 3 -4 6t-5 5q7 29 28 55q11 13 25 39t25 38q-1 -1 5 14t17.5 37
t23.5 37q6 8 16 28.5t17.5 34.5t12.5 14q13 0 29 -9t16 -21q-1 0 -10 -17.5t-20 -36t-15 -20.5q-10 -5 -19 -21t-16 -21q-3 -2 -6.5 -8t-4.5 -7q0 -18 -32 -46t-32 -42q0 -2 2 -5.5t2 -5.5q0 -10 -9 -10q-2 0 -5 1l-5 1q-4 0 -9 -8h2q-5 0 -5 -4q0 -2 5 -4l-2 1
q-9 -24 -17 -28zM81 131l-3 -2q3 4 10 16.5t14.5 22.5t16.5 17l-1 -1h9l-1 1q2 -4 9.5 -7t9.5 -6q-1 -1 -8 -19q-2 0 -16 -8t-14 -12t2 -4q6 0 8 10t9 13l10 2q6 -3 6 -4q-7 -15 -21 -47q0 -1 -6.5 -6.5t-11 -15.5t-4.5 -25t-11 -33q-1 0 -2 1h-2q-4 0 -10.5 -4t-9.5 -4
q-1 0 -4.5 1t-5.5 1q-4 0 -12 -3t-11 -3q-11 0 -11 15t9.5 32t9.5 27q0 1 3.5 4t9 6.5t7.5 5.5l-1 -1q1 1 4.5 3t5.5 3q-2 1 -5 2t-5 1h1q0 3 0.5 5.5t1.5 4t3 2.5t3.5 2t6 3t7.5 4zM89 110q-1 -1 -2 -2.5t-2 -2.5q1 0 3 -0.5t3 -0.5q2 0 2 2q0 4 -4 4zM127 193l-8 -8
q-10 0 -13 2.5t-3 10.5q1 11 13 15.5t12 10.5q0 5 1 8.5t4 6.5l4.5 4.5t7 4.5t7.5 4q11 -6 11 -10t-5.5 -9t-5.5 -7q0 -3 7 -4t7 -3q0 -6 -6 -11t-12 -5q-2 0 -4.5 1t-3.5 1q-4 0 -6 -2t-4.5 -6t-3.5 -5zM231 312l-9 -6q-12 0 -25 -12t-16 -12q-6 0 -6 5q0 1 3.5 7.5t5 8
t4.5 6t6.5 7t8.5 3.5q4 1 10.5 14.5t10.5 13.5q5 0 17 -8l1 1q0 -2 0.5 -5.5t0.5 -4.5q0 -5 -4 -9l1 -1q-5 5 -9 5q-2 0 -5 -2.5t-3 -4.5q0 -1 8 -6zM279 427q7 -6 7 -7l-6 -9q0 1 -2 3t-2 3q0 2 1 5.5t2 5.5v-1zM222 286l-2 -1l-3 1q2 3 3 3q2 0 2 -3zM189 254q3 -9 3 -10
q0 -4 -3 -4t-3 4q0 1 1.5 4.5t1.5 5.5zM310 468h1q1 0 2 -1q0 -5 -2 -5t-2 3q0 1 1 3zM241 339l-1 3zM190 254h-1q5 2 13 4v-1zM202 257v3v-3zM59 102q-1 2 -1 8h1l-1 -1v-2t0.5 -2.5t0.5 -2.5z" />
    <glyph glyph-name="ampersand" unicode="&#x26;" horiz-adv-x="583" 
d="M162 655q19 13 63 34.5t68 21.5q4 0 15.5 -4t16.5 -4q4 0 11.5 1t10.5 1q29 0 44 -16q8 -11 13 -11q4 0 6.5 10t7.5 10q13 0 20.5 -19t7.5 -34q0 -6 -1 -16.5t-1 -15.5t1 -17t1 -18q0 -34 -19 -34q-9 0 -14 8t-8 17.5t-17.5 17.5t-40.5 8q-60 0 -120.5 -41.5
t-60.5 -103.5q0 -11 5.5 -21t15.5 -10q3 0 12 4t21 9.5t19 8.5h-1q0 -1 23.5 -14t49.5 -34t31 -40q0 -12 -28 -27t-46 -15q-21 0 -39 -9t-30.5 -19t-18.5 -11q-22 -5 -46 -43.5t-24 -60.5q0 -18 10 -41q16 -38 26 -50.5t40 -31.5q44 -29 75 -29q52 0 107.5 47t55.5 113
q0 53 -16 53q-6 0 -7 -2q-16 -32 -44 -57.5t-56 -25.5q-18 0 -37.5 12.5t-20.5 29.5q0 7 9 7q2 0 5 -0.5t5 -0.5q23 0 47 26q21 22 38.5 47t29 46t33 61t39.5 71q12 21 49.5 47.5t65.5 26.5q29 0 29 -16q0 -17 -13 -23q-33 -13 -61.5 -40t-39.5 -64q-1 -5 -7.5 -14.5
t-6.5 -15.5q0 -8 -8.5 -22t-8.5 -23q0 -6 4 -10q24 -24 30 -41t6 -52q0 -10 -11.5 -34.5t-14.5 -34.5q-5 -16 -22 -41.5t-21 -32.5q-13 -24 -65 -52.5t-93 -28.5q-29 0 -66 10t-60 28q-14 12 -30 15q-2 0 -8.5 10t-15.5 24t-14 20q-3 3 -11 18.5t-17 41t-9 44.5
q0 5 5.5 13.5t5.5 14.5q0 5 -2 13t-2 12q0 6 5.5 12t5.5 9q0 2 -0.5 4.5t-0.5 3.5q0 7 17 37t24 30q11 1 20.5 20t9.5 29q0 3 -2 9q-28 56 -28 105q0 11 1 20.5t3 18t3.5 14.5t5 14.5t5.5 12t6.5 12.5t6.5 12q7 13 25 27.5t18 28.5z" />
    <glyph glyph-name="quotesingle" unicode="'" horiz-adv-x="192" 
d="M81 573q0 11 6.5 39.5t6.5 41.5q0 6 -0.5 19t-0.5 16q1 7 6.5 12.5t12.5 5.5q25 0 42.5 -20.5t17.5 -41.5q0 -23 -5 -47t-24 -47.5t-48 -23.5q-14 0 -14 39v7z" />
    <glyph glyph-name="parenleft" unicode="(" horiz-adv-x="404" 
d="M368 -257q-69 6 -102 40q-8 8 -24.5 23t-28.5 28t-20 26q-38 65 -47 84q-3 6 -8.5 22t-11.5 25t-17 15q-5 5 -5 15q0 15 -10.5 46t-10.5 46q0 25 20 46q-23 13 -23 39q0 93 28 221q1 2 1 9q1 13 16.5 32.5t16.5 34.5q0 9 3.5 19t7 16t11 18.5t9.5 16.5q35 61 109 140
t104 79q28 0 98 -49q0 -13 -5 -20t-10.5 -9t-14.5 -3q-50 -8 -88 -53q-9 -11 -50 -48.5t-53 -60.5q-7 -12 -20 -32.5t-23 -38t-15 -34.5q-5 -16 -19 -46.5t-21.5 -56t-7.5 -50.5q0 -18 -5 -54.5t-5 -54.5q0 -17 1 -26q28 -209 136 -326q11 -12 36.5 -33t47.5 -46z" />
    <glyph glyph-name="parenright" unicode=")" horiz-adv-x="372" 
d="M34 788q13 5 31 5q19 0 40 -8q122 -46 169 -155q12 -31 12 -40q0 -6 -5.5 -17.5t-5.5 -18.5q0 -9 3 -15q14 -31 14 -67q0 -17 -6 -53t-6 -54q0 -21 -7.5 -43t-7.5 -33q0 -7 0.5 -22t0.5 -23q0 -50 -27 -71q-14 -11 -21.5 -54.5t-13.5 -55.5q-5 -11 -45 -63q9 -10 9 -20
q0 -15 -17 -19q-18 -6 -29.5 -32.5t-23.5 -62t-28 -53.5q-9 -10 -23 -33t-26.5 -34.5t-30.5 -11.5q-19 0 -34 13t-36 46q85 39 103 96q4 14 37 68q-6 13 -6 26q0 39 47 72q-8 11 -8 23q0 13 14.5 33.5t17.5 29.5q4 12 10.5 23t17.5 25t15 21q-18 22 -19 23q4 12 14.5 37.5
t16 44.5t5.5 35q0 8 -2 25.5t-2 26.5q0 14 1 44t1 45q0 173 -117 251q-30 21 -32 46zM228 262q-11 3 -17 3q-3 0 -5 -1.5t-3.5 -3.5t-3.5 -3l4 -6q12 4 25 11z" />
    <glyph glyph-name="asterisk" unicode="*" horiz-adv-x="298" 
d="M123 493q0 7 -1 15q-2 2 -6 4q-2 0 -3 -1l-9 -9q-9 -10 -19.5 -18t-16.5 -8q-5 0 -5 8q2 16 32.5 59t30.5 57q0 9 -33 34.5t-33 38.5q0 4 7 4q10 -2 14 -4l6 -5l13.5 -9t15.5 -9.5t13 -4.5q7 0 12 40t15 40q8 0 15 -4.5t11 -10.5t7.5 -12.5t4.5 -11.5l2 -4q8 0 15.5 10.5
t13.5 10.5q10 0 22 -11t12 -21q0 -11 -30 -34t-30 -31q0 -3 2 -5q4 -3 26.5 -16t34 -23t16.5 -23q0 -10 -9 -10q-11 0 -36 17t-34 17t-11 -7q0 -4 -5.5 -31.5t-17 -58.5t-24.5 -31q-18 0 -18 35v23z" />
    <glyph glyph-name="plus" unicode="+" horiz-adv-x="481" 
d="M80 317q18 11 25 11q12 0 36.5 -7.5t37.5 -7.5q20 0 20 80q0 17 -3 33q0 7 13 7q59 0 59 -87q0 -17 6 -21.5t25 -4.5q15 0 32 5t27 5q8 0 25.5 -10.5t17.5 -19.5q0 -13 -25 -13q-75 0 -98 -13t-26 -72q0 -9 -0.5 -24t-1 -19.5t-2.5 -12.5t-6 -10.5t-11 -5.5t-18 -5
q-30 0 -31 30q0 5 0.5 15t0.5 16q0 4 -1.5 12t-1.5 12t2.5 11.5t2.5 10.5q0 38 -22 38q-2 0 -6 -0.5t-6 -0.5q-25 0 -46.5 12.5t-24.5 35.5z" />
    <glyph glyph-name="comma" unicode="," horiz-adv-x="243" 
d="M86 -83q-8 8 -8 17q0 13 2 36t2 31q-3 4 -8.5 13t-7.5 12.5t-4 9.5t-2 12q0 12 4.5 25t13.5 13q28 0 51.5 -21t23.5 -45q0 -48 -67 -103z" />
    <glyph glyph-name="hyphen" unicode="-" horiz-adv-x="422" 
d="M317 268q-17 6 -33 6q-6 0 -18.5 -2t-18.5 -2q-5 0 -16 1t-17 1q-9 0 -23.5 -4.5t-18.5 -4.5q-2 0 -4.5 0.5t-3.5 0.5q-4 0 -12 -4t-12 -4q-17 0 -38.5 26t-21.5 50q0 14 10 14q5 0 14 -7t15 -7q14 -1 42 -1q20 0 62.5 1t64.5 1q18 0 36 -14.5t18 -29.5q0 -8 -7 -15
t-14 -7q-1 0 -3 1h-1z" />
    <glyph glyph-name="period" unicode="." horiz-adv-x="237" 
d="M60 47q0 1 1 8.5t2 12t7 9t15 4.5q23 0 42.5 -13t19.5 -35q0 -16 -13.5 -32t-29.5 -16q-21 0 -32.5 19t-11.5 43z" />
    <glyph glyph-name="slash" unicode="/" horiz-adv-x="381" 
d="M381 603q-4 -8 -10 -24.5t-10 -25.5t-11.5 -19.5t-16.5 -15.5q-1 -30 -24 -72t-34 -53q-14 -15 -30 -46t-24 -42q-3 -3 -10 -23.5t-16 -29.5q-4 -12 -16 -28t-21.5 -28t-9.5 -15q0 -1 1 -4t1 -5q0 -22 -28 -38l-7 -12q-7 -11 -14.5 -27t-7.5 -23q-1 -5 -20.5 -25.5
t-32.5 -24.5q-13 5 -26.5 15.5t-13.5 19.5q0 20 8 39t21.5 40.5t18.5 34.5q14 34 23 50q3 6 13.5 17t10.5 15q0 13 11 33t30 47t27 42q11 19 42.5 63.5t47.5 77.5q20 32 58 96q4 7 8.5 22t9.5 24.5t13 9.5q35 0 39 -65zM178 240l-1 2q-3 0 -3 -4q1 -1 2 -1q2 0 2 3z" />
    <glyph glyph-name="zero" unicode="0" horiz-adv-x="495" 
d="M149 233q0 -8 -1.5 -21t-1.5 -20q0 -10 11.5 -59t19.5 -49q3 0 6.5 4.5t4.5 4.5l2 -3q3 -14 21 -23t35 -9q36 0 66.5 40t45 82.5t23.5 86.5q12 7 12 10q-2 18 -10 27l1 -2q14 11 14 26q0 5 -2 15t-2 14q0 6 1 20t1 21q0 23 -9.5 65t-9.5 67q0 3 6 3q9 -3 16.5 -28.5
t16.5 -30.5q12 -6 12 -57q0 -13 3.5 -36t3.5 -36q0 -9 -5.5 -28t-5.5 -20l1 1q-11 -14 -11 -30q0 -3 1.5 -11t1.5 -12t-2 -12t-2 -11q0 -10 3 -17l-4.5 -4.5t-4.5 -4t-3.5 -4t-1.5 -5.5q0 -14 -7.5 -31t-20 -39.5t-16.5 -32.5q-3 -7 -12.5 -15.5t-10.5 -12.5
q-2 -9 -13 -17.5t-14 -12.5q-2 -4 -28.5 -15t-35.5 -11l-48 6q-2 0 -5.5 3.5t-6.5 4.5q-2 0 -19 12.5t-34.5 30t-17.5 26.5q0 1 1 3v2q0 1 -11 32t-21.5 73.5t-10.5 70.5q0 19 5 30q-1 8 -8.5 14t-7.5 9q1 3 1 9q0 2 -0.5 7t-0.5 7q0 3 5 10t5 12q0 4 -2 11t-2 10q0 2 1 6.5
t1 7.5t-2 9.5t-2 9.5q0 7 4 19t4 18q0 15 14 69q2 6 5.5 20.5t5.5 22.5t6 21t8 21t9.5 17t12 14.5t14.5 7.5q6 1 24 18t32 17q3 0 6 -7t4 -7t5.5 5.5t10.5 5.5q10 0 31 -3.5t30 -3.5q2 0 4 0.5t4 0.5q5 0 10.5 -5t8.5 -5q11 0 25.5 -9.5t14.5 -20.5q0 -8 11.5 -33t11.5 -37
q0 -10 -2 -12q-3 0 -17 13.5t-19 21.5q-32 53 -90 53q-40 0 -67.5 -47t-27.5 -90q0 -2 0.5 -6t0.5 -6q0 -5 -7 -24.5t-8 -28.5t-7 -35.5t-6 -38.5q0 -10 3.5 -29.5t4.5 -25.5q-7 -11 -7 -43q0 -15 3 -21t15 -10zM115 204v3l-1 -2q1 -1 2.5 -2t2.5 -1q-2 0 -4 2zM107 250
q1 9 1 23q0 2 -4 4q-2 -2 -2 -7q0 -15 5 -20zM417 424q-3 11 -6 11q-4 0 -4 -3q0 -8 8 -12zM98 438q-4 0 -4 -4q0 -2 3 -8l3 6q0 2 -2 6zM126 418v-2q0 -1 2 -1v2q0 1 -2 1zM108 378h-3q0 -3 1 -3q2 0 2 3zM424 297q11 -1 11 -5q0 -7 -8 -10q-1 2 -1.5 4.5t-1 5.5t-0.5 5z
M378 624q8 -8 8 -11q0 -4 -2 -4t-2.5 2.5t-1.5 6.5t-2 6zM412 505l1 3l1 -4zM390 566l-1 3zM181 118l-1 -2zM383 304l1 -2v3q1 0 1 -2q0 1 -2 1zM380 623l-2 1q2 -3 1 -3t-1 0.5t-1 0.5q1 1 3 1zM115 204l4 -2q-2 0 -4 2z" />
    <glyph glyph-name="one" unicode="1" horiz-adv-x="406" 
d="M300 422q-4 -8 -4 -14q0 -3 1.5 -8t1.5 -7q-3 -3 -8 -7.5t-7 -6.5t-3.5 -5.5t-1.5 -8.5t1 -8l1 1q-20 0 -20 -7q0 -6 3 -9t9 -5t8 -3l-1 1q1 -2 1 -8q0 -10 -9.5 -17t-9.5 -12q0 -12 8 -12q2 0 5.5 0.5t4.5 0.5q6 0 6 -6q0 -20 -4 -28q-4 8 -6 8q-4 0 -4 -4q0 -3 3 -4
q1 0 4 0.5t4 0.5q-4 -5 -12 -13l-14 -14t-6 -7q0 -6 5 -6q4 0 5.5 2.5t2.5 7.5t1 6q10 -2 10 -9q0 -2 -0.5 -6.5t-0.5 -6.5q0 -7 3 -21.5t3 -20.5q0 -26 -4 -36q0 -1 1 -3t1 -3q0 -8 -7 -15.5t-7 -13.5q0 -12 8 -40.5t8 -32.5q0 -17 -35 -41q-5 0 -13 -5.5t-13 -5.5
q-7 0 -15.5 17t-8.5 23q0 1 4 19t4 30q0 4 -3.5 12.5t-3.5 12.5q0 31 13 67q0 1 10 3t10 8q0 4 -13 33q2 4 7 12t7.5 12.5t4.5 11t2 12.5q0 2 -7 14t-7 19q0 25 9 52q4 13 4.5 42t5.5 39q6 13 8 40.5t7 39.5q6 15 9.5 50t10.5 53l1 2v2q0 17 -14 17q-19 0 -46.5 -45.5
t-38.5 -52.5q-5 -2 -25.5 -30t-27.5 -46q-7 -15 -50.5 -69.5t-51.5 -54.5q-14 0 -14 13q0 4 2 6q74 114 136 182q3 4 15.5 23t17.5 21q12 11 34.5 42t38.5 42q14 10 20.5 28.5t16 30.5t35.5 15q20 0 25 -6.5t5 -19.5q0 -10 -12 -40.5t-18 -66.5q0 -18 -9.5 -43t-9.5 -30
q0 -2 1 -5t1 -4q0 -3 -5.5 -14.5t-5.5 -19.5l-2 1h1q1 0 3 2t3 2q5 0 5 -8q0 -5 -4.5 -12.5t-4.5 -10.5q0 -2 2 -6.5t2 -7.5q0 -2 -2 -4.5t-2 -3.5q-2 0 -5 0.5t-5 1.5l-3 -2q0 -4 2 -4t6.5 2.5t5.5 2.5zM236 200l1 1q0 -1 0.5 -3t0.5 -3l1 2zM257 254l-3 6q-7 0 -7 -6
q0 -5 4 -5t6 5zM280 357q8 -3 8 -17l-2 -1q-1 -1 -3 -2t-3 -2l1 -1q-4 8 -4 12t3 11z" />
    <glyph glyph-name="two" unicode="2" horiz-adv-x="388" 
d="M242 381q-6 -5 -6 -11q0 -3 2 -8t2 -8q0 -6 -14.5 -22t-14.5 -31q0 -16 -13 -30.5t-13 -16.5q0 -12 15 -20q37 -4 62 -21t55 -51q3 -4 22 -13.5t19 -24.5q0 -11 -11 -19.5t-25 -8.5q-24 0 -62.5 43.5t-58.5 43.5q-5 0 -14.5 -4t-12.5 -5l10 -15q0 -3 -7 -6.5t-7 -5.5
q0 -3 3 -8.5t3 -8.5q0 -15 -12.5 -18t-12.5 -8q0 -6 6 -20q-5 -9 -20 -26.5t-18 -24.5q-1 -6 -12.5 -16.5t-14.5 -17.5q-2 -16 -26.5 -29.5t-46.5 -13.5q-3 0 -11 5.5t-19 13t-17 10.5q0 13 -2 35q0 31 10 51q3 5 6 17.5t7 17.5q0 4 9 22.5t39.5 47.5t73.5 41q15 4 23 8.5
t20 25.5t21 60q2 10 10.5 32t8.5 34q0 25 19 113t19 135q0 8 -6 8q-18 0 -44 -51q-2 -3 -3 -24t-7.5 -38.5t-21.5 -17.5q-21 0 -36 12.5t-15 38.5q0 27 16 50q9 12 10 15q4 16 24 29.5t24 21.5q12 21 59 21q41 0 57 -22t16 -73q0 -10 -2 -14q-5 -12 -14.5 -58t-23.5 -60
q1 -12 1 -34q0 -5 -0.5 -9t-2 -8t-2.5 -6t-4.5 -6t-4.5 -5.5t-7 -7t-7 -6.5zM131 130q-3 18 -3 19q0 7 5 17l-5 5q-8 0 -11 -2q-89 -56 -89 -146q0 -3 4 -6t7 -3q16 1 41 35.5t31 59.5q0 4 3 7t8.5 7t8.5 7zM225 349q2 4 2 6q-1 1 -2 1l-4 -3zM141 87q-2 0 -2 -2q0 -1 1 -3
q2 2 2 3zM271 494q-1 0 -1 1t-1 2q-2 -2 -3 -2q0 -4 2 -4q3 0 3 3zM241 380l1 1z" />
    <glyph glyph-name="three" unicode="3" horiz-adv-x="403" 
d="M171 72q3 5 11 15.5t12 17.5q5 8 24 31t25 39q4 10 17 30t13 26q2 12 14 47.5t12 57.5q0 55 -24 55q-5 0 -38 -5q-1 -1 -12.5 -11.5t-19 -16t-15.5 -6.5q-14 -3 -37 -45t-33 -80q-14 -11 -27 -20q-39 15 -39 64q0 9 4 16q12 25 46.5 62t44.5 60q2 4 12.5 21.5t19 34.5
t8.5 28q0 17 12.5 48.5t15.5 44.5q2 11 9.5 32.5t9.5 35.5q0 7 -8 7q-7 0 -25 -11.5t-22 -13.5q-5 -7 -22 -20.5t-21 -25.5l-14 -20q-15 -20 -31 -40t-20 -20q-7 0 -20 16.5t-13 27.5q0 13 28 45t45 41q8 4 25.5 22t40.5 32t54 14q27 0 44.5 -16t17.5 -40q0 -16 -6.5 -34.5
t-18 -41.5t-15.5 -35q-3 -12 -20.5 -34.5t-19.5 -39.5q-1 -4 -7 -13.5t-6 -12.5q0 -9 16 -9q5 1 16 1q4 0 10 -0.5t9 -0.5q4 0 14 1t15 1q29 0 48 -16t21 -41q0 -8 6 -17t6 -14q0 -11 -8 -27.5t-18 -23.5q-2 -1 -2 -4q0 -5 11 -11q-1 -6 -10.5 -15.5t-11.5 -16.5v3
q5 -5 5 -20q0 -19 -18 -44q-4 -6 -7 -24t-13 -22q-2 -1 -4 -7q-11 -24 -15.5 -30.5t-20.5 -23.5q-4 -4 -4 -7q-41 -66 -52 -66t-23.5 -14t-19.5 -14l-2 1q-2 0 -6.5 1.5t-10.5 4t-15 7t-17 10.5q-7 6 -18.5 22.5t-11.5 22.5q0 7 6 18.5t15 11.5q5 0 21 -13.5t19 -13.5
q5 0 18 9.5t22 11.5q1 -1 3 -1q1 0 3 0.5t3 0.5q2 0 6 -2l-2 1q-1 0 -1 1q0 2 2 2l2 -1q0 -1 -1 -2q-11 0 -16 1z" />
    <glyph glyph-name="four" unicode="4" horiz-adv-x="435" 
d="M308 17l-10 10q-4 0 -8.5 -20t-19.5 -20q-2 0 -32 3q-3 5 -3 13t-1 10q0 1 -4 12t-4 16q0 4 1 12t1 13q0 4 -1.5 11.5t-1.5 11.5t3 11t3 12q0 2 -0.5 7t-0.5 8q0 29 12 50q0 5 -0.5 13t-0.5 13q0 14 6.5 39.5t6.5 37.5q0 22 -8 48q-10 -1 -21 -4t-18.5 -6t-19.5 -8.5
t-17 -7.5q-10 -4 -34 -25t-43 -28q-17 3 -35 13.5t-18 22.5q0 4 4 12t4 13q0 2 -0.5 5t-0.5 5q0 13 14 43t14 39q0 1 -0.5 2.5t-0.5 2.5q17 37 17 41q0 2 -2.5 7t-2.5 8q0 6 6.5 20.5t6.5 22.5q0 2 -0.5 5.5t-0.5 5.5q0 7 3 13q6 19 13.5 58.5t13.5 58.5q3 9 3 18
q0 3 -0.5 8t-0.5 8q0 4 3 6.5t6 3.5t8 2t6 1q32 0 32 -36q0 -16 -14.5 -51.5t-14.5 -43.5q0 -12 -9 -43t-9 -39q0 -3 2.5 -9t2.5 -10q0 -13 -6.5 -45t-6.5 -35q0 -22 12 -22q31 10 110 25q20 3 28 53.5t15 99t24 48.5q56 0 56 -31q0 -18 -7 -74q0 -8 -6 -20t-6 -19
q0 -3 0.5 -8.5t0.5 -7.5q0 -71 -17 -109q-10 -22 -10 -40q0 -11 -10.5 -28t-10.5 -25q0 -3 3 -10.5t3 -9.5t-3 -10t-3 -12q0 -5 3.5 -16.5t3.5 -17.5q0 -5 -2.5 -16.5t-2.5 -16.5q0 -12 6 -24.5t6 -20.5q0 -3 -1 -4q-6 -6 -8.5 -13.5t-3.5 -19t-2 -16.5zM298 243q-1 0 -3 -1
t-3 -2.5t-1 -3.5q0 -5 6 -5q4 0 4 6z" />
    <glyph glyph-name="five" unicode="5" horiz-adv-x="401" 
d="M85 30q-13 16 -13 19q0 5 11.5 16.5t17.5 11.5q35 -32 62 -32q11 0 21 4t17 10t13 14t9.5 14t6.5 12l3 6q32 42 39 100q0 7 -1.5 23t-1.5 25q0 20 -18.5 73t-42.5 53t-42 -17.5t-22 -33.5q-2 -7 -9.5 -23t-7.5 -23q0 -3 3 -7.5t3 -6.5q0 -10 -21 -13q-5 0 -9 13t-11 13
q-4 0 -8.5 -1t-11 -2.5t-9.5 -2.5q-6 4 -13.5 13.5t-9.5 11.5q1 3 1 8q0 30 16 52q19 27 31 103t28 133t48 57q4 0 10.5 -0.5t9.5 -0.5q23 0 54 12q4 2 39 21t49 19q2 0 15 -5.5t26.5 -16.5t13.5 -23q0 -14 -13 -15q-16 -3 -56.5 -17.5t-59.5 -14.5q-2 0 -5.5 1t-5.5 1
q-35 0 -46.5 -17.5t-16 -51.5t-14.5 -52q1 -3 1 -7q0 -6 -4 -16t-4 -15q0 -14 26 -14q2 0 6 0.5t7 0.5q41 0 80 -27t39 -63q0 -3 -1 -7.5t-1 -6.5q0 -7 7.5 -35t7.5 -54q0 -11 -7.5 -29.5t-7.5 -28.5q0 -3 2.5 -11t2.5 -12q-2 -24 -24 -68.5t-49 -77.5q-5 0 -28.5 -19
t-45.5 -19q-5 1 -16 2t-19.5 3t-14.5 8q-2 2 -14 6.5t-12 12.5q0 2 1.5 8.5t1.5 11.5q-11 -2 -13 -6zM296 168q-7 -2 -7 -5q0 -5 5 -5q8 0 8 6q0 1 -3 2zM84 30l-2 2l1 -1q1 -1 2 -1h-1z" />
    <glyph glyph-name="six" unicode="6" horiz-adv-x="444" 
d="M150 405q0 -19 -12.5 -55.5t-12.5 -56.5q0 -6 -7 -25.5t-7 -30.5q0 -13 8 -13q13 0 23 22q9 19 61 19q3 0 9 -2t9 -2q1 0 5 1t5 1q18 0 47.5 -11t46.5 -31q32 -32 32 -44q-1 -10 -1 -31t-1 -32q-7 -11 -18.5 -34.5t-22.5 -41t-23 -23.5q-6 -3 -25 -14.5t-33 -18.5t-21 -7
q-3 0 -5 1q-15 3 -32.5 6t-22.5 3.5t-13 5t-12 11.5t-11 21q0 2 -21 25t-21 32q0 3 5 13q-19 33 -19 47q0 4 0.5 7.5t1.5 8t1 7.5q0 5 -1.5 13t-1.5 11t2.5 9t2.5 8q0 5 -7.5 7.5t-7.5 7.5t9.5 9.5t9.5 7.5q0 1 -10 13q0 22 9 32t9 13q0 1 -10.5 9t-10.5 20q1 2 6.5 6.5
t6.5 10.5q1 12 14 26t13 17q0 1 -2 9t-2 12q0 40 31 68q7 6 24.5 40.5t32.5 49.5q30 52 102 98q4 2 18.5 13.5t25 16.5t22.5 5q15 0 44.5 -26t41.5 -48q0 -12 -19 -12q-8 0 -18 6.5t-17 6.5q-6 0 -17 -4t-16 -4q-69 -28 -69 -42q-1 -11 -25 -33t-43 -27q3 -6 3 -7l-3 7h4
q11 1 16 12q4 -6 4 -9l-4 -5q-4 -6 -10.5 -14t-10.5 -12q-16 -12 -23.5 -27.5t-8.5 -26.5t-7 -18.5t-21 -7.5q-4 4 -11 25q1 -1 3 -3.5t3 -3.5l2 2l-3 -1q3 5 3 10q0 4 -2 12q2 3 3 3q2 0 4 -1t3 -1t1 2q-5 -5 -8 -5q-1 0 -3 2q0 -10 -8.5 -21.5t-8.5 -19.5q0 -6 6 -6
q1 0 7 3t10 4zM268 156q-4 4 -14.5 20t-21 26.5t-19.5 10.5q-24 0 -52 -33t-28 -59q0 -28 49 -90h9.5h11t9 1t9.5 3t8 6q8 8 22.5 28.5t14.5 31.5q0 2 -0.5 6.5t-0.5 6.5q0 7 1.5 21t1.5 21zM112 336q4 0 6.5 10t7.5 13q0 7 -4 7t-8 -4t-4 -8q0 -6 2 -18zM184 497l-3 3
q-9 -7 -9 -10q0 -4 2 -4t10 11zM127 384l-2 2l-4 -2q0 -2 3 -2q1 0 3 2zM70 266l-1 3q-1 0 -2 -1q0 -2 1 -3q0 1 2 1z" />
    <glyph glyph-name="seven" unicode="7" horiz-adv-x="453" 
d="M285 255q-3 -5 -4 -11q-1 -3 -7 -6.5t-6 -11.5q0 -2 0.5 -5t0.5 -5q0 -8 -5 -19.5t-5 -15.5q0 -9 8 -9q2 0 8 2.5t7 2.5q6 0 6 -10q0 -7 -12 -12t-12 -8q0 -9 9 -10t9 -4q0 -11 -16 -18t-16 -22q0 -22 6 -22t14 17q4 0 4 -20v-18t-1.5 -14t-1.5 -10t-2.5 -7t-3 -4.5
t-5 -3t-5.5 -1.5t-7.5 -1t-8.5 -1q-7 -12 -14 -12q-12 0 -22.5 6t-10.5 18q0 33 9 66q6 27 13 107q0 10 7.5 26t7.5 20q0 3 -0.5 8.5t-0.5 7.5q0 9 7 26t7 24q0 5 -6 9t-10 4q-5 0 -17 -5.5t-18 -5.5q-29 0 -51 15.5t-29 41.5q0 4 4 8.5t10 4.5q4 0 17 -4.5t20 -4.5
q10 0 77 14q5 0 17 27t12 39q0 1 -0.5 4t-0.5 5q1 14 6.5 38.5t6.5 29.5q1 7 21 106q1 1 1 2v2q0 15 -15 15q-5 0 -14.5 -2.5t-14.5 -2.5q-1 0 -2.5 0.5t-2.5 0.5q-5 -3 -25.5 -9.5t-31.5 -6.5t-30.5 -4.5t-29.5 -4.5q-5 0 -13 0.5t-12 0.5q-81 15 -81 60q0 8 10 8
q12 0 31.5 -10.5t32.5 -10.5q11 0 24.5 1.5t30.5 4t26 3.5q10 2 30 3t30 3q15 4 48 6q8 1 24.5 7.5t21.5 6.5q9 0 17 -6q5 -4 18 -13t17 -13t8.5 -11t4.5 -15q0 -15 -21 -54.5t-21 -52.5q0 -15 -12 -49t-12 -50q0 -2 0.5 -5t0.5 -4q0 -5 -5 -22q0 -12 18 -12q6 0 17 1.5
t16 1.5q38 0 38 -15q0 -8 -7 -14t-18.5 -9t-22.5 -5t-24 -4t-19 -3q-7 -1 -21.5 -16.5t-14.5 -27.5q0 -16 -14 -22t-14 -8q0 -5 25 -11q0 -3 -1.5 -4.5t-4 -3.5t-3.5 -3q-2 0 -3.5 1t-2.5 1t-1 -1q1 -2 2 -2q2 0 6 2zM238 138q4 0 7 -1q5 0 5 4q0 7 -4 7t-5.5 -1.5
t-1.5 -3.5t-1.5 -3.5t-4.5 -1.5l2 -1q1 0 3 1zM331 456l-1 1v2q-5 -3 -5 -5q1 -1 1 -2q1 0 2.5 2t2.5 2zM282 308l-2 2h-1q-1 -1 -2 -1q2 -2 3 -2l1 1h1zM291 213q-1 0 -2.5 -3t-3.5 -3q0 2 1 3t2.5 1.5t2.5 1.5zM292 212l-3 6q0 3 3 3t3 -3q-3 -3 -4 -5z" />
    <glyph glyph-name="eight" unicode="8" horiz-adv-x="435" 
d="M251 434q0 -2 0.5 -4t0.5 -3q0 -19 -15 -41q-5 -5 -14.5 -21t-9.5 -25q0 -15 28 -31t68 -32t51 -22t28 -31t17 -39q0 -5 -4.5 -19t-5.5 -21q-1 -33 -33 -65q-2 -2 -12 -13.5t-22 -23t-21 -16.5q-6 -3 -28 -15t-32 -16.5t-28 -9.5t-36 -5q-46 0 -86.5 24.5t-65.5 67.5
q-10 0 -26 -12t-22 -12t-19.5 5.5t-13.5 13.5q0 -2 15 9.5t33 30.5t25 36q1 5 9.5 12.5t10.5 13.5q12 12 34.5 42t36.5 43q-1 0 7.5 12t17.5 26.5t9 18.5q-1 1 -14.5 34t-20.5 38q-11 42 -11 56q0 18 10 50t11 46q1 11 9 29t9 28q7 8 16.5 28t19.5 28q6 5 12 19
q7 12 29 26.5t28 14.5q15 0 38 -15t29 -17q28 -7 28 -52q0 -11 -11 -16q-29 -82 -34 -113q-15 0 -19 -11.5t-5.5 -29.5t-8.5 -28q-13 5 -13 11q-1 -1 -1 -2zM107 170q-14 -8 -28.5 -24.5t-14.5 -32.5q0 -4 3.5 -11t4.5 -10q14 -67 111 -67q16 0 50 14.5t52 34.5
q3 4 12.5 8.5t12.5 11.5q5 11 12.5 24.5t11 20t6.5 17t3 23.5q0 19 -29 38t-71 31q-10 3 -31.5 16.5t-30.5 13.5q-17 0 -33.5 -33.5t-26.5 -37.5q-9 -3 -14 -37zM239 460q13 0 13 4q0 2 -0.5 6t-0.5 5l2 7q2 6 5.5 17t7.5 21.5t8.5 19.5t8.5 11q9 6 9 57q0 39 -24 39
q-13 0 -42.5 -30t-29.5 -48q0 -12 -8 -23q-18 -34 -18 -101q0 -54 18 -72q8 0 12.5 14.5t9.5 18.5q8 5 13.5 25.5t15.5 28.5z" />
    <glyph glyph-name="nine" unicode="9" horiz-adv-x="493" 
d="M284 87q8 -10 8 -19q0 -14 -14.5 -23t-14.5 -19q0 -25 -74 -33q-30 0 -66 51q16 20 26 20q6 0 16.5 -5t16.5 -5q14 0 30.5 21.5t22.5 24.5q24 4 34 88q1 4 8 13t7 16q0 8 6 18.5t6 14.5q0 1 -0.5 2.5t-0.5 2.5q0 8 9 21t9 19q0 3 -2 8.5t-2 8.5q0 8 9.5 37t9.5 42
q0 1 -0.5 3t-0.5 4q0 8 2 11q20 33 20 99q0 10 -10 10q-3 0 -10 -6.5t-15.5 -15t-14.5 -12.5q-16 -12 -45.5 -44.5t-37.5 -56.5q-4 -2 -19 -10.5t-22 -12t-18.5 -7.5t-20.5 -4q-14 2 -23 2q-73 50 -73 124q0 16 11 40.5t30 43.5q5 5 17 19.5t21.5 23.5t17.5 10q5 1 23 17
t45 31t56 15q14 0 45.5 -16.5t31.5 -35.5q0 -9 -7 -9q-9 0 -25.5 3t-24.5 3q-55 0 -122.5 -53.5t-67.5 -120.5q0 -42 29 -42q27 0 75.5 40.5t68.5 45.5q1 0 5 8.5t6 8.5q12 0 37 27.5t36 34.5q16 10 28.5 40.5t20.5 30.5q21 0 43.5 -11t22.5 -27q0 -18 -10 -50.5t-18 -39.5
q-3 -22 -21 -63.5t-33 -56.5q0 -3 1.5 -8t1.5 -6q0 -6 -22 -18q6 9 6 12l-1 1q-1 1 -1 2q-4 -10 -4 -15l-20 -32q0 -3 16 -12q-8 -10 -13 -15l1 -5q1 -5 1 -7q0 -6 -3 -9q-28 -28 -30 -48q3 -3 6 -4t4 -1.5t1 -3.5q0 -2 -3.5 -6t-3.5 -6t3 -5t3 -5q0 -8 -8 -10t-8 -5
q0 -4 2 -16t2 -15q0 -5 -6 -13.5t-6 -9.5t4 -8t4 -9q0 -4 -8 -12l1 -1l-5 3q-1 0 -4 -3l1 1l-9 -9l1 1q0 -6 -1 -8zM278 124q6 0 6 10q0 3 -3 3q-7 0 -7 -7q0 -2 4 -6zM300 103q-1 -10 -16 -16l1 -1v9l-1 -1l9 9l-1 -1q6 0 8 1z" />
    <glyph glyph-name="colon" unicode=":" horiz-adv-x="262" 
d="M60 47q0 1 1 8.5t2 12t7 9t15 4.5q23 0 42.5 -13t19.5 -35q0 -16 -13.5 -32t-29.5 -16q-21 0 -32.5 19t-11.5 43zM85 456q0 1 1 8.5t2 12t7 9t15 4.5q23 0 42.5 -13t19.5 -35q0 -16 -13.5 -32t-29.5 -16q-21 0 -32.5 19t-11.5 43z" />
    <glyph glyph-name="semicolon" unicode=";" horiz-adv-x="267" 
d="M90 456q0 1 1 8.5t2 12t7 9t15 4.5q23 0 42.5 -13t19.5 -35q0 -16 -13.5 -32t-29.5 -16q-21 0 -32.5 19t-11.5 43zM86 -83q-8 8 -8 17q0 13 2 36t2 31q-3 4 -8.5 13t-7.5 12.5t-4 9.5t-2 12q0 12 4.5 25t13.5 13q28 0 51.5 -21t23.5 -45q0 -48 -67 -103z" />
    <glyph glyph-name="less" unicode="&#x3c;" horiz-adv-x="415" 
d="M309 122q-10 0 -46 20t-56 26q-67 19 -97 39.5t-30 61.5q0 17 14.5 29t39.5 21.5t31 12.5q7 4 33 24t50 34.5t37 14.5q7 0 21.5 -14t14.5 -25q0 -14 -35 -30t-41 -28q-3 -4 -21.5 -12.5t-24.5 -13.5l-5 -2q-4 -1 -9 -3t-11.5 -5t-12 -6.5t-9 -8t-3.5 -8.5q0 -5 46 -23
q40 -16 90 -43.5t50 -43.5q0 -5 -1.5 -8.5t-4.5 -5t-5.5 -2t-7.5 -1t-7 -0.5z" />
    <glyph glyph-name="equal" unicode="=" horiz-adv-x="493" 
d="M377 188q-17 6 -33 6q-6 0 -28.5 -2t-28.5 -2q-5 0 -16 1t-17 1q-9 0 -43.5 -4.5t-38.5 -4.5q-2 0 -4.5 0.5t-3.5 0.5q-4 0 -12 -4t-12 -4q-17 0 -38.5 26t-21.5 50q13 0 132 0.5t136 0.5q18 0 36 -14.5t18 -29.5q0 -8 -7 -15t-14 -7q-1 0 -3 1h-1zM388 346q-16 6 -33 6
q-6 0 -28.5 -2t-28.5 -2t-17 1t-16 1q-9 0 -43.5 -4.5t-38.5 -4.5q-2 0 -4.5 0.5t-3.5 0.5q-4 0 -12 -4t-12 -4q-17 0 -37.5 19t-20.5 36q0 21 37 21q6 0 23.5 -0.5t27.5 -0.5q31 0 94.5 1t83.5 1q18 0 36 -14.5t18 -29.5q0 -8 -7 -15t-14 -7q-1 0 -2 1h-2z" />
    <glyph glyph-name="greater" unicode="&#x3e;" horiz-adv-x="402" 
d="M322 263q0 -16 -16.5 -34t-35.5 -25q-11 -4 -29 -20.5t-28 -21.5q-12 -6 -30.5 -23.5t-28.5 -21.5q-4 -2 -19 -14.5t-26 -12.5q-8 0 -18.5 6.5t-10.5 15.5q0 12 5 20t15 17t15 17t31.5 26t37.5 30q6 6 21 17.5t25.5 21t10.5 14.5q0 12 -24 21.5t-53 17t-53 28.5t-24 53
q0 23 11 23q2 0 3.5 -1.5l3 -3l2.5 -2.5q9 -17 31 -30t54.5 -27t47.5 -22l18 -9q19 -9 30 -16t22.5 -19.5t11.5 -24.5z" />
    <glyph glyph-name="question" unicode="?" horiz-adv-x="443" 
d="M70 529q3 12 6 21t8.5 18.5t8.5 14.5t12.5 18.5t13.5 19.5q54 81 152 81q41 0 76.5 -28t35.5 -76q0 -16 -11 -42t-11 -41q0 -3 0.5 -8t0.5 -7q0 -22 -11 -34q-8 -9 -13 -20.5t-10 -25.5t-8 -21t-12 -18t-12 -16q-14 -30 -16 -33q-57 -75 -57 -120q0 -9 1 -14
q0 -26 -15.5 -41t-31.5 -15q-24 0 -33 30t-9 56q0 12 4.5 24.5t12.5 28.5t11 25q5 12 13 25.5t21.5 33t16.5 23.5q32 48 47 72.5t31 68.5t16 84q0 23 -11.5 34t-29.5 11q-7 0 -11.5 -2t-7.5 -4t-8.5 -6t-11.5 -7q-11 -5 -18.5 -14t-15.5 -23.5t-12 -19.5q-28 -37 -28 -58
q0 -2 0.5 -5t0.5 -4q0 -6 -5.5 -13.5t-10.5 -7.5q-40 0 -69 35zM352 529q-4 8 -6 8q-6 0 -6 -9q0 -6 5 -6q6 0 7 7zM188 14q-1 0 -5 0.5t-7 1.5q-24 12 -24 48q0 31 61 31q10 0 16.5 -8t6.5 -18q-2 -29 -12 -42t-36 -13z" />
    <glyph glyph-name="at" unicode="@" horiz-adv-x="476" 
d="M135 115q18 -6 25 -28q4 -2 14.5 -7t16 -7.5t14 -6t16 -5t14.5 -1.5q25 0 64.5 27.5t61.5 60.5q19 19 32 19q23 0 23 -11t-23.5 -33t-34.5 -24q-4 -14 -25 -27q-12 -24 -44 -43.5t-65 -19.5q-23 0 -49.5 8.5t-33.5 23.5q-4 8 -29 24.5t-32 31.5q-3 4 -7.5 20t-9.5 21
q-7 7 -13 23.5t-6 24.5q1 4 1 11q0 5 -2.5 16t-2.5 17q0 9 6 27t6 26q0 2 -5.5 9.5t-5.5 14.5q0 2 1 3q16 48 16 65q6 10 10 32t23 54q21 50 70.5 78t96.5 28q29 0 92 -27q10 -5 29 -30.5t19 -37.5q0 -2 -1 -7t-1 -7q0 -6 3 -17t3 -16t-3 -13q2 -14 2 -21q0 -10 -2 -29.5
t-2 -29.5q0 -4 0.5 -10t0.5 -10q0 -5 -2 -11q-6 -10 -8 -31t-8.5 -33t-23.5 -12q-8 0 -15 6q-27 14 -34 23.5t-9.5 33.5t-11.5 48q-15 0 -37.5 -39.5t-22.5 -70.5q0 -1 0.5 -3t0.5 -3q0 -37 -21 -37q-36 0 -49 20t-13 57q0 40 8 73q2 8 8.5 26.5t20.5 42t26 23.5q3 0 9 -2
q68 -27 108 -30q8 0 14 5.5t8 10.5t2 6t-8.5 31t-8.5 48q-36 36 -58 36q-7 0 -10 -1l-5 -1q-5 -1 -10.5 -2t-14 -3t-16.5 -5.5t-15.5 -8.5t-14 -11.5t-10.5 -14.5q-4 -6 -18 -26.5t-18.5 -29.5t-12.5 -33.5t-12 -55.5q-6 -43 -15 -66q-3 -4 -3 -11q0 -63 14 -80
q4 -5 6 -17.5t5 -18.5q3 -5 7 -16.5t6 -14.5q-11 -5 -11 -9q0 -2 3.5 -5t5.5 -3q3 0 3 8q0 1 -1 5t-1 5zM197 311q0 -8 4 -8t14.5 12.5t24.5 32.5l14 21q0 1 1 2t1 2q0 6 -5 6q-16 0 -35 -25t-19 -43z" />
    <glyph glyph-name="A" unicode="A" horiz-adv-x="522" 
d="M88 265q1 11 2 27.5t1.5 24t4 18.5t10.5 21q5 7 12.5 44.5t16.5 54.5q12 30 12 31q1 6 8 15t7 15q3 29 7 36q12 18 30.5 70t39.5 83t53 31h17q60 0 60 -145q0 -23 -2 -32q5 -8 8.5 -21.5t4.5 -24t2 -28.5t2 -24q11 -58 11 -62q0 -5 -0.5 -16t-0.5 -16q0 -50 38 -108
q-8 -22 -12 -32q3 -11 7 -35t8 -41t8 -22q5 -7 11 -42t10 -48q8 -23 8 -63q-2 -2 -16 -10q-4 -3 -14.5 -13.5t-19 -16.5t-15.5 -6q-5 0 -11.5 8.5t-8.5 9.5q-26 14 -34 64q-1 4 -7.5 26.5t-6.5 37.5q0 2 0.5 6t0.5 6q0 31 -10.5 84t-27.5 53q-4 0 -46 -12q-5 -6 -18.5 -8.5
t-18.5 -5.5t-8 -3t-11 2q-1 0 -18 -8t-29 -8q-17 0 -30 -32t-23 -74t-16 -52q-29 -72 -57 -72q-9 0 -18 7.5t-9 15.5q0 3 1 5q23 63 29 93q1 8 17 62.5t16 79.5q0 7 -4.5 20t-4.5 20q0 9 8 9q2 0 7 -0.5t8 -0.5t11 2zM205 433q0 -18 -2 -26q0 -1 -17.5 -39.5t-17.5 -65.5
q0 -24 9 -24q15 0 33.5 3t41 7t34.5 6q15 8 15 29q0 23 -10.5 84t-10.5 91q0 4 1 7v-1l-3 13q-3 13 -7 25.5t-7 12.5q-4 0 -17.5 -30.5t-13.5 -41.5q0 -32 -28 -50z" />
    <glyph glyph-name="B" unicode="B" horiz-adv-x="643" 
d="M199 395q1 -5 1 -15t-7 -27t-7 -25q0 -4 1 -10.5t1 -9.5q0 -6 -2 -19t-2 -20t1 -10l-1 -3q-2 -2 -4 -6.5t-4 -10t-3.5 -12t-1.5 -12.5q0 -8 1.5 -24.5t1.5 -24.5q0 -4 -12 -55q0 -2 0.5 -5.5t0.5 -5.5q0 -32 -11 -64t-37 -32q-23 0 -34.5 4.5t-14 9t-5.5 18.5
q-11 48 -11 143q0 7 7.5 18.5t7.5 20.5q0 2 -0.5 5t-0.5 5q0 4 4 10t4 9q0 4 -7.5 17t-7.5 21q0 29 12 73.5t14 60.5q2 14 10.5 53.5t13 67.5t4.5 51q0 6 -7 16t-7 14q0 23 33 23q25 0 33.5 -29t11.5 -78q-7 -21 -7 -66q0 -15 7 -15q10 0 10 18q0 19 14.5 32.5t15.5 22.5
q0 3 -1 9t-1 10q0 7 11 26t20 28q4 4 8 20t16 18q3 1 5 6q13 33 42 50q3 2 18.5 17t27.5 15q4 0 5 1q9 14 41 14q7 0 26 -7t19 -14q0 -2 -0.5 -5t-0.5 -4q0 -7 9 -8q8 -4 18 -79q-1 -8 -6.5 -22t-6.5 -20q-2 -12 -14 -27.5t-12 -20.5q0 -6 -8.5 -15t-8.5 -17t-11.5 -13
t-11.5 -12q0 -10 15 -10q3 0 9.5 2t10.5 2q56 0 82 -21q4 -3 14 -15.5t20.5 -21t19.5 -8.5q4 0 26 8t28 8q7 0 13 -8t6 -16q0 -15 -8.5 -22.5t-21 -12.5t-25 -15t-21 -37.5t-8.5 -72.5q0 -2 0.5 -5.5t0.5 -4.5q0 -8 -8 -23t-8 -22q0 -16 -8.5 -38.5t-10.5 -32.5
q-8 -8 -12.5 -16.5t-9.5 -21.5t-7 -18q-5 -9 -16 -25.5t-15 -24.5q-3 -6 -27 -35t-33 -30q-1 0 -20 -14t-37 -14q-9 0 -26 9t-20 10q-36 14 -36 80q0 9 3 18q33 109 66 158q61 90 143 158q3 3 12 8t13.5 10t4.5 14q0 52 -68 52q-15 0 -27 -4t-21 -8t-14.5 -6.5t-15.5 -11.5
t-14.5 -13t-20.5 -20.5t-25 -25.5q-59 -71 -73 -71t-25 13t-12 27q0 15 1 22q60 60 90 74q29 27 42 42q3 4 24 25.5t33.5 37.5t12.5 26q0 5 -2.5 15t-2.5 15q0 10 7 17q15 47 15 68q0 36 -17 36q-8 0 -21 -4.5t-28.5 -11t-21.5 -8.5l1 -1q-1 -2 -2 -5t-2 -5.5t-3 -4.5t-5 -2
q-8 -1 -16.5 -12.5t-16.5 -11.5q-7 0 -11 2q-2 -45 -11 -58l3 6q0 3 -2 3q-3 0 -3 -1q0 -5 3 -8q-16 -18 -16 -29q0 -2 0.5 -4t0.5 -4q0 -5 -14.5 -25t-24.5 -31l-1 1v1q0 1 2 3q0 -1 -1 -2.5t-1 -2.5q0 -17 1 -25q0 -2 -0.5 -4.5t-0.5 -3.5q0 -3 2.5 -9.5t2.5 -9.5
q0 -10 -10 -28l1 2v2q0 2 -2 4q-2 -1 -2 -2t1 -2.5t2 -2.5zM499 285q-6 -1 -15 -10q-156 -139 -163 -275q0 -23 13 -23q7 0 36 9q46 40 46 48q0 2 -0.5 5t-0.5 4q0 9 14.5 20t14.5 24q0 7 10 18t10 16q0 2 -9 17q3 8 28 49.5t25 60.5q0 6 -4 17t-5 20zM324 665q2 0 2 -1
q-2 0 -2 1z" />
    <glyph glyph-name="C" unicode="C" horiz-adv-x="412" 
d="M300 51q-7 -20 -29.5 -42t-43.5 -22l-2 1q-7 0 -15.5 -4t-12.5 -5q-14 11 -30 11q-2 0 -6 -0.5t-6 -0.5q-13 0 -16 2.5t-4 11.5q-1 3 -1 4q0 2 -25.5 25.5t-25.5 35.5q0 11 -7 31t-7 30q0 4 3 12.5t3 13.5q0 6 -6 14.5t-6 12.5q0 2 1.5 6t1.5 7q0 2 -3 7.5t-3 9.5
q0 3 2 8.5t2 7.5q0 4 -2 15.5t-2 17.5q0 3 0.5 10t0.5 11q0 3 -0.5 10.5t-0.5 11.5q0 8 10 28t10 53q0 6 4 15.5t4 14.5q0 13 6.5 31t6.5 28q0 5 -2 15t-2 16t5 13.5t5 9.5q-1 2 -1 6q0 7 9.5 14.5t18.5 19.5t9 31l1 3q1 2 2.5 7.5t4.5 12t7.5 14.5t9.5 16t12 15.5t15 12.5
q1 1 9.5 23t23.5 42.5t34 20.5q3 0 15 -1t17 -2t14 -3.5t16 -6.5q8 -5 20 -7.5t21 -3.5t15.5 -7t6.5 -17q0 -17 -21 -78q-1 -17 -9 -41.5t-20 -27.5q-19 0 -19 68q0 5 1 13.5t1 12.5q0 14 -7 14q-9 0 -18 -5.5t-18.5 -18.5t-14.5 -20t-15 -24t-10 -18q1 -2 1 -5
q0 -4 -4.5 -11t-11 -17t-9.5 -15q-3 -4 -10.5 -14.5t-13.5 -18.5l-6 -9q0 -1 1.5 -5t1.5 -5q-1 0 -6.5 -13.5t-11 -36.5t-5.5 -44q0 -26 -8 -67t-8 -57q0 -4 0.5 -11.5t0.5 -11.5t-1 -10.5t-1 -9.5q0 -20 6 -56t7 -49q2 -24 17.5 -46t41.5 -22q15 0 23 7q7 5 22 14.5
t26 16.5l11 7q0 1 -1 5t-1 6q0 5 6 11q8 5 19 21t19.5 29t12.5 13t14 -13v1q-8 -14 -8 -21q0 -29 -17.5 -59.5t-44.5 -46.5q0 6 -3 6l-1 -2q4 -2 5 -3zM149 384q0 2 -3 2q0 -2 3 -2zM313 72q0 3 -2 3q-1 0 -2 -1q1 -2 1 -3l1 1h2zM512 378q0 -17 -14 -19q-9 -1 -10.5 -12
t-6.5 -21.5t-23 -10.5q-10 0 -10 8q0 1 0.5 1t0.5 1q7 7 13 24t14.5 28t24.5 14q11 0 11 -13zM369 176q-3 9 -3 17q0 11 6 24.5t13 13.5q3 0 6 -17.5t3 -30.5q0 -18 -7 -18q-2 0 -3 4t-2.5 11t-3.5 12q-2 -4 -5 -8.5t-4 -7.5zM407 212q-9 10 -9 24q0 23 17 37q4 -7 4 -15
q0 -13 -6 -16t-6 -6q0 -2 2 -9t2 -10q0 -1 -4 -5zM449 265v1q0 -16 -10 -16q-7 0 -7 10q3 28 13 28q3 0 3.5 -2.5t0.5 -20.5z" />
    <glyph glyph-name="D" unicode="D" horiz-adv-x="645" 
d="M323 624q0 12 6 21t16.5 18.5t15.5 16.5q15 21 47.5 42t53.5 21q32 0 52 -14.5t27.5 -30t8.5 -15.5q7 -1 11.5 -5.5t7.5 -12.5t5 -15.5t4 -18t3 -15.5q3 -12 10 -18.5t7 -9.5q0 -4 -5 -19q0 -8 4.5 -14.5t4.5 -9.5q0 -1 -1 -3l-1 -3q0 -3 2.5 -9t2.5 -10q0 -15 -5 -44
t-5 -44q0 -5 -7.5 -22.5t-7.5 -26.5t14 -23q-14 -27 -27 -34q-1 1 -1 3q0 1 -0.5 2t-2.5 1t-2 -2q0 -1 4 -2q2 -1 3 -1l-3 -30q-1 -5 -7.5 -7.5t-6.5 -5.5q0 -1 0.5 -5.5t0.5 -7.5q0 -4 -6 -6q-7 0 -12.5 -5.5t-12.5 -19t-8 -14.5v-14q0 -24 -7 -28l1 -1q-1 2 -1.5 8t-2.5 9
h-2q-2 -1 -3 -1l-1 1h-1q-8 0 -22 -18.5t-14 -39.5q1 -2 1 -7q0 -4 -5 -12.5t-5 -14.5q0 -8 -15.5 -12.5t-15.5 -13.5q0 -2 1 -7t1 -8q0 -14 -20.5 -16.5t-20.5 -12.5q0 -2 1 -6t1 -7q0 -4 -5 -5q-9 -1 -32 -15t-44 -14q-3 0 -9 2q-5 -1 -14 -1q-8 0 -18.5 3t-15.5 5.5
t-19.5 10.5t-17.5 9q-3 -5 -10.5 -19t-12.5 -23t-12 -20t-13.5 -16.5t-11.5 -5.5q-3 0 -7.5 2t-6.5 2q-5 0 -16.5 -3t-17.5 -3q-12 0 -20 17t-11 43t-4 42.5t-1 29.5q0 4 4.5 15.5t4.5 17.5q0 8 -6 23.5t-6 23.5q0 38 8 50q0 1 -0.5 3t-0.5 3q0 4 4.5 11t4.5 11q0 3 -2.5 9
t-2.5 9q0 2 1.5 7.5t1.5 8.5t-1 8.5t-1 6.5q3 12 3 35q0 26 7 42t7 22q0 3 -5 18.5t-5 16.5q0 2 10 42q-1 3 -1 8q0 9 6.5 26.5t6.5 24.5q0 4 -5 18.5t-5 22.5q0 6 1 21.5t1 23.5q0 10 -5 27t-5 25q0 24 34 24q47 0 69.5 -40.5t22.5 -91.5q0 -9 -9 -28.5t-9 -27.5
q0 -2 2 -8.5t2 -9.5q0 -11 -14 -43.5t-14 -59.5q0 -8 4.5 -29.5t5.5 -25.5q0 -4 -5 -9t-5 -8q0 -8 17 -8t17 4q0 1 -5 5t-5 6t6.5 5t6.5 6q-6 10 -6 38q0 9 10 20t10 16q0 1 -0.5 4t-0.5 5v-1q9 11 9 18q0 1 -0.5 4t-0.5 4q0 6 5 11q1 -1 3.5 -5.5t5 -5.5t6.5 -1
q-1 -3 -1 -7q0 1 0.5 3t0.5 3q-3 6 -3 12q0 4 4.5 15t4.5 18q0 4 -2 12.5t-2 13.5q0 16 11 32l-1 -1q0 -11 -1 -17q0 -7 6.5 -12.5t6.5 -7.5t-2.5 -10t-2.5 -11q0 -8 4 -24.5t4 -23.5q0 -11 -12 -19q-16 -9 -16 -33q0 -3 1 -9t1 -9q0 -4 -2 -12.5t-2 -13.5q0 -11 3.5 -29.5
t3.5 -25.5q0 -5 -8 -7q-2 0 -3 0.5t-2 2.5l-2 4l2 2l-1 -3q-2 1 -8 1l-2 3q0 -2 3 -2q-2 -8 -2 -12q0 -5 4 -15t4 -16q0 -4 -3 -5t-7.5 -1t-6.5 -1q0 2 0.5 8t0.5 9t-2 3t-2 -6q0 -5 3 -17.5t3 -18.5q0 -5 -3.5 -14t-3.5 -14q0 -1 1 -5t1 -6q0 -5 -5 -13.5t-5 -13.5
q0 -15 6 -21t14.5 -8.5t12.5 -8.5q14 -21 23.5 -28t29.5 -7q35 0 59 6q6 1 11.5 11t10.5 13q5 4 15.5 17.5t19.5 24.5t12 11l15 -5q2 3 6.5 9.5t7 11.5t2.5 11q0 7 6.5 15.5t6.5 14.5q0 7 10 21t10 25q0 2 -0.5 6t-0.5 6q0 6 6.5 14t6.5 11q0 4 -3 12t-3 11q0 16 8.5 36
t9.5 31q0 15 21.5 22t21.5 12q0 1 -4.5 4t-12 6t-13.5 4l1 -1q4 12 5.5 22t3 15t6.5 12q-8 8 -8 15q0 6 6.5 16.5t6.5 15.5q0 1 -7 13t-7 23q0 17 -4 33q-5 21 -13 43.5t-24 47t-33 24.5q-7 0 -36.5 -14.5t-29.5 -21.5q0 -3 1 -5q-11 -13 -14 -21q-21 -2 -21 -17
q0 -13 -13 -22t-13 -10q0 -3 4 -8t4 -7q0 -4 -12 -4t-12 -6q0 -4 3 -15t3 -15q0 -8 -5 -10q-14 -7 -17.5 -30t-10.5 -23t-18 14q2 -1 6.5 -2t6.5 -1l-1 -1q1 2 1 7q0 3 -0.5 9t-0.5 9q0 18 4 52l-1 -1q5 -1 14 -1q3 0 6 3q0 4 -6.5 8.5t-6.5 9.5q0 13 10.5 31.5t22.5 27.5
l1 -2l1 -2q0 -1 -2 -1q-3 0 -3 1q0 4 4 4zM537 325q2 4 4 6q-4 0 -4 -2q0 -1 0.5 -2t0.5 -2l-2 1h-2q-3 0 -3 -4l2 -1zM134 164q11 7 11 13q0 5 -4 9q-4 -4 -4 -7q0 -1 0.5 -4t0.5 -5q0 -3 -3 -7.5t-3 -6.5t2 -2q4 0 4 2q-3 4 -4 8zM219 339q0 1 0.5 2t0.5 2t-2 5l-2 -2
l3 -6q-1 -2 -2.5 -5.5t-1.5 -4.5q0 -5 7 -5q4 0 4 6t-7 8zM508 277q0 -14 -11 -32q0 -4 4 -4q6 0 13.5 15.5t7.5 24.5t-6 9q-9 -2 -9 -7q0 -1 0.5 -3t0.5 -3zM185 209q4 16 4 17q0 8 -10 35q-4 -3 -4 -13q3 -7 4.5 -16l2.5 -15t3 -8zM172 199q0 1 1.5 3.5t1.5 4.5q0 3 -3 3
q-2 -3 -2 -5t2 -6zM159 265q-2 2 -2 3q-2 -4 -2 -5t1 -3q2 4 3 5zM531 367q-1 0 -2.5 1.5t-2.5 1.5q-3 0 -3 -2q1 -1 2 -2.5t1 -2.5q3 3 5 4zM557 656q0 4 -1 4q-3 -2 -3 -3l2 -2q1 1 2 1zM584 533q-2 -2 -2 -3l3 -6q2 2 2 3q0 6 -3 6zM162 314l1 -1q1 -1 2 -1q2 2 2 4t-2 4
zM540 291v-5l2 2q0 1 -2 3zM356 29l-1 3q-4 0 -4 -3q0 -2 3 -2zM212 259q0 4 -3 6l-2 -2l3 -6zM113 244q-3 0 -3 -1l2 -2v1zM218 390v-1v1zM259 516l-1 -1zM506 184q0 -6 -3 -6l-2 3q0 3 5 3zM490 172q-2 -2 -3 -2q-2 0 -2 2t3 2zM283 546q-2 -1 -4 -1q-3 0 -3 3q1 1 2 1
l4 -4zM279 469l1 1zM521 409q0 -2 -2 -6l-2 4q0 2 2 2t3 -1z" />
    <glyph glyph-name="E" unicode="E" 
d="M188 118q1 -1 7 -4.5t8 -6.5t2 -8q0 -4 -4.5 -15t-4.5 -17q0 -8 27 -8q15 0 56 3.5t61 3.5q2 0 6.5 -0.5t7.5 -0.5q8 0 15 4q76 -5 76 -29q0 -27 -11.5 -34t-35.5 -7q-14 0 -42.5 2t-42.5 2q-18 0 -181 -8q-19 0 -31 11.5t-17.5 34t-7 43t-1.5 50.5l1 8q1 7 4 17t6 13
q0 4 -3.5 13t-3.5 14q0 1 0.5 4t0.5 5q0 16 -1 48t-1 48q0 4 4 12t4 11q0 6 -8 22t-8 24q0 4 5 12t5 14q-2 16 -2 25q0 5 1.5 13t1.5 12q0 3 -0.5 8.5t-0.5 7.5q0 3 2 8t2 7q0 6 -2.5 16t-2.5 15q0 8 2 31.5t2 34.5q0 3 -0.5 11t-0.5 11q0 36 5.5 77.5t19.5 41.5h1l2 -1
q34 -14 81 -14q3 0 9.5 0.5t9.5 0.5q5 0 16 -2.5t17 -2.5q4 0 10.5 0.5t10.5 0.5q19 0 56.5 -2.5t56.5 -2.5q3 0 9.5 1t9.5 1q68 0 68 -33q0 -2 -0.5 -7t-0.5 -7t2 -8t2 -9q0 -9 -27 -14q-138 0 -247 16q-5 0 -10 -4t-5 -9q0 -27 2.5 -80.5t2.5 -79.5q0 -5 -1 -17t-1 -18
q0 -25 5 -32t24 -7q5 0 26.5 1t36.5 1q75 0 75 -28q0 -26 -25 -35.5t-55.5 -7.5t-55.5 -5.5t-25 -29.5q0 -8 1.5 -21.5t1.5 -19.5q0 -3 -3 -9t-3 -9q0 -2 2.5 -6.5t2.5 -7.5q0 -2 -0.5 -6t-0.5 -5q0 -4 2.5 -12t2.5 -12q0 -7 -4 -20.5t-4 -15.5q0 -6 3 -22zM132 157
q-3 -6 -3 -11q0 -8 5 -18q5 12 5 14q0 14 -7 14q3 6 3 12q0 12 -7 12q-6 0 -6 -10t10 -13zM166 225q4 12 4 17q0 9 -5 14q-6 -7 -6 -15q0 -6 7 -16zM129 397q0 5 0.5 14.5t1.5 14.5q0 3 -5 3q-3 0 -3 -11q0 -9 6 -21zM158 441q4 4 4 9q0 7 -5 7q-3 0 -3 -6q0 -4 4 -10z
M123 279l-2 2q-1 0 -3 -2q0 -4 2 -4t2 1.5t1 2.5zM160 398q0 4 -3 5l-2 -2q2 -4 3 -5zM106 163q0 3 -2 3q-1 0 -1 -1q0 -2 3 -2z" />
    <glyph glyph-name="F" unicode="F" horiz-adv-x="420" 
d="M89 274q-12 17 -12 24l5 16q4 16 4 19q0 7 -1.5 23t-1.5 23q0 4 2.5 11.5t2.5 10.5q0 7 -4 25.5t-4 29.5q0 7 0.5 21t0.5 22q0 9 -3 34.5t-3 41.5q0 10 0.5 29t0.5 28q0 7 -3 22t-3 23q0 27 67 27q6 0 15.5 -1.5t14.5 -1.5q26 0 78 8.5t76 8.5q22 0 39 -4h-1q0 1 7 1
q54 0 54 -22q0 -15 -5.5 -23.5t-25.5 -8.5q-8 0 -24 3t-24 3l-16 -1q-16 -2 -39 -4.5t-46 -6.5t-39 -10t-16 -13q0 -4 3 -17t3 -20q0 -5 -2 -15.5t-2 -15.5q0 -2 0.5 -6.5t0.5 -6.5q0 -5 -1.5 -13t-1.5 -13q0 -4 1 -10t1 -9q0 -4 -3.5 -19t-3.5 -23v-8q0 -39 2.5 -47
t16.5 -8q27 0 51 3t38 3q73 0 73 -49q0 -22 -37 -22q-5 0 -17.5 0.5t-27.5 0.5q-87 0 -91 -21q0 -16 -6.5 -45.5t-6.5 -37.5t4 -8q3 0 7 1t6 1q8 0 8 -5q0 -2 -0.5 -5.5t-0.5 -4.5q0 -15 3 -44.5t3 -44.5q0 -7 -0.5 -19t-0.5 -19q0 -9 3.5 -23t3.5 -20q0 -10 -2.5 -20
t-9.5 -22.5t-23 -20t-39 -7.5q-3 0 -9 4t-9 4q-1 0 -19 -5q-1 0 -3 2q0 4 3 8t3 9q-17 42 -17 63q0 3 0.5 10t0.5 11q0 5 -4 16.5t-4 18.5q0 11 1 34.5t1 35.5q0 8 -1.5 24t-1.5 25q0 23 11 42zM174 287q-2 21 -6 25q-7 0 -7 -21q0 -11 6 -23q4 2 7 19zM143 290q0 13 -5 13
q-7 0 -7 -11t8 -11q2 0 4 9zM140 207q4 5 4 12q0 6 -3 12q-4 -10 -4 -14q0 -5 3 -10zM139 406q-2 -4 -3 -5q0 -1 2 -3q4 0 4 4l-1 2z" />
    <glyph glyph-name="G" unicode="G" horiz-adv-x="597" 
d="M312 -36q-12 -24 -25 -27.5t-17 -7.5q-16 -17 -60 -17q-13 0 -26 2t-28.5 12.5t-15.5 28.5q0 55 70 137q46 54 86 83.5t99 55.5q22 42 22 76q0 4 -1 12.5t-1 13.5q0 6 3 18.5t3 18.5q0 13 -16 50q-29 -32 -33 -32q-2 0 -5 2.5t-5 2.5q-4 0 -18 -12.5t-17 -22.5
q-2 -4 -12 -8.5t-14 -9.5q-43 -57 -65 -57q-2 0 -22.5 -11t-34.5 -11q-3 0 -9 2q-4 -4 -8 -4q-2 0 -7 5t-8 5q-4 0 -12 -2t-13 -2q-8 0 -21.5 5.5t-19.5 14.5q0 -2 -15 6.5t-30.5 26.5t-15.5 39q0 3 3 10t3 11q0 2 -0.5 4t-0.5 4q0 7 10 37q3 10 7 33t10.5 39t21.5 31
q0 4 -2 10t-2 9q0 4 1.5 8t6 9t6.5 7t9 7.5t8 6.5q1 3 1 9.5t1.5 11t7.5 6.5q8 2 8 12q2 8 10 13t11 13q2 5 28.5 22t29.5 26q1 5 7 8.5t15.5 6.5t12.5 4q4 2 10.5 11.5t16.5 9.5q13 0 21.5 6t11.5 6q2 0 8 -3.5t9 -3.5q9 0 19 -3t16.5 -6t18 -9.5t15.5 -8.5q6 -3 22.5 -10
t26.5 -12.5t19 -16t9 -23.5q0 -7 -9 -11.5t-17 -4.5q-9 0 -37.5 16.5t-45.5 16.5q-47 0 -111 -68q-70 -73 -75 -124q-1 -4 -8.5 -15t-7.5 -26q0 -10 -8.5 -34t-8.5 -34q0 -7 5.5 -16t11.5 -9q32 7 70 28t93 59t76 51q4 3 27 25t32 22q1 0 3.5 -0.5t4.5 -0.5q5 0 15 3t14 3
q60 0 60 -86l-8 -37q-7 -36 -16 -75t-13 -43q-3 -4 -4.5 -10t-2.5 -14t-2 -12q7 -4 15 -4q5 0 16.5 0.5t19.5 0.5q32 0 32 -16q0 -3 -22 -25q-8 -1 -27 -1.5t-32 -2.5t-25 -8q-3 -7 -7.5 -15.5t-9 -17.5t-9.5 -18.5t-9.5 -18l-9 -17t-8 -15t-6.5 -12t-4 -8.5l-1 -2
q-12 -9 -27.5 -41t-36.5 -43q-7 -4 -10 -16.5t-13 -12.5q-1 0 -3.5 0.5t-4.5 0.5zM291 -22l-1 1v1l1 1q1 0 2 -1q-1 -1 -3 -1q9 14 33 31q14 49 49 78q0 4 -0.5 10t-0.5 9q0 22 13 34l2 -3q0 2 -3 2q4 9 7 25q0 10 -10 10q-14 0 -42 -26q-1 -1 -13 -11t-17 -15t-17.5 -17
t-20 -20t-18.5 -21t-17.5 -24t-13.5 -24t-10.5 -26.5t-4.5 -26.5q3 -4 17 -4q11 0 33 9t35 9zM404 169v1l-1 2q-2 -2 -2 -3q1 -1 1 -2z" />
    <glyph glyph-name="H" unicode="H" horiz-adv-x="585" 
d="M508 513q-18 -21 -18 -57q0 -17 12 -17q13 0 21.5 8.5t10.5 8.5q11 0 11 -19q0 -12 -13 -31.5t-28 -28.5q-7 -5 -13 -11t-9.5 -11.5t-6.5 -15t-4 -14t-3.5 -16.5t-3.5 -16q-7 12 -8 12q-18 0 -18 -25q0 -6 1 -19.5t1 -21.5q0 -29 -11 -45q-2 -2 -2 -6q0 -1 0.5 -3.5
t0.5 -3.5q0 -6 -5 -15t-5 -17q1 -1 2.5 -1.5t3 -1.5t3 -3t1.5 -5q0 -4 -6.5 -14t-6.5 -16q0 -5 7 -23.5t7 -28.5q0 -12 -19 -49.5t-35 -37.5q-7 0 -13.5 7.5t-7.5 16.5q-1 22 -8 67.5t-7 72.5q0 4 5 15.5t7 16.5q2 -2 4.5 -7t4.5 -7q1 1 5.5 3.5t7 5t2.5 5.5t-17.5 24.5
t-17.5 31.5q0 9 4.5 23t4.5 21q0 4 -2 10q-3 5 -6 20.5t-7 27t-9 11.5q-12 0 -64 -21t-68 -21t-33 -18.5t-18 -18.5t-3.5 5t-4.5 5q-7 0 -7 -14q0 -1 0.5 -3.5t0.5 -3.5q0 -4 -2 -4t-6.5 10t-16.5 10q-2 0 -2 -3l2 -5q3 1 8.5 3t8.5 3q-12 -18 -19 -28q2 -30 2 -45
q1 -4 8 -8.5t7 -9.5q0 -3 -5.5 -10.5t-5.5 -12.5q0 -30 7 -43t7 -20l-1 -6q0 -6 1 -12t5 -6q3 0 5.5 2t4 4t3 5.5t3.5 5.5q1 -10 5.5 -35t4.5 -39q0 -9 4.5 -24t4.5 -22q0 -19 -12 -43.5t-25 -24.5q-8 0 -22 12.5t-14 23.5q0 1 0.5 3t0.5 3q0 11 -7 31t-7 32q0 11 -5 29
t-5 27q0 8 2 13q0 10 -2.5 37.5t-2.5 41.5q0 3 0.5 9t0.5 10t-1 13t-1 14q0 6 1.5 19.5t1.5 20.5q0 13 -2 39t-2 37q0 17 11 29q4 5 7 35t7 41t4 33q0 5 -0.5 16.5t-0.5 17.5q0 48 15 69q2 2 2 6q0 3 -7 10.5t-7 14.5t1.5 19t1.5 19q0 5 -1 13t-1 13v3l1 1q4 12 6 36.5
t2 27.5q28 14 69 14q20 0 20 -42q0 -35 -5 -59q0 -7 9.5 -7.5t9.5 -5.5q0 -8 -11 -33t-11 -38q0 -4 3 -10t3 -9t-3 -9t-3 -9q0 -2 1 -6t1 -5q0 -5 -7.5 -16t-7.5 -18q0 -4 2.5 -12t2.5 -11q0 -2 -2.5 -8t-2.5 -9q0 -2 1 -5t1 -5q0 -10 -12.5 -21t-12.5 -22q0 -7 4 -7t8 5.5
t8 5.5q2 0 7 -1.5t7 -1.5q20 1 45 12.5t32 13.5q59 14 70 22q13 9 24.5 11.5t14.5 4.5t3 13q0 2 -0.5 9t-0.5 10q0 12 8 38t8 41q1 18 18 75.5t17 77.5q0 39 66 39q32 0 44 -9t12 -38q0 -5 -4 -19.5t-10 -41.5t-10 -55q-2 -6 -10.5 -7.5t-8.5 -5.5q0 -2 1.5 -7t1.5 -6
q0 -2 -0.5 -4t-0.5 -3q0 -2 8 -18zM433 453v-3l1 2h-2q1 0 1 1zM410 211q-3 -12 -3 -15q0 -5 4 -5q6 3 6 7q0 3 -3.5 7t-4.5 6q3 9 3 10q0 2 -4 6q-5 0 -5 -7q1 -1 3.5 -4t3.5 -5zM128 345q7 0 7 20t-8 20q-13 -4 -13 -13q0 -15 15 -28l-4 -4h1l2 -1q1 1 1 3t-1 3zM90 83
q0 3 4 12.5t4 14.5q0 6 -5.5 17.5t-5.5 15.5q0 1 1 3.5t1 4.5q0 3 -3 3q-9 -6 -9 -27q0 -32 14 -45zM407 109q0 2 -1 9t-2 9t-4 2q-5 0 -8.5 -8t-3.5 -15q0 -16 10 -16q5 2 9 19zM95 55q-10 -3 -10 -7q0 -8 5.5 -25.5t7.5 -18.5q0 2 1 8t1 9q0 16 -5 34zM91 257q-3 14 -8 17
l-3 -2q0 -20 6 -20zM376 80q-12 0 -12 -10q0 -11 9 -11q5 0 5 15q0 6 -2 6zM149 437q-2 -6 -2 -12q0 -5 2 -9q2 6 2 9q0 4 -2 12zM153 516q7 2 7 8q0 7 -5 7q-8 -5 -8 -10t6 -5zM361 227q0 2 -2 6q-4 -4 -4 -5t1 -3t1 -3q4 4 4 5zM413 278q0 3 -3 3q-6 0 -6 -6q0 -4 4 -4
q3 0 5 7zM410 241l1 2l-2 1l-3 -2l1 -2h1zM481 490q0 4 -3 4v-2q-1 -2 -1 -3q1 -1 2 -1zM149 468q0 2 -1 3v-1l-1 -2l1 -1v-2q1 1 1 3zM133 439l3 6l-3 6l-3 -6zM110 17q-1 -1 -1 -3q1 0 2 -1q0 1 1 3zM404 159q-2 -4 -2 -6t2 -2t2 2t-2 6zM115 201q0 2 -0.5 5.5t-0.5 4.5
q0 3 7 3l2 -1q-2 -9 -8 -12zM509 512q-3 4 -3 9q0 12 8 12q2 0 2 -2q0 -5 -8 -18zM120 114q-2 -4 -3 -4q-3 0 -3 4l3 6q3 -3 3 -6zM89 112l-1 -1v-1l-2 2q0 1 2 3v-1z" />
    <glyph glyph-name="I" unicode="I" horiz-adv-x="565" 
d="M584 45q-9 3 -11 3q-1 0 -12 -7.5t-20 -7.5q-5 0 -14.5 4t-16.5 4q-9 0 -28 -6t-29 -6q-1 0 -3.5 0.5t-4.5 0.5q-7 -5 -26 -5q-4 0 -28 -7t-33 -7q-4 0 -8 4.5t-6 4.5q-1 0 -2.5 -0.5t-2.5 -0.5t-5 0.5t-6 0.5q-6 0 -21 -8t-23 -8t-21 -5t-20 -5q-2 0 -6 1t-6 1
q-5 0 -16 -7.5t-20 -7.5q-2 0 -6.5 0.5t-7.5 0.5q-7 0 -46.5 -10.5t-48.5 -16.5q-7 -4 -16 -6.5t-21 -4.5t-17 -3q-24 0 -40 9q-42 43 -42 54q0 6 8.5 11t24.5 10t21 8q19 8 63.5 15t66.5 20q0 71 11 156q1 11 8 34t7 27q0 2 -2.5 12.5t-2.5 17.5t7.5 17.5t7.5 13.5t-3 9.5
t-3 10.5q0 11 18 33q-9 18 -9 33q0 6 2 19t2 20q0 3 -1.5 10t-1.5 10q0 5 6 14.5t6 15.5q0 36 -6.5 44t-30.5 10q-12 1 -32 2t-26.5 1t-18.5 1.5t-16.5 4t-12 6.5t-12 10t-10.5 15q-1 1 -4.5 10.5t-7 21.5t-3.5 17q0 17 12 17t74 -5q8 2 13 2q10 0 27 -4t25 -4q4 0 10.5 2
t9.5 2t11 -2t11 -2q7 0 21.5 2t21.5 2q12 0 34.5 -2.5t33.5 -2.5q6 0 17 2.5t16 2.5q6 0 17.5 -4.5t17.5 -4.5q5 0 15 1t14 1q13 0 36.5 -4t34.5 -4q1 0 4.5 0.5t5.5 0.5q35 0 46 -24q0 -18 -10.5 -32.5t-28.5 -14.5q-6 0 -21 1.5t-19 1.5l-6 -8q-6 -7 -19 -7q-19 0 -36 4
q-5 1 -10 8t-7 7l-21 -12q-21 -11 -38 -11q-9 0 -13 1q-6 0 -6 -12q0 -16 2 -49t2 -54q0 -42 -10 -57q-1 -1 -3 -8.5t-4 -17.5t-2 -15t3 -9l-3 -6l-33 -34q0 -3 4.5 -8t4.5 -6t-5 -8.5t-5 -12.5q0 -6 12 -33q-17 -26 -19 -44q-1 -6 -8 -19t-7 -14q0 -17 -3 -27v2
q10 -5 10 -16q0 -2 -0.5 -5t-0.5 -5q0 -7 14 -7q1 0 4.5 0.5t5.5 0.5q5 0 14 -4.5t15 -4.5q67 7 80 11q28 7 141 14q9 0 25.5 2.5t24.5 2.5q6 0 18 -7t14 -17q0 -3 12.5 -7t12.5 -9q0 -8 -14 -16t-14 -9q0 -4 10 -10t10 -11q0 -8 -12 -8q-8 0 -12 7h2zM439 588l-5 2.5
l-5 2.5t-4 1q-3 0 -3 -5q2 -2 3 -2q3 0 7.5 0.5t6.5 0.5q0 1 -1 2q0 -2 1 -2zM239 307q-3 8 -5 8q-6 0 -6 -5q0 -3 11 -3z" />
    <glyph glyph-name="J" unicode="J" horiz-adv-x="493" 
d="M370 290q9 -3 9 -6q0 -12 -6.5 -31.5t-16.5 -30.5q0 15 -6 15l-1 -2q0 -2 3.5 -5.5t3.5 -6.5q0 -1 -1 -5t-1 -5q0 -6 5.5 -9t8.5 -9q-1 -7 -2 -24.5t-3.5 -30.5t-8.5 -21q-1 -1 -1 -4q0 -12 -3.5 -23t-11 -26t-9.5 -21q-1 -1 -1 -3q1 -3 3 -7t3 -7q-1 -5 -7 -15t-7 -16
q0 -4 -6 -10t-16 -15t-13 -12q-2 0 -7.5 0.5t-8.5 0.5q-6 -6 -14.5 -16.5t-14 -15t-15.5 -5.5q-9 -1 -35.5 -9t-38.5 -8q-4 0 -12.5 8.5t-14.5 17.5l-7 9q-4 0 -10 3t-10 5.5t-5 2.5t-6 -6t-8 -6q-1 0 -10 14t-27 14l-3 2q-3 2 -7.5 5.5t-9.5 8t-8 10t-3 11.5t7.5 18.5
t16.5 12.5q5 0 13.5 -4.5t13.5 -4.5q10 0 36.5 -27.5t41.5 -27.5q1 0 6 -2.5t13 -5.5t15 -4q3 2 16.5 6.5t23 9.5t9.5 12q0 9 11.5 27.5t14.5 25.5q7 3 11 14.5t6 13.5q8 8 13.5 49.5t18.5 47.5q6 3 7.5 12t1.5 17t2 8q0 -1 -1 -1l-8 16q0 3 5.5 11t5.5 12q0 2 -2 8t-2 8v2
l1 2q5 9 7 55q-2 6 -2 7q0 6 5.5 14t5.5 13q-4 13 -4 30q0 11 2.5 33.5t2.5 33.5q0 9 -3 18q2 18 3 26q0 1 -5 5.5t-5 9.5q2 26 2 40q0 3 -0.5 8t-0.5 7q0 5 0.5 14.5t0.5 15.5q0 22 -8 22q-3 0 -7.5 -3t-6.5 -3q-15 -3 -27.5 -10t-20.5 -8l-12 -9q-11 -9 -28 -18t-31 -9
q-13 0 -59 -16.5t-68 -16.5q-48 0 -48 31q0 14 8 14q4 0 10.5 -7t11.5 -7q16 0 48.5 15t52.5 30q13 1 47.5 25.5t57.5 30.5q17 4 45 21.5t34 20.5q4 2 13 8.5t16.5 11t12.5 4.5q4 0 10 -3q3 -2 29.5 -15t36.5 -23.5t10 -24.5q0 -10 -9 -33.5t-9 -38.5q0 -11 -4.5 -28.5
t-4.5 -26.5q0 -6 3 -17t3 -17q0 -13 -7 -37.5t-7 -37.5q0 -18 -12 -21q-5 -2 -9 -10.5t-6.5 -22.5t-4 -26t-3 -27t-2.5 -20q-10 -5 -10 -12q0 1 1 2v-1q1 1 2.5 3t3 4.5t2.5 3.5zM264 34q-1 -2 -1 -4q2 0 2 2q0 1 -1 2zM118 -38l3 1q-3 0 -3 -2q0 9 -5 12q-1 0 -3.5 -0.5
t-3.5 -0.5q4 -9 8 -9q2 -1 4 -1zM396 471q0 3 1 7q0 5 1 7q0 4 -2 4q-3 0 -3 -4q0 -2 3 -14zM331 225q-5 -5 -5 -8q0 -2 2 -2q5 2 5 5q0 1 -1 2.5t-1 2.5zM40 13q-2 2 -3 2q-2 -2 -2 -3q0 -4 3 -4q2 4 2 5zM359 312l2 -3l1 3h-3z" />
    <glyph glyph-name="K" unicode="K" horiz-adv-x="508" 
d="M402 602q5 2 10.5 7t10 13.5t7.5 14t7.5 15.5t5.5 12q3 6 6.5 10.5t6.5 6t10.5 5.5t13.5 8q4 -2 13.5 -6.5t12 -6.5t9 -6.5t8 -8t3.5 -10t2 -14.5q0 -9 -15.5 -28t-18.5 -28q-3 -6 -13 -12.5t-10 -9.5q-3 -10 -8 -24.5t-22.5 -41.5t-37.5 -32q-12 -3 -26.5 -24t-26.5 -26
q1 0 -12 -14.5t-27 -30.5t-15 -19q-3 -11 -21.5 -28t-18.5 -29q0 -3 2 -7q51 -117 103 -159q9 -9 37 -26t45 -17q11 0 15 -4.5t4 -14.5q0 -28 -50 -28q-34 0 -80 26.5t-77 60.5q-9 10 -26 32.5t-30 38.5t-18 16q-3 0 -7 -15.5t-4 -22.5t3 -25.5t3 -30.5q0 -3 -1.5 -10
t-1.5 -11q0 -2 0.5 -5t0.5 -5h1q-5 -3 -5 -7t5 -9h-1q6 -16 6 -37q0 -25 -7 -31q-6 -6 -7 -20t-9 -19q-2 -2 -3.5 -10.5t-7.5 -13.5q-6 2 -20 6t-27.5 27.5t-13.5 38.5q0 51 -5 154t-5 154q0 27 1.5 82.5t1.5 83.5q0 6 -4 20t-4 24q0 12 6.5 33.5t6.5 31.5q0 24 8.5 70
t8.5 69q0 25 13 47q56 -4 80.5 -25.5t24.5 -65.5q0 -12 -7 -33t-7 -29q0 -7 -6.5 -33t-6.5 -55q0 -8 -7 -31t-7 -28q0 -2 0.5 -6.5t0.5 -6.5q0 -11 -2.5 -32t-2.5 -27q0 -32 28 -32q18 0 46 35t35 39q4 2 16.5 18.5t31 39t32.5 36.5q19 18 40 56zM121 552h1l2 1q1 0 4 -1.5
t4 -1.5q2 0 2 5q0 4 -2 4q-4 0 -11 -7zM161 401q-8 0 -8 -4q0 -3 2.5 -5t3.5 -2q3 2 3 3q0 3 -2 9q6 4 6 12q0 4 -2 6q-3 -4 -3 -19zM119 138h-1q0 1 0.5 3t0.5 3q0 4 -5 6q-6 0 -6 -7q0 -6 5 -6q1 0 3 0.5t3 0.5zM123 223q0 2 -1 15t-2 23.5t-3 10.5q-11 0 -11 -12
q0 -3 3 -10t3 -10q0 -6 -3 -18t-3 -17t4.5 -16t9.5 -11q3 3 3 23v22zM168 230q-6 37 -16 37q-4 -4 -4 -10v2l2 -9q1 -8 4.5 -17.5t8.5 -11.5q2 0 2.5 1.5t1 4t1.5 3.5zM132 360q3 3 3 8q0 6 -3 13q-3 -3 -3 -12q0 -5 3 -9zM112 414l-2 2q-8 0 -8 -2q0 -3 4 -3zM120 361l-2 2
q-3 0 -3 -2q0 -4 2 -4q3 0 3 4zM117 113l1 -3l1 2zM155 107l-1 -2q0 -3 2 -3q1 0 2 2q0 3 -3 3zM142 73q0 2 -3 2q0 -1 1 -3q1 0 2 1zM162 203l1 -3l1 2zM118 442l-1 -3h2z" />
    <glyph glyph-name="L" unicode="L" horiz-adv-x="492" 
d="M488 135q4 -9 4 -19q0 -14 -6.5 -23t-21.5 -13.5t-24 -6.5t-31 -3.5t-26 -1.5q-1 0 -5.5 -3t-7.5 -3q-2 0 -6.5 1.5t-7.5 1.5q-4 0 -28 -10.5t-38 -10.5q-24 0 -72.5 -17.5t-71.5 -19.5q-21 0 -48.5 13.5t-27.5 27.5q0 5 7.5 12t7.5 13q0 12 -3.5 37.5t-3.5 38.5
q0 5 1.5 15t1.5 15q0 11 -1.5 33t-1.5 34q0 6 0.5 20t0.5 20q0 9 -4.5 27.5t-4.5 26.5q0 14 2.5 41t2.5 40q0 11 -2.5 34t-2.5 35q0 42 11 126q0 4 -2 13t-2 13q0 10 2.5 31t2.5 32q0 15 27 25.5t52 10.5q12 0 20.5 -9t8.5 -24q-1 -6 -1 -16q0 -16 4 -47t4 -45
q0 -27 -3.5 -82.5t-3.5 -81.5q0 -5 1 -12t1 -11q0 -5 -2.5 -16t-2.5 -17q0 -4 2 -11.5t2 -12.5t-1.5 -15.5t-1.5 -16.5q0 -5 -6.5 -15t-6.5 -16l8 -19q8 -20 8 -44q0 -10 -0.5 -26.5t-0.5 -24.5q0 -70 16 -70q31 5 90.5 19.5t66.5 16.5q7 1 22.5 5.5t27.5 6.5t23 2t18 -3
t16 -10t18 -11zM162 244q3 4 3 9q-2 8 -3 8q-5 0 -7 -6q0 -11 7 -11zM166 338q2 10 3 13q-1 2 -1.5 4t-0.5 4t-1 3t-2 1q-9 0 -9 -13q0 -15 9 -15q2 0 2 3z" />
    <glyph glyph-name="M" unicode="M" horiz-adv-x="696" 
d="M624 -4q2 -50 2 -70q0 -4 -3 -5q-8 -4 -17 -25.5t-21 -21.5q-7 0 -17 9.5t-13 18.5q0 1 1 1v-1q0 9 -7 30q1 4 1 12q0 11 -6.5 30.5t-6.5 29.5q0 3 4.5 11t4.5 13q0 2 -1 7.5t-1 7.5q0 13 7 30t7 23q0 1 -6.5 22t-6.5 43q0 2 5.5 16t5.5 24l-5 3q-5 4 -9.5 12.5
t-4.5 20.5q0 14 -5 39t-5 38q0 4 1 11t1 10q0 30 -9 102q-3 23 -5.5 65.5t-3.5 57.5q-12 94 -30 94q-7 0 -12 -13q-3 -6 -13 -10t-11 -5q-2 -5 -5 -20t-8 -22q-1 -4 -1 -12.5t-0.5 -14t-3 -11t-7.5 -7.5q-10 -5 -19 -40.5t-9 -44.5q0 -4 1 -6q-3 -11 -11 -37t-11.5 -36
t-11.5 -27.5t-16 -24t-21 -12.5t-30 -6q-16 0 -27 7q-15 6 -39 36t-24 46q0 1 0.5 4t0.5 5q0 9 -9 20q-21 -21 -21 -88q0 -4 0.5 -12.5t0.5 -12.5q0 -6 -0.5 -17t-0.5 -17q0 -19 -12 -27t-12 -18q0 -7 13 -18t13 -26q0 -3 -2.5 -8t-2.5 -8q0 -4 2.5 -10t2.5 -8q0 -7 -8 -19
l1 -1l-2 2q1 -2 4.5 -5.5t3.5 -6.5q0 -2 -3 -6t-3 -6t2.5 -7t2.5 -7q-3 -5 -3 -9q0 -3 4 -8t4 -6q0 -6 -4 -10t-4 -6t1.5 -6.5t1.5 -6.5q0 -5 -4.5 -14.5t-4.5 -13.5q-7 -2 -17 -17.5t-19 -15.5q-15 0 -24 24t-12 26q-6 6 -6 25q0 25 -8 71.5t-8 64.5q0 8 5 18q0 1 -0.5 3
t-0.5 3q0 5 1.5 14.5t1.5 13.5t-1 12t-1 11q0 4 1.5 12t1.5 12q0 8 -2.5 22t-2.5 21q0 27 14 46q-6 10 -6 16t5.5 14.5t10.5 14.5l5 6q0 2 -4.5 8t-4.5 10q0 27 8.5 87t8.5 102q0 4 -3 10.5t-3 9.5q0 7 13 31q20 34 48 34q18 0 25 -5.5t7 -20.5q1 -20 15.5 -58.5t17.5 -55.5
q2 -8 8 -21t7 -21q2 -9 15 -33.5t13 -37.5q0 -32 19 -32q4 0 5 3q13 21 54 96t69 114q4 9 17.5 21t17.5 21q5 11 21.5 23t19.5 15q12 -4 19 -4q2 0 6 1t6 1q20 0 24 -11q0 -1 -3 -10h1q0 1 -1 1q8 2 11 3q12 0 21 -15t9 -27q0 -2 -0.5 -6.5t-0.5 -5.5q0 -6 8.5 -14.5
t8.5 -12.5q0 -3 -12 -24q3 -3 9 -8.5t7.5 -8t3.5 -7.5t2 -13q0 -6 -1.5 -16t-1.5 -15q0 -6 1.5 -19t1.5 -20q0 -9 -6.5 -29.5t-6.5 -35.5q0 -9 4 -23t4 -21q0 -4 -2.5 -12t-2.5 -14q0 -7 1 -20t1 -21q0 -4 -3 -13.5t-5 -9.5t-4 0.5t-3 0.5q-3 0 -3 -29q0 -12 0.5 -30.5
t0.5 -28.5q0 -9 4.5 -22t4.5 -15q0 -6 -1 -19t-1 -19q0 -5 1.5 -14.5t1.5 -14.5q0 -8 -1 -24t-1 -25q12 0 27 24v-26q0 -2 -14 -17t-14 -21q0 -2 1.5 -6t1.5 -6q0 -3 -1 -9t-1 -9q0 -8 3 -8q1 0 3.5 2.5t3.5 2.5t3.5 -2t3.5 -2zM595 602l1 1v2t-4 5q2 -8 3 -8zM592 390
q-2 -12 -2 -15q0 -6 4 -13q0 4 0.5 10t0.5 8q0 1 -3 10zM89 332q2 -4 5 -4q4 0 4 4q0 5 -4 5q-5 0 -5 -5zM99 233q2 0 5 3l-1 3q-7 0 -7 -5l2 -2zM102 258q6 0 6 9q0 3 -4 7q-2 0 -5.5 -4.5t-3.5 -6.5q0 -5 7 -5zM119 390q2 8 2 10l-2 2l-1 -1q-1 -1 -1 -2q0 -2 1 -5t1 -4z
M126 295h1h-1zM132 297q2 0 2 1t-1 2q0 -1 -2 -3h1zM135 352l1 2v2l-2 14q-1 -6 -1 -12q0 -2 2 -6zM164 401q-2 -2 -2 -3v-1q1 -1 1 -2l2 2l-1 1v3zM151 245q1 0 1 2q-1 1 -1 2v-4zM148 289q18 23 18 48q0 1 -1 2q-2 2 -2 3l1 1q0 9 -5.5 14.5t-5.5 15.5v11q0 14 -5 15
q-2 -9 -2 -27q0 -9 0.5 -25t0.5 -24q0 -15 -1 -23q0 -1 1 -5t1 -6zM549 344q0 5 -2 5v-3q0 -2 2 -2zM577 523q-2 -2 -2 -3q0 -2 2 -6q2 0 2 4t-2 5zM572 366l-2 -2q1 -3 4 -9q0 -1 -0.5 -5t-0.5 -7q0 -1 3 -3q3 4 3 6q0 20 -7 20zM569 283l-2 -5q6 -6 6 -11q0 -2 -1.5 -5.5
t-1.5 -4.5q0 -3 4 -3q2 0 3.5 3.5t2.5 9t2 6.5q-2 12 -8 12q-3 0 -5 -2zM571 227q-2 -2 -2 -5q0 -4 8 -7q2 4 2 6q0 7 -4 7t-4 -1zM587 103q0 1 -1 1q2 16 2 25q0 12 -12 12q-5 0 -5 -26q0 -8 4 -23.5t7 -17.5q5 2 5 29z" />
    <glyph glyph-name="N" unicode="N" horiz-adv-x="595" 
d="M331 465q0 -2 -0.5 -4.5t-0.5 -3.5q0 -5 6 -6q7 -3 9.5 -13t3 -18.5t3.5 -8.5q1 0 4 1l2 1q13 0 19 -42q2 -13 16 -29t14 -24q0 -5 10.5 -19.5t14.5 -14.5q5 0 8.5 10.5t3.5 14.5q0 1 -2.5 5t-2.5 9q6 18 6 42q0 1 -4.5 6t-4.5 9q0 9 3 27.5t3 27.5q0 6 7.5 11t7.5 6
t-1 2l-4 4t-6 7q2 37 15 129t13 146q0 17 40 17q31 0 31 -35q0 -30 -11 -91t-11 -91q0 -20 -13 -40t-13 -30q0 -7 -9.5 -24.5t-10.5 -24.5q14 8 15 8q3 0 3 -4q-5 -15 -5 -28q0 -6 3.5 -17t3.5 -17l-1 -3q0 -3 -2.5 -6.5t-5.5 -3.5q-7 0 -7 20q-5 -2 -5 -7q0 -1 0.5 -2.5
t0.5 -2.5q0 -7 -6.5 -14t-6.5 -10q2 -1 7.5 -3t8 -3.5t2.5 -4.5q0 -2 -1 -3q-5 -5 -7 -32q0 -4 3 -7q15 -15 15 -76q0 -15 6.5 -41t6.5 -39t-3.5 -33.5t-3.5 -30.5q0 -3 0.5 -11t0.5 -11q0 -15 -10.5 -22t-32.5 -15q-18 22 -28 61q-3 9 -15 38t-14 42q0 3 -6.5 15.5
t-6.5 22.5q0 4 -10.5 18t-16.5 16q1 0 -1.5 5l-6.5 13t-9 17.5t-10.5 18.5t-9.5 14q-1 1 -4.5 6t-6 8.5t-6.5 10.5t-6 14t-4 17t-2 20q0 1 0.5 3.5t0.5 3.5q0 10 -9 10q-2 0 -6 -2.5t-5 -2.5q-10 0 -21 55t-21 55q-1 0 -9 -8q-1 2 -6.5 13.5t-11 19.5t-9.5 8q-8 0 -17 -26.5
t-9 -46.5q0 -7 6 -27t6 -32q0 -13 -6 -27t-6 -17q0 -1 3 -5.5t6 -13t3 -18.5q0 -13 -5 -30.5t-5 -25.5q0 -7 6 -25t6 -27q0 -3 -5 -12t-5 -15q0 -2 0.5 -8t0.5 -8q0 -7 -8 -14t-8 -12q0 -1 8 -21.5t8 -50.5q-1 -3 -2 -7.5t-5.5 -16.5t-9 -21.5t-11.5 -17t-15 -7.5
q-22 0 -35 31t-13 52q0 9 4.5 26t4.5 24q0 6 -5 18.5t-5 20.5q0 6 3 16.5t3 15.5q0 32 -10 68l-9 27q0 6 8 14t8 15q0 22 -3 45q0 3 -4 10.5t-4 11.5t6 11.5t6 13.5q0 2 -0.5 5.5t-0.5 6.5q0 4 2.5 10t2.5 9q0 6 -3.5 21t-3.5 23q0 7 3 21.5t3 21.5q0 4 -2 13t-2 13
q0 2 0.5 4t0.5 4q2 17 5.5 49t7 58t8.5 49q0 8 23 18t36 10q10 0 15 -6t9.5 -16t9.5 -15q38 -39 51 -82q4 -13 14 -35.5t17.5 -39.5t7.5 -19q1 0 7 2q9 0 9 -10q0 -1 -1 -5t-1 -6q0 -1 2 -3q8 -3 11.5 -19t12.5 -19zM140 336q0 -2 1 -7t1.5 -9.5t2 -9t3.5 -7t5 -2.5
q10 0 10 13q-3 36 -6 43q-10 -10 -17 -21zM153 160q-1 12 -4 18q-9 -4 -9 -24q0 -6 7 -9q3 3 4 8.5t2 6.5zM139 423v-16q0 -14 2 -14q3 3 3 12t-5 18zM117 459q11 3 11 13q0 8 -7 8q-6 0 -6 -7q0 -4 2 -14zM120 436q2 -1 4.5 1t2.5 6q0 3 -5 3q-4 0 -4 -5q0 -3 2 -5z
M125 383q-4 4 -5 4t-2 -1l-1.5 -1.5t-1.5 -0.5q0 -11 3 -11q2 0 4.5 4t2.5 6zM165 197q0 4 -2 4q-3 0 -3 -4t3 -4q2 0 2 4zM106 258q0 2 -3 6q-2 -4 -2 -6l1 -2v-2q4 0 4 4zM503 565q-3 0 -3 -3q0 -2 2 -2q1 0 2 2v1q-1 1 -1 2zM119 333l-1 3l-1 -2zM118 305l2 1q0 3 -1 3
q-3 -1 -3 -2zM482 395q-1 1 -3 4q-2 0 -2 -2q0 -1 0.5 -3t0.5 -3zM164 227q-2 -2 -2 -3v-1q1 -1 1 -2l2 2q0 1 -0.5 2t-0.5 2zM503 534l-1 3l-2 -3h3zM332 464q1 2 4 5q0 -5 -1 -5t-2 0.5t-2 0.5z" />
    <glyph glyph-name="O" unicode="O" horiz-adv-x="615" 
d="M501 605q0 -4 15.5 -29.5t18.5 -41.5q3 -15 22 -72q-9 -17 -9 -33q0 -3 6.5 -27t6.5 -38q0 -3 -0.5 -9t-0.5 -9q0 -7 2 -19q-2 0 -3 -1l2 2q4 -4 4 -9t-2 -7q-3 -4 -5.5 -18t-6 -25.5t-7.5 -11.5q1 -1 1 -3q-1 1 -2 1l2 1q-1 -14 -5 -36t-18 -57.5t-34 -61.5
q-19 -50 -77.5 -84t-112.5 -34q-44 0 -86 21q-12 6 -33 26.5t-33 28.5q-12 2 -34.5 47.5t-32.5 54.5l-5 13q-6 14 -12 33t-6 28q0 4 1 10.5t1 9.5q0 6 -3.5 21.5t-3.5 24.5q0 3 0.5 7t0.5 7q0 6 -1 18t-1 18q0 150 60 254q3 5 16 29t18.5 32.5t18.5 23.5t27.5 20.5t32.5 5.5
q4 0 12.5 -1.5t12.5 -1.5q10 0 41 8t48 8q46 0 87 -20q3 -2 15 -16.5t19 -15.5q22 -20 28.5 -30t8 -20.5t6.5 -21.5zM245 96q-1 0 -1 1t-1 2l-2 -1q0 -2 2 -2q1 0 2 1q0 -3 2 -5q1 1 1 2zM268 87q10 0 38 -10t38 -10q12 0 24 6q63 30 106 112.5t43 161.5q0 77 -11 108
q-3 7 -4 25t-6 27q-1 1 -1 3t1 5.5t1 4.5q0 19 -31 61t-36 52q-1 3 -15.5 13t-18.5 15q-7 9 -24 13.5t-22 9.5q-15 11 -43 11q-8 0 -41.5 -41.5t-40.5 -62.5q-4 -13 -25 -58t-24 -67q-2 -11 -11.5 -42t-9.5 -48q0 -3 2 -8.5t2 -7.5q0 -3 -0.5 -7.5t-0.5 -6.5q0 -10 4 -29.5
t4 -28.5q0 -4 -1.5 -9.5t-1.5 -7.5q0 -5 8 -17.5t8 -21.5q0 -2 -1 -6t-1 -6q0 -1 4 -8t9.5 -16t7.5 -13q10 -21 37 -52.5t34 -42.5l-2 -2l-1 1v1h1zM534 505q-1 1 -3 1t-3 1q0 -4 2 -4t4 2zM180 161l2 1q0 2 -1 2q-2 0 -2 -1t0.5 -1t0.5 -1zM501 604l-1 1l1 2v-3z" />
    <glyph glyph-name="P" unicode="P" horiz-adv-x="574" 
d="M207 248l6 3q10 -4 27.5 -15.5t27.5 -15.5q-4 -4 -7 -5t-8 -1.5t-10 -1.5v1q-16 -20 -24 -20q-3 0 -10 10t-17 10q-24 0 -24 -27q0 -9 3 -13q2 -5 4 -26t8 -32q10 -18 10 -65q0 -32 -5 -49t-11.5 -20t-11.5 -8.5t-5 -17.5q0 -11 -9 -11q-2 0 -5 2.5t-6.5 7t-4.5 5.5
q-23 -10 -27 -10q-7 0 -15.5 10t-8.5 19q0 6 2 18.5t2 18.5q0 5 -2.5 15t-2.5 16q0 5 1.5 19t1.5 21q0 18 -9 38q-7 15 -7 103q0 9 3 28t3 28q0 16 -1 49t-1 49q0 14 10 40.5t10 39.5q-2 22 -2 23q0 11 8 38q0 2 -0.5 6t-0.5 7q3 17 7.5 51t7.5 50q1 4 1.5 15t2 15t5 10.5
t11.5 9t21 2.5q23 0 29 -10t6 -40q0 -12 -1.5 -36t-1.5 -36q0 -6 -5 -20t-5 -22q0 -19 6.5 -56.5t6.5 -46.5q0 -3 -4 -18.5t-5 -22.5q-1 -8 -7.5 -25.5t-6.5 -21.5q0 -31 10 -40q1 0 8.5 -7.5t15 -18.5t7.5 -18q-1 0 -2 1h2q-1 0 -1 -2zM93 315q0 -1 -1 -4t-1.5 -5t-0.5 -3
q0 -2 2 -2h2.5t0.5 3q0 2 -1.5 5l-2.5 5h3q0 -1 -1 -1v2zM122 339q7 1 16 34.5t9 48.5q0 19 -4 19q-8 0 -8 -10q0 -3 2 -7.5t2 -6.5q0 -5 -9 -27.5t-9 -34.5q0 -3 0.5 -11t0.5 -11v6zM92 201q-2 0 -2 -2v-1l1 -2l2 2l-1 1v2zM418 296q-6 -17 -16 -17q-1 0 -3.5 0.5t-3.5 0.5
q-13 0 -27.5 -10t-23.5 -20.5t-10 -10.5q-3 0 -16 8q2 7 11.5 13.5t23.5 13.5t20 11q8 5 28.5 23t20.5 22q0 5 -6 5q-2 0 -4.5 -1t-3.5 -1q-3 0 -6 6.5t-3 11.5q2 0 6 1h4q0 1 -1 1q-8 0 -10 -8t-6 -8t-4 5q0 6 4 16q22 38 35 94t13 106q0 6 -1.5 19t-5.5 31.5t-12.5 32
t-20.5 13.5q-7 0 -16.5 -6.5t-16.5 -6.5q-6 -2 -15 -6.5t-25.5 -20t-23.5 -36.5q-3 -6 -26.5 -27t-35.5 -21q-4 0 -6 -2t-2 -4.5t-0.5 -5.5t-2.5 -5q-4 0 -4 20q0 11 16.5 33t32.5 31q1 0 5 9t11 20.5t14 16.5q5 2 9 11q4 7 17.5 13t18.5 12h-2q2 2 10 8.5t13.5 10.5t13.5 8
t14 4q2 0 5.5 -1t5.5 -1q3 0 8 2t7 2t6 -2t5 -2q3 0 8.5 4t7.5 4q10 0 14 -9t12 -9q1 0 5 0.5t6 0.5q3 -5 14 -19t17.5 -24.5t6.5 -17.5q0 -1 -1 -4.5t-1 -6.5t4.5 -8t4.5 -9q0 -10 -3 -30.5t-3 -29.5q0 -1 0.5 -5t0.5 -6q0 -12 -8 -37t-8 -35q0 -3 1.5 -8.5t1.5 -8.5
q-2 -20 -21.5 -52.5t-21.5 -38.5l2 1q0 -34 -16 -34q-4 5 -5.5 15t-3 17.5t-4.5 7.5q-10 0 -10 -22q0 -4 1.5 -11.5t1.5 -11.5t-2.5 -8.5t-5 -6.5l-7.5 -6t-6 -5q0 10 -5 10q-7 0 -14 -5l2 -1l-2 2q6 -5 19 -5zM304 211q5 0 11 5t7 5q5 0 5 -6t-11 -6q-2 0 -6.5 1t-5.5 1z
M276 193q0 -9 -8 -9q-9 0 -10 5q0 10 9 10q3 0 9 -6zM294 188q0 3 4 9v-1zM298 196q1 1 1.5 5t1.5 6.5t4 3.5q-3 -9 -7 -15zM292 188q0 1 1 2l-2 -1q1 -1 3 -1h-2zM350 679l1 1l-2 -1h1z" />
    <glyph glyph-name="Q" unicode="Q" horiz-adv-x="577" 
d="M466 633q10 0 10 -100q12 6 17 6q8 0 14 -7t9.5 -21.5t6 -29t3 -37.5t1 -38.5t0.5 -40.5q0 -3 -2.5 -15.5t-2.5 -19.5q0 -4 1.5 -14t1.5 -15q-3 -26 -10 -53t-18 -59.5t-16 -48.5q-1 -2 -20 -33t-19 -50q0 -22 27 -50t32 -45q-13 -22 -25 -22q-16 0 -47 35.5t-37 35.5
q-7 0 -20 -12t-24 -12q-8 0 -23 -12q-9 0 -28 -3.5t-29 -3.5q-20 0 -57 13q-5 1 -14.5 7.5t-14.5 8.5q-42 12 -65 47q-1 2 -4 7t-5 7.5t-5.5 6t-7.5 4.5q-43 56 -43 125q0 5 0.5 15.5t0.5 15.5q0 10 -1.5 28.5t-1.5 28.5q0 9 3 24.5t3 23.5q0 6 -2.5 16.5t-2.5 15.5
q0 16 9.5 49.5t9.5 51.5q0 20 16 68t35 80q2 3 10.5 20t16 31.5t19 27t20.5 12.5t31 -7t33 -7q10 0 26.5 -2.5t24.5 -2.5q2 0 5.5 1.5t5.5 1.5q4 0 11 -3.5t10 -3.5q3 2 8 7t8 7q5 0 5 -4q-2 -8 -2 -10q0 -7 4 -15t8 -8t8.5 6t11 15.5t6.5 10.5l1 -3q1 0 1 2h-3q9 6 12 6
q11 0 22 -22q-10 0 -10 -4q0 -5 5 -10t10 -5q3 0 3 2q-4 2 -6 2q-1 0 -7 -2l3 18q17 0 25 -16.5t19 -22.5q-10 -10 -10 -26q0 -19 7 -19q4 0 4 10q0 4 -1.5 12.5t-1.5 12.5t2 10zM458 515q0 5 3 16.5t3 15.5q0 3 -1 4q-13 13 -17.5 29t-9 24.5t-20.5 10.5l-2 -2l3 2
q-3 -6 -3 -13q0 -5 2 -16t2 -18q-4 9 -15 21.5t-13 21.5q0 1 -5 6.5t-12 11t-11 5.5q-6 0 -24 10.5t-47 10.5q-39 0 -88 -118q-27 -62 -27 -72q0 -1 0.5 -3t0.5 -4q0 -4 -2.5 -13t-2.5 -14q0 -9 -0.5 -36.5t-1.5 -42.5q-1 -11 -6 -30t-5 -28q0 -3 0.5 -8.5t0.5 -9.5
q0 -5 -1 -13t-1 -12q0 -99 35 -129h-1q0 -5 10 -19.5t33 -29.5t49 -15q12 0 34 11.5t22 25.5q0 4 -1 5q-3 9 -8 16.5t-7.5 13t-2.5 15.5q25 11 27 11q6 0 18 -7.5t16 -7.5q19 0 44.5 67.5t25.5 118.5q0 15 11 45.5t11 50.5q0 14 -10.5 41t-10.5 40q0 6 5 11zM504 485
q0 -1 -0.5 -3.5t-0.5 -3.5q0 -7 3 -7q4 0 4 4q0 16 -4 16q-3 0 -3 -3l1 -1v-2zM98 271q-1 2 -1 5.5t-2 5.5q-5 0 -5 -8q0 -2 1 -5t2 -5q1 1 2.5 3.5t2.5 3.5zM92 318q0 -2 -2 -10l3 -6q1 1 2 2.5t2 2.5q0 11 -5 11zM94 351q2 4 2 8q0 1 -2 5q-2 -4 -2 -6q0 -3 2 -7zM433 638
l-6 3l-2 -2q1 -1 2 -2.5t2 -2.5q4 0 4 4zM113 319q0 4 -2 4t-2 -3q1 -2 2 -2t2 1z" />
    <glyph glyph-name="R" unicode="R" horiz-adv-x="534" 
d="M165 356q10 -7 15 -21q18 14 25 43t12 36q6 9 12 48t14 47q5 5 8 23t10 26q4 5 8 24t13 26q10 8 21 28t21 28q4 3 17.5 18.5t27.5 22.5t37 7q32 0 69 -45q0 -11 3 -37t3 -38q0 -10 -2.5 -32.5t-2.5 -34.5q0 -7 -7.5 -21t-7.5 -23q0 -15 -7 -18.5t-8 -7.5q0 -5 -13.5 -32
t-16.5 -40t-20 -33.5t-19 -28.5q-3 -15 -32 -30.5t-29 -29.5q0 -4 22 -30q5 -7 27 -50.5t41 -59.5q5 -4 9 -16t8 -16q10 -10 23 -36t25 -36q3 -3 4.5 -12t3.5 -12q4 -7 13 -19.5t16 -21.5l6 -10q0 -6 -4.5 -13t-4.5 -9t2 -8t2 -9q0 -9 -6.5 -15t-16.5 -6q-6 0 -18 2
q-9 2 -35.5 26.5t-32.5 36.5q-2 9 -14 23t-15 20q-9 16 -60 94q-59 89 -71 89q-3 0 -8.5 -20.5t-5.5 -35.5q0 -5 1 -8q0 -2 -0.5 -4.5t-1.5 -5.5t-1 -5q-26 -126 -47 -126q-18 0 -21 -3q-40 3 -41 3q-44 9 -44 117q0 7 3 21.5t3 21.5q0 5 -2.5 16t-2.5 17q0 12 3.5 31.5
t3.5 26.5q0 3 -4.5 14.5t-4.5 18.5q1 15 4.5 58.5t3.5 64.5q0 6 -1.5 17t-1.5 16q0 3 1 9t1 8q0 6 -3 20.5t-3 21.5q0 90 12 149q4 22 2 39.5t4 28t27 10.5t40.5 -17.5t19.5 -37.5q0 -27 4 -75.5t4 -73.5q0 -14 -3.5 -33.5t-3.5 -26.5q0 -5 1 -16t1 -18q0 -23 -14 -40
q2 16 3 25q0 3 -2 3t-3 -1q1 -4 1.5 -13.5t0.5 -13.5zM403 599q0 1 -0.5 8t-1 11.5t-2 10.5t-5 9t-8.5 3q-8 0 -17.5 -11t-22 -30.5t-14.5 -21.5q-10 -13 -17.5 -53t-19.5 -59q-3 -5 -3 -10q-3 -20 -21 -76q-3 -5 -6.5 -10t-5 -8t-1.5 -8q0 -24 10 -24q5 0 12.5 3.5t17 8.5
t12.5 7q2 7 15 9.5t13 10.5q0 1 -0.5 4t-0.5 5q0 10 9 27t9 24q1 10 14 32t16 36q0 8 3 14q6 14 15 88zM362 358q1 2 3 4t2 4q-7 0 -7 -4q0 -2 -1 -3q2 -1 3 -1z" />
    <glyph glyph-name="S" unicode="S" horiz-adv-x="517" 
d="M387 122v1v-1zM399 148q0 1 -1 1q1 0 1 -1zM361 82l-1 -1zM635 324q2 0 2 -6q0 -5 -10.5 -14t-16.5 -9q-4 0 -11 1.5t-10 1.5q-28 0 -50 -9.5t-61 -36.5q-1 -1 -5.5 -15.5t-10 -24.5t-10.5 -10q-2 0 -6 1t-5 1q-5 0 -25 -19t-20 -31q0 -4 2 -5q-15 -40 -38 -68h1
q-12 -15 -12 -16q0 -6 5 -6q1 0 7 2t9 2q2 0 4 -3q0 -4 -8 -11.5t-19.5 -15.5t-23 -15.5t-19.5 -11.5l-7 -5q-4 0 -10 4t-9 4q-6 -2 -25 -15t-45.5 -23.5t-57.5 -10.5q-24 0 -40.5 18.5t-16.5 47.5q0 16 25 41t28 32q9 20 34.5 46t50.5 42q5 3 19.5 12t24.5 15.5t17 14.5
q6 6 27.5 14t26.5 17q3 1 8.5 4t8 4.5t6.5 4.5t6 5.5t4 6t3 8t1 9.5q0 12 -6 23t-18 11q-5 0 -15 -1t-15 -1q-7 0 -11 1q-8 -5 -28.5 -7t-28.5 -8q-103 -59 -155 -59q-4 0 -10 0.5t-22 3.5t-28 7.5t-22 14t-10 22.5q0 1 0.5 5t0.5 5q0 5 -2.5 15.5t-2.5 17.5q0 12 11 24.5
t12 21.5q0 38 39 69q8 5 13 17q3 8 18.5 20t15.5 18q0 1 -2 7q5 11 8 12q22 13 60 47.5t57 44.5q7 4 19 14t22 17.5t14 7.5q8 0 13.5 3t14.5 10.5t10 8.5q2 2 35 20q23 -8 49.5 -29.5t26.5 -35.5q0 -11 -18 -11q-4 0 -10 1.5t-9 1.5q-51 0 -118 -50q-35 -26 -44 -29l-11 -8
q-11 -9 -25 -21t-19 -19q-7 -10 -32 -29.5t-32 -36.5l1 -1q-1 0 -4 1q-3 -4 -13 -17q0 -1 1 -3.5t1.5 -4.5t0.5 -4q0 -5 -10.5 -13.5t-10.5 -18.5q0 -5 -7 -14t-7 -13q0 -8 4.5 -18.5t10.5 -10.5q19 4 107 31.5t137 27.5q11 0 35 -2q7 0 20 -6.5t19 -7.5q5 -1 11 -9t11 -8
q14 -1 25.5 -17t26.5 -16q16 0 49.5 5.5t48.5 5.5q13 0 50 -11zM309 53h1l-1 1l-1 -1h-1h1l-1 -1l1 -1q1 0 1 2zM338 136q16 15 16 38q0 14 -8 14t-26.5 -13t-23.5 -15q-21 -21 -33 -28q-15 -7 -55.5 -47t-40.5 -67q0 -8 3 -15q27 9 28 9q2 0 5 -1t4 -1h-2q0 1 14 7t29 14
t17 15q3 10 22 28.5t19 21.5q0 13 32 40zM360 105q2 0 2 2q-2 2 -3 2q-2 0 -3 -1q2 -4 3 -4zM442 224l1 -1q1 0 1 2h1h-2h-1v-1z" />
    <glyph glyph-name="T" unicode="T" horiz-adv-x="547" 
d="M307 139q-1 -1 -1 -3.5t-1 -3.5h1q-2 0 -2 -3t3 -9t3 -10q0 -3 -1.5 -7t-1.5 -6q0 -3 3 -10.5t3 -12.5q0 -2 6.5 -17t6.5 -23q0 -5 -1 -9.5t-5 -8t-6 -5.5t-8.5 -4t-9 -3t-10.5 -3t-10 -2q-1 1 -8 7.5t-10 9.5t-6 9t-3 11q0 3 2 9q0 3 -6 25.5t-6 31.5q0 4 3 7l-2 -2
l-1 1l1 1v1l2 -3q-8 9 -12.5 23.5t-5 26.5t-1 31t-1.5 28q0 7 2 20.5t2 20.5q0 4 -1.5 14.5t-1.5 16.5q0 35 12 59q0 4 -6.5 15t-6.5 17q0 12 3 37t3 38q0 3 -0.5 9t-0.5 9q0 6 5.5 17t5.5 16t-3.5 15.5t-3.5 14.5t2.5 11t2.5 11q0 33 -14 33q-16 0 -65 -16t-73 -16
q-28 0 -58 14l-4 2q-3 2 -6.5 4.5t-8.5 6t-9.5 8t-8.5 10t-6.5 11.5t-2.5 13t6.5 13t14.5 6q5 0 16 -3t16 -3q16 0 38 5q160 32 160 45q0 2 -1 5.5t-1 6.5q0 6 12.5 10t22.5 4q8 0 24 -6t25 -6q7 0 18.5 3t15.5 3q21 2 80.5 13.5t93.5 11.5q76 0 76 -32q0 -15 -16.5 -25
t-35.5 -12.5t-46.5 -5.5t-36.5 -5q-5 0 -10 -4.5t-8 -4.5t-8 2.5t-7 2.5q-21 -16 -75 -27q-15 -3 -22 -53t-7 -94q0 -4 1 -10t1 -9q0 -14 -2 -42.5t-2 -43.5q0 -9 1 -27.5t1 -27.5q-3 -15 -3 -44t-2 -42q-1 -9 -8 -34t-7 -36q0 -3 2 -7.5t2 -6.5q0 -3 -3 -9zM305 132
q1 -3 1 -9q0 6 -1 9zM307 139l-1 -1z" />
    <glyph glyph-name="U" unicode="U" horiz-adv-x="700" 
d="M384 322h-2l-2 1q-11 0 -11 -52q0 -8 -11.5 -31.5t-11.5 -38.5q0 -16 -14.5 -44t-14.5 -44q0 -9 -3 -9q-2 0 -4 3t-3 3q-2 0 -7.5 -20t-16 -42t-22.5 -26l-5 -6q-4 -5 -10.5 -12.5t-15 -15.5t-20 -13t-22.5 -5q-2 0 -6 1t-5 1q-3 0 -12 -2.5t-14 -2.5q-26 0 -50.5 36.5
t-24.5 66.5q0 12 -7 31t-7 27q0 4 0.5 13.5t0.5 14.5q0 10 -1 29t-1 29q0 92 5 127q4 34 6 98t4 88q0 7 3.5 19.5t3.5 17.5q0 2 -1 6t-1 6q0 5 1 17t1 19q0 4 -1.5 12.5t-2.5 13.5q10 12 37 12q47 0 47 -53q0 -3 -0.5 -8t-0.5 -8q0 -5 0.5 -13.5t0.5 -12.5q0 -11 -3 -22
q0 -5 1 -14t1 -13q0 -6 -0.5 -18.5t-0.5 -18.5q0 -9 1 -14q0 -9 -2.5 -24.5t-2.5 -28.5q0 -27 8 -43q0 -11 -6 -30.5t-6 -24.5q0 -4 4 -11t4 -10q0 -5 -11 -17.5t-11 -14.5q0 -21 7 -27.5t7 -8.5q-1 -15 -16 -65q0 -4 3 -6q8 -5 10.5 -18.5t2.5 -24.5t3 -11q8 -2 11 -13.5
t10 -11.5q8 0 19 13.5t23.5 37t22.5 45t22 48.5t17 37t11.5 27t13 29t15.5 23q4 5 6 18.5t8 19.5q4 4 7 15t8 15q8 7 17 28q1 3 9 20.5t11 24t10.5 19t15.5 21t18 15.5q4 2 4 13t24 47.5t26 50.5q1 8 6 15t12.5 15.5t10.5 12.5v-1q2 0 18.5 12t17.5 12q5 0 13.5 -8.5
t14.5 -8.5q4 0 12 4.5t14 4.5q11 0 23.5 -34t12.5 -62v-46q0 -15 -6 -33t-6 -23q0 -2 0.5 -5t0.5 -5q0 -8 -2.5 -23t-2.5 -23q0 -4 -6 -18t-6 -24t-3.5 -23t-3.5 -20q0 -3 1 -10.5t1 -11.5q0 -5 -2.5 -14.5t-2.5 -14.5q0 -7 2 -11q-4 -46 -4 -73q0 -8 0.5 -24t0.5 -25
q0 -38 -2 -54q0 -14 1 -22q0 -11 -2 -33q-2 -6 -6.5 -11t-4.5 -9t2.5 -12t2.5 -12q0 -7 -5.5 -22.5t-5.5 -24.5q0 -39 -13 -44q-8 -3 -24.5 -28.5t-26.5 -25.5q-15 0 -24 31.5t-9 57.5q0 16 2.5 50t2.5 51q0 8 -1.5 25t-1.5 26q0 2 0.5 6t0.5 6q0 4 -2 10t-2 10q0 -1 3 14
l6 30t3 16q0 5 -1 14.5t-1 14.5q0 3 2 11t2 11q0 4 -2 9.5t-2 8.5q0 9 3.5 24.5t3.5 22.5q0 2 -1 6t-1 5q0 3 1.5 8.5t1.5 7.5q0 3 -1 5q1 8 4 28t3 30q0 6 -2.5 21t-2.5 25q0 4 2 12t2 13q0 14 -4 41t-9 27q-6 0 -9.5 -18.5t-13.5 -18.5q-1 0 -5 1.5t-6 1.5
q-10 -21 -21 -27q-20 -29 -20 -31q0 -1 6.5 -4.5t6.5 -6.5q0 -8 -16.5 -13.5t-16.5 -12.5t-5 -20t-5 -19q0 -2 1 -6.5t1 -6.5q0 -4 -3 -10.5t-3 -8.5q0 -3 4 -9.5t4 -7.5q0 -3 -8 -8zM582 353v-2q1 0 1 1q-2 0 -4 -2q1 0 1 -1t1 -1q2 0 2 2t-1 3zM550 132q19 0 19 14
q0 22 -6 22t-8 -7t-2.5 -17t-3.5 -13q0 -1 2 -1zM301 243q0 -2 -0.5 -7t-0.5 -7q0 -11 4 -11q7 0 7 20q0 17 -5 17q-6 0 -6 -7v-3zM471 540q1 2 4 6.5t4 6.5q0 7 -4 7q-5 0 -5 -4q0 -2 0.5 -7.5t0.5 -8.5zM145 351q0 4 -3 11q-3 -3 -3 -8q0 -2 1.5 -4.5t1.5 -4.5zM580 524
q0 2 -3 6q-3 -3 -3 -5q0 -4 2 -4q1 0 4 3zM572 16l1 2q-2 2 -3 2v-3q0 -1 2 -1zM134 195q2 0 3 1t1.5 3t1.5 3q0 3 -5 3q-3 0 -3 -4q0 -2 2 -6zM305 201q0 -1 -0.5 -3t-0.5 -3t2 -3l2 1q1 0 1 1q0 7 -4 7zM579 426v2q0 2 -2 2t-2 -2q0 -1 2 -3q1 1 2 1zM571 397q-5 3 -6 3
q-5 0 -5 -5t3 -5q5 0 8 7zM571 363q1 1 1 2t0.5 1.5t0.5 1.5q-1 0 -2 1q-2 -4 -2 -5q1 -1 2 -1zM554 373l1 -3l1 3h-2zM141 316l-1 -1v-2q1 0 2 -1q1 1 1 3q-1 1 -2 1zM412 480q-2 0 -2 -2q0 -1 0.5 -3t0.5 -3l1 1q2 1 2 2q-2 2 -2 5zM598 -23l-1 -1h-2q-3 0 -3 2q1 2 3 2
q3 0 3 -3z" />
    <glyph glyph-name="V" unicode="V" horiz-adv-x="534" 
d="M397 358q-13 -16 -13 -17q0 -2 7 -4t7 -6q0 -20 -8 -39t-8 -25q0 -7 3 -15q0 -3 -4 -3t-6 14t-5 14q-4 0 -4 -17t9 -21.5t9 -11.5q0 -9 -9 -30.5t-9 -34.5q0 -17 -6 -34t-6 -21q1 -3 1 -9q0 -8 -5 -22t-5 -20q-1 -8 -11 -18.5t-10 -19.5q-3 -24 -8.5 -32t-24.5 -12
q-6 -1 -14.5 -7.5t-12.5 -6.5q-2 0 -6 1.5t-7 1.5q-2 0 -5.5 -1.5t-5.5 -1.5q-7 0 -17 2t-26.5 15.5t-16.5 36.5q0 20 -16 51t-16 50q0 8 -7 34.5t-8 37.5q-1 5 -2.5 14.5t-2 12.5t-2.5 9.5t-4.5 12.5t-7.5 15q-5 10 -8.5 22t-4 18.5t-1.5 23t-1 20.5q-4 59 -8 63
q-11 12 -11 33q0 12 3 28.5t3 21.5t-6.5 12t-6.5 11q0 19 -5 25q-18 96 -18 191q0 8 14 12.5t27 4.5q25 -3 36 -21t17.5 -55t10.5 -48q4 -14 5.5 -46.5t9.5 -49.5q2 -4 2 -8q0 -3 -3 -9.5t-3 -9.5t2 -5q12 -22 12 -80q0 -7 3.5 -19.5t3.5 -18.5q0 -3 -1 -11t-1 -11
q0 -7 5 -18t5 -17q0 -5 -1.5 -14.5t-1.5 -14.5q0 -19 14 -29q0 -9 1 -26.5t1 -25.5q0 -3 11 -20t11 -40t9 -23q7 0 14.5 11t15.5 30.5t14 36t13.5 39.5t9.5 29q4 11 19 21.5t15 18.5v31q20 0 27 15.5t8 37.5t7 30q4 5 6.5 19t6.5 20q37 54 74 135q2 5 18.5 19t25.5 14
q21 0 21 -10q0 -5 -8 -25.5t-10 -21.5q-11 -7 -17 -24.5t-14 -19.5q-5 -2 -8 -31q-1 -9 -16.5 -15t-15.5 -25q0 -15 -11.5 -30t-17.5 -40q-2 -4 -9.5 -10t-9.5 -14zM455 523q0 2 -2 5q-2 -2 -2 -3q1 -1 3 -5v1q1 1 1 2zM372 324q-2 -1 -2 -2q0 -7 2 -7q3 0 3 2q0 1 -3 7z
M416 430l-3 5l-4 2q-2 -2 -2 -5q0 -5 4 -5q2 0 5 3z" />
    <glyph glyph-name="W" unicode="W" horiz-adv-x="814" 
d="M706 130q-20 -20 -20 -37q0 -1 0.5 -2.5t0.5 -2.5q0 -49 -25 -97q-3 -10 -15 -25t-14 -19q-27 -44 -59 -53q-3 -1 -21.5 -12.5t-30.5 -11.5q-14 0 -23 2t-13 4t-11.5 8t-13.5 9q-13 8 -22.5 28t-17.5 24q-5 1 -13.5 30t-16.5 37q-12 12 -19 121q0 5 -8.5 18.5t-8.5 20.5
q0 2 0.5 6t0.5 6q0 12 -9 37q-1 4 -7.5 21.5t-11.5 32.5l-5 15q-20 0 -46 -72l-4 -11q-6 -8 -11 -27t-7 -25q-5 -10 -11 -30t-7 -23q-2 -10 -19.5 -30t-30.5 -20q-3 0 -8 2.5t-8 2.5q-2 0 -7 -3t-8 -3q-22 0 -42 25.5t-20 58.5q-2 23 -11 30q-19 83 -19 113q0 8 0.5 23
t0.5 22q0 14 -2.5 42t-2.5 43q0 19 10 76.5t10 96.5q0 5 3 13t3 13q0 1 -0.5 5t-0.5 5q0 3 2 11q0 1 3 35t9 53t19 19q28 0 36.5 -12t8.5 -37q0 -26 -12 -90.5t-14 -92.5q0 -4 0.5 -11t0.5 -10q0 -4 -1.5 -11.5t-1.5 -10.5t1 -9t1 -9t-2 -9q1 -5 1 -14q0 -11 -5 -31.5
t-5 -30.5q0 -34 11 -43q0 -1 -0.5 -5t-0.5 -6q0 -5 1.5 -14t1.5 -13q0 -73 12 -91q4 -3 7.5 -28t13.5 -25q12 0 24 33q16 50 61 124q3 5 16 28.5t22 36.5t24.5 31t33 27t37.5 9q22 0 32.5 -37t14 -115.5t4.5 -84.5q1 -5 2.5 -15t2.5 -18t1 -15q0 -2 -0.5 -5.5t-0.5 -4.5
l4 -9l11 -26q7 -12 13 -38.5t14 -38.5l2 -7q3 -7 7 -16t9.5 -18t12.5 -15.5t15 -6.5q9 0 19 11.5t21 31t14 23.5q5 2 19 43t27 48q16 9 16 39q0 19 8 54.5t8 52.5q4 14 10 15l1 -1h2q8 0 8 5q0 2 -1.5 6t-1.5 6q0 3 1.5 9.5t1.5 9.5q0 2 -0.5 5.5t-0.5 5.5q0 7 2.5 19.5
t2.5 17.5t5 16t5 17q0 2 -0.5 8t-0.5 9q0 4 0.5 11t0.5 11q0 15 -6 25q0 2 1 5t1.5 5.5t0.5 4.5q0 3 -2 9t-2 8q0 6 3.5 27t3.5 32q0 9 -1.5 29.5t-1.5 30.5q0 14 14 27t29 13q13 0 13 -31q0 -19 -7.5 -34t-7.5 -25q0 -3 1 -10.5t1 -11.5q0 -2 -1 -7t-1 -7q0 -10 6 -30
t6 -25q0 -7 -3 -30t-3 -30t2.5 -20t2.5 -19q0 -20 -11.5 -51.5t-11.5 -46.5q0 -5 2 -15q0 -6 -3 -6q-2 0 -6 2q-5 0 -10.5 -7t-5.5 -13q0 -5 3 -16t3 -16q0 -19 -4 -61zM683 224v6q-2 0 -2 -1q0 -5 2 -5zM693 402q-1 -12 -3 -14q-4 4 -4 8q0 6 5 11q2 -2 2 -5v-1v1zM714 222
q0 -5 -2 -5l-3 3q0 4 3 4q2 0 2 -2z" />
    <glyph glyph-name="X" unicode="X" horiz-adv-x="557" 
d="M207 15l4 -4t3 -4q0 -35 -8 -46.5t-35 -22.5q-3 0 -7.5 2.5t-7.5 2.5t-17.5 -4t-21.5 -4q-25 0 -25 15q5 29 25 90q3 10 11 23.5t11 22.5q5 21 36 81.5t31 94.5q0 11 -4 19q-10 17 -24 57t-27 59q-5 7 -30.5 69t-41.5 91q-6 8 -6 13q-2 12 -10.5 29.5t-23.5 42.5t-19 33
q7 20 32 44t45 24q12 0 30 -21t27 -40q34 -78 38 -80q13 -2 20.5 -15.5t13.5 -36t10 -30.5q5 -10 12.5 -37t16 -42.5t22.5 -19.5q7 11 15.5 32.5t14.5 31.5q3 6 14.5 23.5t18.5 30t9 24.5q0 7 34 79t47 72q16 0 29.5 -11t13.5 -23q-18 -58 -45 -116q-3 -6 -13.5 -21
t-17.5 -30t-7 -29q0 -9 -3.5 -14t-12 -10.5t-12.5 -9.5q8 -10 8 -14q0 -6 -15.5 -42.5t-26.5 -53.5q-5 -8 -5 -33q5 -85 14 -85q5 0 12 13q5 -6 8.5 -18t6.5 -17q3 -1 5.5 -2.5t5 -4l4 -4t3.5 -5t3 -5t2.5 -6t2.5 -6t2.5 -7.5t2.5 -8q0 -4 -3.5 -10t-3.5 -9q0 -13 11 -33
t11 -25q0 -1 -0.5 -3.5t-0.5 -3.5q0 -3 4 -4.5t11 -3t9 -2.5q4 4 8 4q3 0 8 -2.5t7 -2.5h-1q4 -4 10 -12t10 -13.5t6 -5.5q24 0 43 -22t23 -41q0 -16 -12 -26.5t-29 -10.5q-11 0 -33 4q-2 0 -8 5.5t-10 5.5q-1 0 -4 -1q-7 0 -20.5 17t-25.5 17q-11 7 -18.5 13.5t-17 18
t-12.5 14.5q-17 17 -42.5 52.5t-43.5 60.5t-24 25t-14 -11t-8 -19q0 -3 2.5 -8.5t2.5 -7.5q0 -5 -5 -13q1 1 1 5q0 3 -4 6q-5 0 -5 -8q1 -4 5 -4l4 2q0 -22 -15 -32q-18 -11 -18 -45q0 -1 5 -9q-4 2 -5 2q-5 0 -5 -6q0 -4 3 -4q1 0 6 9zM196 532h2q0 2 -1 2t-1 -0.5t-1 -0.5
h2l-1 1v-2zM356 480q-9 -4 -9 -12q0 -6 7 -22q-10 5 -16 5q-7 0 -23 -24q4 -11 4 -15l-1 -2q-1 -2 -3 -5.5t-3.5 -7.5t-3 -8.5l-2.5 -7.5l2 -1l-1 2q6 -2 8 -2q7 0 20 33t19 33q-1 2 -1 5q0 4 2.5 11.5t2.5 11.5q0 3 -2 7q1 1 4 4.5t3 6.5q-1 -1 -3.5 -5t-3.5 -7zM192 83
q-2 1 -6 1q-15 0 -20 -14q0 -5 3 -5q17 0 22 19zM246 410q-2 -8 -2 -11q0 -7 3 -7q5 0 5 4q-2 2 -7 13q-3 48 -11 48q-3 0 -3 -4q0 -33 15 -43zM218 149h-1q2 3 6.5 11t7 14t2.5 12q0 10 -2 10q-32 -5 -32 -23q0 -7 4 -15q-8 -8 -12.5 -15t-6 -11t-3 -13t-2.5 -13q0 -2 3 -4
t5 -2q15 0 31 49zM387 167q-3 20 -8 20t-5 -4q0 -18 11 -25q2 6 2 9zM342 113q12 -28 17 -28q5 1 5 3q0 18 -19 28zM445 39q-1 9 -10 9q-7 0 -7 -5q0 -3 4 -7t8 -4q2 0 5 7zM164 10q1 1 3.5 5t4 7t1.5 5q0 4 -3 4q-8 0 -8 -14q0 -5 2 -7zM242 363v1l-1 2q-3 -3 -3 -5
q0 -1 2 -3q0 3 2 5zM194 574l1 -3l1 2zM299 229l3 1l-3 1v-2zM468 78q-9 0 -14.5 12t-5.5 21q0 4 2 4q3 0 5.5 -1.5t4.5 -5.5t3 -7t3 -9.5t4 -10.5q-1 -2 -2 -3zM466 57l2 -2q-2 2 -3 2h1zM196 532h2l-1 1q-1 0 -1 -1z" />
    <glyph glyph-name="Y" unicode="Y" horiz-adv-x="585" 
d="M486 358q7 -7 7 -13q0 -1 -1 -4t-1 -5q0 -8 9 -8q8 0 24 3.5t22 3.5q3 0 7.5 -1t6.5 -1q5 0 20.5 6.5t26.5 6.5q2 0 5.5 -0.5t5.5 -0.5q4 0 11 0.5t11 0.5q25 -3 25 -11q-2 -13 -17 -27q-7 3 -13 3q-47 0 -83 -20q-6 -4 -29.5 -11.5t-37 -17.5t-13.5 -26q1 -5 1 -8.5
v-4.5t0.5 -2.5t1 -3.5t2.5 -5q6 6 8 12q0 -5 1.5 -13.5t1.5 -12.5q0 -12 -9 -20q-5 -4 -6.5 -15.5t-5.5 -14.5q-11 -10 -16 -21.5t-5.5 -18.5t-4 -12t-13.5 -6q0 -1 -1 -9.5t-2 -12.5q-1 -3 -10 -26t-9 -30q0 -3 1.5 -9.5t1.5 -9.5q0 -12 -12 -38q2 6 2 8q0 13 -5 13
q-4 0 -4 -10t8 -10q-7 -11 -21.5 -27.5t-21.5 -16.5q-3 0 -7.5 1.5t-6.5 1.5q-14 0 -31 -15.5t-23 -15.5q-3 3 -10 3q-3 0 -10 -1.5t-10 -1.5q-22 0 -47 21.5t-38 27.5q-8 2 -12.5 5t-7 8t-3 8t-1 10.5t-0.5 10.5q-1 5 -5 16.5t-4 14.5t5 12t5 17q0 2 -0.5 6t-0.5 6
q0 8 2 22t2 21q0 6 8.5 18.5t21.5 29t19 25.5q8 13 54.5 51t66.5 46q29 5 56 25t27 38q0 3 -1 7t-1 5q0 6 8.5 12.5t8.5 11.5q0 10 -4 28.5t-4 24.5q0 14 7 40.5t7 33.5q0 3 -1.5 9t-1.5 8q0 20 6 60t6 60q0 8 -6 8q-7 0 -19 -12.5t-12 -23.5t-14.5 -21t-14.5 -18l-7 -8
q-6 -7 -13 -14l-7 -8q-3 0 -7 7q-4 -5 -4.5 -15t-1.5 -13q-2 -5 -8.5 -37t-18 -59.5t-31.5 -47.5q-2 -2 -12 -27t-23 -46.5t-24 -21.5q-2 0 -7 1.5t-6 1.5h1q-32 -16 -38 -16q-2 0 -7 2t-8 2q-2 0 -6.5 -0.5t-7.5 -0.5q-7 0 -11 4l-8 8q-8 8 -17.5 19.5t-12.5 19.5
q-2 5 -11 31t-12 37t-6.5 36.5t-3.5 54.5q0 13 2 20q0 8 -1.5 22.5t-1.5 21.5q0 14 2.5 43t2.5 44v12v13t0.5 11t2.5 10.5t5 8t7.5 6t11.5 1.5q23 -7 36.5 -15.5t19.5 -24.5t7 -29t1 -41q0 -7 -2 -22t-2 -23q0 -35 8 -100t19 -65q5 0 18.5 18t34 51t24.5 39l10 17
q9 18 23 38.5t30 36.5q10 9 12 12t5 15q31 25 42 47q4 9 19 19.5t17 16.5q9 24 35 38.5t53 14.5q44 0 44 -107q0 -17 -9 -43t-9 -33q0 -3 1.5 -12.5t1.5 -16.5q-4 -7 -22 -58q0 -2 2 -7t2 -8q0 -5 -4.5 -12.5t-4.5 -10.5q0 -2 2 -5.5t2 -4.5q0 -2 -5.5 -9t-5.5 -13
q0 -5 5 -10l5 -6q0 -2 -3.5 -5t-8.5 -3l1 -2v2zM353 30q2 4 9 17t10.5 20.5t7 18t3.5 18.5q0 4 -6.5 11.5t-6.5 12.5q0 15 6 15q5 0 5 -4q-2 -6 -2 -8q0 -6 6 -6q4 0 8.5 8.5t4.5 14.5q0 8 -18 17q10 25 12 43q0 12 -11 12q-8 -1 -16 -4.5t-13 -7t-13.5 -10t-11.5 -8.5
q-109 -78 -109 -166q0 -1 1.5 -5t1.5 -6q0 -3 -0.5 -7.5t-0.5 -6.5q0 -16 9 -33t25 -18q23 0 39.5 12t22.5 13q9 2 16.5 14.5t13.5 12.5q5 0 11 -4q8 13 8 16t-4.5 7t-7.5 11zM456 387q-6 0 -6 -8t3 -8q6 3 6 9t-3 7zM460 182q1 -2 1 -6q2 2 2 4q0 1 -2 5q0 -2 -1 -3z
M287 -94q1 0 1 -0.5t1 -0.5t1 2q0 1 -1 1q-2 0 -2 -2zM461 157q-1 0 -3 0.5t-3 0.5t-1 -1l-1 -2q1 -1 2.5 -2t2.5 -1zM387 595q1 1 1 2l-2 1q-1 -1 -1 -3h2zM454 230q-2 -4 -2 -6t2 -2l2 1q0 3 -2 7zM311 -108q1 1 2.5 3.5t2.5 4.5l2 2q4 0 4 -4q0 -3 -1.5 -4.5t-5 -1.5
h-4.5zM312 -107l-1 -1l3 -2q-2 0 -2 3z" />
    <glyph glyph-name="Z" unicode="Z" horiz-adv-x="676" 
d="M308 104q-2 -10 -2 -14q0 -34 25 -34q14 0 40.5 6t41.5 6q3 0 9 -0.5t9 -0.5q4 0 14 1t15 1q10 0 22 -5q11 -5 67 -13.5t79 -31.5q-1 -3 -4.5 -7.5t-3.5 -6.5q0 -1 1.5 -4t1.5 -5q0 -5 -6 -11t-11 -6q-3 0 -7 2q-7 -10 -27 -10q-21 0 -40 8q-62 25 -125 25
q-23 0 -102.5 -22.5t-113.5 -22.5q-14 0 -35 9t-21 28q0 10 8.5 31.5t8.5 32.5q0 4 -1.5 11t-1.5 11q0 3 4 11q0 1 6 10.5t11 18.5t5 10q0 13 14 25.5t14 23.5q0 3 -5.5 5t-5.5 5q0 2 14.5 11t14.5 18q0 6 -12 16q-13 8 -24 13t-15 6.5t-8 5t-6 8t-6 15.5q1 2 3 7t3.5 7.5
t3.5 5.5t4 4.5t5 1.5q1 0 2.5 -0.5t2.5 -0.5q46 -14 66 -14q16 0 46 23t35 46q0 5 14.5 23t35.5 42t29 34q8 5 19 19t11 20q0 8 -6 8q-7 0 -19.5 -3.5t-18.5 -3.5q-4 0 -10 1t-8 1q-11 0 -26.5 -11t-20.5 -11q-1 0 -4 0.5t-5 0.5q-12 0 -25 -9q-24 -17 -63 -22
q-4 -1 -39 -7.5t-49 -6.5q-50 0 -93 51t-43 98q0 33 23 56q11 0 38 -24q7 -7 10 -22.5t9.5 -25.5t23.5 -10l117 9q13 1 39 8t38 8q34 3 114.5 27t123.5 24q3 0 9.5 -1t10.5 -1q1 0 5 1t6 1q15 0 33.5 -19.5t34.5 -44t18 -26.5q0 -1 -1.5 -7t-1.5 -9q0 -2 3 -7t3 -8
q0 -5 -2.5 -11.5t-8 -15t-10 -15t-13.5 -18.5t-13 -18t-17.5 -18t-15.5 -17q-2 -7 -11 -11.5t-9 -5.5t0.5 -3l0.5 -2q0 -4 -5.5 -11t-6.5 -14q-2 -10 -23 -23t-24 -23q0 -5 31 -10.5t31 -17.5q0 -21 -16.5 -32.5t-40.5 -11.5q-7 0 -20 1t-19 1q-16 0 -29.5 -9t-13.5 -24v1
q-4 8 -13.5 17t-15.5 9q-5 0 -15.5 -7.5t-10.5 -13.5q0 -7 6 -7q3 0 11 2q1 -4 3.5 -12t3.5 -12q-3 -4 -14 -18.5t-19 -22t-17 -7.5l1 -1q0 15 -8 15q-6 0 -20.5 -8t-14.5 -12q0 -8 7 -8q3 0 21 6h-1l2 -10q0 -7 -19 -15q-5 0 -15 2q-10 0 -10 -5q0 -7 6 -7q4 0 7 2t6.5 4.5
t5.5 3.5zM400 327q-1 -1 -2 -1q1 0 2 -1v2zM348 192q-6 -11 -7 -13q-1 0 -2 0.5t-2 0.5q-9 0 -9 -7q0 -1 0.5 -2t0.5 -2q3 0 12 11q0 2 -1 4v3q0 4 9 4q0 -1 -1 -1v2zM496 344q-11 -9 -11 -13q0 -3 5 -3q6 0 6 6q0 1 -2 9zM271 65q0 1 -1 3q0 2 2 2q-1 -1 -1 -2q-1 -2 -1 -3
q6 -2 9 -2q8 0 10 11q-3 3 -5 3q-1 0 -13 -12zM288 160q-15 -15 -15 -22t6 -10q8 8 8 33q1 -3 3 -3q5 0 5 4q0 3 -3 3q-1 0 -3 -3zM381 305l3 1l-3 1v-2zM421 208q-1 1 -4 1q-2 0 -5 -2t-5 -2q-4 0 -4 3t4 3q4 -1 14 -3zM340 137q-1 -8 -15 -8h1q1 3 14 8z" />
    <glyph glyph-name="bracketleft" unicode="[" horiz-adv-x="316" 
d="M237 -134q3 0 11.5 1.5t12.5 1.5q31 0 31 -16q0 -17 -14 -25.5t-34 -8.5q-174 9 -174 67q0 6 3.5 17t3.5 16q0 2 -0.5 5.5t-0.5 5.5q0 5 2 13t2 12t-4 13.5t-4 14.5q0 3 2.5 9t2.5 10q0 3 -2.5 9t-2.5 8q0 7 5 21t5 23q0 3 -1 10t-1 11q0 8 2 22t2 21q0 1 -0.5 4.5
t-0.5 5.5q0 3 3.5 10t3.5 11q0 24 2 49.5t6 57t6 49.5q0 8 10.5 21t10.5 18q0 8 -7 14.5t-7 9.5t7 12.5t7 15.5q0 5 -3.5 15t-3.5 15t1 7q16 101 20 197q0 7 3 11q5 5 41 19.5t48 14.5q16 0 40.5 -9.5t24.5 -21.5q0 -11 -82 -29q-14 -5 -21.5 -18.5t-9 -27.5t-3 -38.5
t-3.5 -38.5q-12 -41 -14 -69q-1 -13 -7 -45t-6 -48t-7 -36.5t-7 -31.5t-3.5 -32.5t-3.5 -31.5q0 -3 0.5 -8t0.5 -7q0 -6 -3 -16t-3 -15t1 -7q0 -5 -4.5 -17.5t-4.5 -20.5q0 -10 -0.5 -30t-0.5 -29q0 -77 13 -163q5 -21 109 -28z" />
    <glyph glyph-name="backslash" unicode="\" horiz-adv-x="381" 
d="M203 240q0 -3 2 -3q1 0 2 1q0 4 -3 4q-1 0 -1 -2zM0 603q4 65 39 65q8 0 13 -9.5t9.5 -24.5t8.5 -22q38 -64 58 -96q16 -33 47.5 -77.5t42.5 -63.5q8 -15 27 -42t30 -47t11 -33q0 -2 9 -16t21 -34t17 -32q5 -13 18.5 -34t21.5 -39.5t8 -38.5q0 -10 -13 -20.5t-27 -16.5
q-13 4 -32.5 24.5t-20.5 25.5q0 7 -7.5 23t-14.5 27l-7 12q-28 16 -28 38q0 2 1 5t1 4q0 3 -9.5 15t-21.5 28t-16 28q-9 9 -16 29.5t-10 23.5q-8 11 -24 42t-30 46q-11 11 -34 53t-24 72q-9 5 -16.5 15.5t-11.5 19.5t-10 25.5t-10 24.5z" />
    <glyph glyph-name="bracketright" unicode="]" horiz-adv-x="347" 
d="M174 165q1 2 4 6.5l5 7.5t2 5q-2 10 -2 13q0 5 1 15t1 14t-0.5 11t-0.5 10q0 12 2 34q0 3 -0.5 10t-0.5 10q0 6 4 16t4 15t-3.5 18.5t-3.5 20.5q0 4 1 12t1 11q0 5 -2 16t-2 17q0 3 0.5 7t0.5 6q0 10 -3 30t-3 30q0 8 0.5 24t0.5 24q0 40 -3 79q0 10 -24.5 12t-54 2
t-54 11.5t-24.5 37.5q0 11 8 11l2 -1h2q51 -24 137 -24q5 0 15 1.5t15 1.5q24 -3 58 -22q20 -13 20 -54q0 -9 -5 -27t-5 -27q0 -7 -0.5 -16.5t-0.5 -13.5q0 -13 1 -19q0 -5 -4 -14t-4 -13q8 -28 8 -68q0 -11 -6.5 -50t-6.5 -70q7 -61 7 -82q0 -19 -4.5 -47t-4.5 -36
q0 -5 4.5 -24.5t4.5 -29.5q0 -75 8 -113q0 -5 -1 -13t-1 -12q0 -8 5 -20t5 -16q0 -9 -7 -18t-14 -9q-16 1 -47.5 7.5t-48.5 6.5q-13 0 -42.5 -2.5t-43.5 -2.5t-31.5 10t-17.5 24q0 26 105 26q8 0 31 9t23 17q0 5 0.5 14.5t0.5 14.5t-1.5 16t-1.5 17q0 17 5 39t5 29t-4 21
t-4 21q0 2 0.5 4t0.5 4q0 3 -11 25z" />
    <glyph glyph-name="asciicircum" unicode="^" horiz-adv-x="437" 
d="M229 632q-22 -25 -54 -80.5t-57 -93.5t-39 -38q-16 0 -39 35q12 22 72 104t78 141q41 0 67 -17.5t48 -52.5q9 -14 34.5 -52.5t44.5 -69.5t33 -61q-11 -11 -20 -11q-7 0 -19 5t-14 9q-15 22 -50 60.5t-62 86.5q-12 18 -23 35z" />
    <glyph glyph-name="underscore" unicode="_" horiz-adv-x="320" 
d="M370 -156q-7 -21 -17 -24q-7 0 -30.5 6t-38.5 6q-74 0 -138 -7q-5 -1 -14 -2.5t-16.5 -2.5t-14.5 -1q-3 0 -8 1t-7 1l-1 -1h-2q-31 -9 -83 -9q-62 0 -81 14t-19 41q0 3 3 6.5t6 3.5q5 0 15.5 -3.5t16.5 -3.5q26 1 110.5 7t132.5 6q12 0 37 2.5t38 2.5q4 0 13.5 -2
t14.5 -2q4 0 12 2t12 2q48 0 59 -43z" />
    <glyph glyph-name="grave" unicode="`" horiz-adv-x="213" 
d="M193 590q-1 -5 -2.5 -12t-2 -9.5t-3.5 -4.5t-8 -2q-13 0 -24.5 7.5t-22 23.5t-17.5 28t-17.5 33.5t-13.5 27.5q-2 4 -2 7q0 6 4 11q62 -28 109 -110z" />
    <glyph glyph-name="a" unicode="a" horiz-adv-x="554" 
d="M20 129v30q14 3 15 15q0 32 25 97q2 6 8 23.5t10.5 27.5t14 27.5t21.5 35.5q6 8 15 24t16 25.5t17.5 20t25.5 15.5t35 5q32 0 52 -12.5t40 -38.5q11 6 34 28.5t40 28.5q2 1 19.5 12.5t32.5 11.5q21 0 37 -13t16 -45q0 -31 -14.5 -104t-14.5 -112q0 -7 -8 -26.5t-8 -30.5
q0 -23 -5 -71.5t-5 -71.5q0 -8 0.5 -23.5t0.5 -22.5q0 -4 -0.5 -11t-0.5 -10q0 -12 8 -20q-2 -8 -2 -13q0 -4 6 -21.5t8 -17.5q10 0 24 39t14 58q22 77 34 111q0 5 6 11t8 13q3 10 5.5 25.5t4.5 24t7.5 19.5t15.5 20q5 3 7 13q5 20 23.5 39.5t33.5 19.5q7 0 14.5 -4t7.5 -11
q0 -3 -2 -5q-1 -1 -12 -16.5t-21 -29.5t-18.5 -31.5t-8.5 -28.5q-2 -17 -13 -46t-14 -40q-2 -7 -6.5 -28t-8.5 -36t-10 -26q-3 -4 -4.5 -18t-6.5 -21q-8 -15 -8 -70q-2 -12 -12.5 -29t-11.5 -20q-8 -18 -47 -18q-7 0 -13 1.5t-12.5 6t-9 6t-10.5 9.5l-9 9q-6 5 -7.5 14
t-3.5 10q-12 10 -14 48q0 5 0.5 15t0.5 15q0 9 -7.5 19t-7.5 17q0 24 14 262q1 11 8.5 27.5t7.5 21.5q-1 5 -1 16q0 25 1 39t2.5 18t5.5 9.5t6 9.5q0 7 -3 17.5t-3 15.5q-21 -5 -24 -5q-7 -1 -11 -14.5t-18 -13.5q-11 -26 -23 -32q-2 0 -20.5 -17.5t-19.5 -23.5
q-1 -5 -2.5 -13.5t-2.5 -12.5t-3.5 -9t-7 -8t-11.5 -5q-5 -1 -62 -121q-38 -70 -49 -81t-46 -11q-27 0 -48.5 17t-21.5 47q-1 2 -1 7t-2.5 8t-11.5 4zM292 404q-14 6 -25 6t-21 -6q-45 -30 -79 -91.5t-46 -123.5q0 -7 6 -7q3 0 31 37.5t39 55.5q14 22 26 32q10 8 27 29.5
t28 30.5q15 20 15 30q0 1 -0.5 3t-0.5 4z" />
    <glyph glyph-name="b" unicode="b" horiz-adv-x="501" 
d="M171 -110q-10 -20 -34 -20q-19 0 -26 7q-61 17 -61 96q0 26 5 78t5 77q0 6 -0.5 18t-0.5 18q0 30 6 44q2 4 2 8q0 3 -1 7t-1 6q0 25 9.5 73t9.5 68q-1 3 -1 9q0 8 5 29.5t5 33.5q0 9 5.5 27.5t5.5 28.5q1 25 7 58t11 54t16.5 63t14.5 55q1 4 18 55t17 73q0 31 15 31
q32 0 46.5 -9.5t14.5 -34.5q0 -1 -0.5 -3.5t-0.5 -4.5q-10 -49 -34 -131q-1 -10 -14 -43.5t-13 -45.5q0 -3 1 -8t1 -7q0 -10 -11.5 -37.5t-11.5 -40.5q0 -4 2 -14t2 -14q0 -5 -4.5 -13.5t-4.5 -12.5t1 -6q0 -3 -7 -26.5t-7 -45.5q0 -14 8 -15q11 0 26 15t21 18q2 1 11 13
t16 17q8 5 24.5 17t26 17t28.5 10t42 5q28 0 56.5 -23t28.5 -68q0 -11 -3 -35t-3 -31q2 -10 2 -14q0 -57 -15 -69q-7 -9 -10.5 -39t-12.5 -38q-7 -7 -12.5 -25.5t-13.5 -30.5q-19 -44 -65 -76t-91 -32q-10 0 -27.5 2t-26.5 2q-10 0 -10 -28q0 -12 2 -32q0 -7 5 -18.5
t5 -17.5q0 -12 -4 -24zM182 276q-1 -5 -2 -14.5t-1.5 -14.5t-4 -11t-10.5 -11q-3 -1 -4.5 -7.5t-1.5 -18v-13.5q5 -10 5 -24q0 -6 -2.5 -18.5t-2.5 -18.5q0 -4 2 -8q3 -8 4.5 -24.5t9 -22.5t30.5 -6q47 0 96 31.5t60 80.5q0 6 5 16.5t5 16.5q0 4 -1 15t-1 16q0 10 8.5 25
t8.5 20q0 4 -2.5 12.5t-2.5 13.5t1 15t1 16q0 30 -8 60.5t-24 30.5q-4 0 -11 -3t-10 -3q-15 0 -27.5 -12.5t-18.5 -14.5q-4 -1 -19 -27.5t-30 -36.5q0 -2 -8.5 -13.5t-21 -25.5t-22.5 -21z" />
    <glyph glyph-name="c" unicode="c" horiz-adv-x="348" 
d="M30 157q0 20 7.5 58t7.5 57q0 34 42 111q4 7 17 23t16 26q2 6 10.5 14t10.5 15t15.5 9.5t15.5 8.5q5 13 24 25t29 12q4 -1 11.5 -2t26 -6t32.5 -10.5t25.5 -15.5t11.5 -21q0 -29 -11.5 -66t-30.5 -37q-11 0 -18.5 11.5t-7.5 23.5q0 1 3 34q0 7 -7 7q-27 0 -60 -36.5
t-58 -81.5q-1 -4 -15 -51t-14 -74q0 -37 9.5 -77t26.5 -40q9 0 60.5 36t68.5 55q35 38 81.5 74t71.5 36q17 0 17 -11t-26.5 -32t-31.5 -32q-2 0 -23 -21t-47.5 -48.5t-29.5 -30.5q-15 -16 -36 -35.5t-56.5 -43.5t-56.5 -24q-23 0 -39.5 6.5t-26.5 20t-16 25t-12.5 30
t-10.5 27.5q-3 6 -6 51z" />
    <glyph glyph-name="d" unicode="d" horiz-adv-x="537" 
d="M383 542q2 -6 2 -8q0 -4 -10 -15.5t-10 -20.5q0 -4 1 -12t1 -12q0 -19 -7 -19q-3 0 -3 8l-6 -3v1q0 -14 -4 -39.5t-12 -25.5q-1 0 -3 10.5t-6 10.5q-8 -3 -8.5 -25t-6.5 -22q-5 0 -12.5 -8.5t-9.5 -9.5q-1 -4 -2 -18t-2 -22.5t-5.5 -16.5t-11.5 -10v-1q0 -4 -11.5 -33
t-11.5 -30q-9 -28 -31 -70.5t-29 -62.5q-4 -9 -23.5 -28.5t-24.5 -19.5t-15 -2t-14 -2q-6 0 -14 2q-28 10 -39 18t-13.5 17.5t-5.5 13.5q-16 19 -16 74q0 5 1.5 15.5t1.5 16.5q0 7 8 19.5t8 21.5q1 8 3.5 14.5t7.5 15t7 14.5q22 52 42 73q32 34 42 75q1 3 21 15t24 27
q0 2 16.5 6t23.5 4q8 0 25 -5t25 -5q17 0 31.5 26t23.5 28q4 1 13.5 19t9.5 20q8 32 8 37q0 16 14.5 31.5t14.5 21.5q0 18 21 48.5t24 44.5q-1 11 8 27t10 25q2 22 23.5 40t48.5 18q14 0 27.5 -10.5t13.5 -22.5q0 -27 -16 -72t-17 -65q-12 -33 -16 -38q-20 -31 -20 -94
q0 -15 -15.5 -24.5t-15.5 -12.5q0 -4 7 -6t7 -8q0 -2 -2.5 -6t-2.5 -6q0 -3 2.5 -10.5t2.5 -9.5q0 -5 -2 -6.5t-7.5 -4t-9.5 -6.5q0 -92 -19 -107q-3 -3 -4 -31t-15 -28q-11 0 -11 46q-2 0 -11 -9.5t-9 -12.5t2 -5t5 -3.5t4 -2.5v-30q-3 -9 -16.5 -18.5t-13.5 -24.5
q-4 0 -4 5q0 9 6.5 26t6.5 24q0 4 -2.5 10t-2.5 9q0 6 5 22.5t5 24.5q0 3 -1.5 9.5t-1.5 9.5q0 10 5 17q4 4 14 22.5t10 28.5q0 12 -4 12q-1 0 -4 -1l-3 -1q-3 0 -3 4q0 15 7.5 44t7.5 44q0 14 -5 17.5t-16 3.5q-16 0 -16 -10q0 -5 5 -5zM267 424q-40 -11 -77.5 -47
t-57.5 -87q-3 -10 -9 -21q-13 -21 -22 -54.5t-9 -51.5q0 -42 13 -42q5 0 19 25t34.5 66l25.5 51q8 14 29 49t31 55q8 5 18 22.5t10 24.5q0 3 -5 10zM336 443q0 1 0.5 3t0.5 4q0 4 -2 6q0 -2 0.5 -7t0.5 -6zM425 391q-2 -8 -2 -10l3 -6q4 8 4 10q0 3 -5 6zM440 388l2 1
q1 0 1 1q0 9 -3 9q-3 -1 -3 -6t3 -5zM381 -40q3 -2 8 -4.5t8 -5t3 -5.5q-9 -18 -9 -47q0 -5 -2.5 -16.5t-12 -26t-23.5 -14.5q-11 0 -21.5 21.5t-10.5 35.5q0 5 3.5 12.5t3.5 10.5q0 4 -6 14q7 47 7 62q0 7 -3.5 14t-3.5 11q0 5 5 16.5t5 17.5q0 2 -0.5 5.5t-0.5 5.5
q0 7 8 14.5t8 14.5q0 2 -0.5 5t-0.5 4q0 9 8 14l3 -6q2 0 2 2q0 3 -6 3q10 10 16.5 27.5t6.5 29.5q0 3 -2 3q-5 0 -13 -21t-11 -21q-7 0 -7 6q4 22 10 35q2 2 12.5 18.5t20 31.5t10.5 15t3 -0.5t3 -0.5q8 0 12 13t6 13q7 0 11.5 -12t4.5 -19q0 -5 -10.5 -19t-10.5 -31
q0 -4 2 -13t2 -13q0 -6 -1 -18t-1 -18q0 -8 -5.5 -18t-5.5 -12t3.5 -7.5t3.5 -8.5t-4.5 -8.5t-4.5 -7.5t4 -6t4 -6q0 -6 -6 -8q-13 -12 -13 -58q0 -7 1 -9q0 -6 -6.5 -11.5t-6.5 -12.5v9zM400 208q-8 -4 -8 -16q0 -10 4 -19q1 8 3 18t4 17l2 6q0 4 -3 4q-2 -1 -2 -10z
M344 -25q0 1 2 3l2 2q0 1 -2 3t-2 3q0 -1 -2 -3t-2 -3l2 -2q2 -2 2 -3zM396 145l-2 -3h2v3zM359 84q2 2 2 5q0 1 -4 4l-1 -2q-1 -2 -1 -3l1 -2q2 -1 3 -2zM383 541l6 3q0 -3 -2 -3q-3 0 -4 1v-1z" />
    <glyph glyph-name="e" unicode="e" horiz-adv-x="386" 
d="M67 353q20 23 25 41q5 15 26 32t24 27q3 3 13.5 15t18.5 18.5t18 10.5q4 2 15.5 11t20.5 9q44 0 90.5 -27t46.5 -65q0 -1 -0.5 -5t-0.5 -5q0 -4 0.5 -10t0.5 -9q0 -19 -14 -29q-6 -3 -12.5 -15t-9.5 -15q-15 -15 -19 -23q-11 -21 -49 -47t-75 -26q-7 0 -21 2t-21 2
q-20 0 -20 -44q0 -129 39 -129q18 0 44 21q124 101 159 132l9.5 9.5t16.5 15.5t18 15t20.5 13t19.5 5q16 0 16 -11q0 -6 -7 -12t-19 -12.5t-14 -7.5q-54 -45 -54 -55q0 -8 -4.5 -16t-11.5 -8q-15 -8 -33.5 -35t-26.5 -30q-7 -2 -48.5 -44.5t-50.5 -42.5q-5 0 -10 3
q-7 -4 -19 -12q-3 0 -15.5 1.5t-15.5 2t-12.5 2t-13 3.5t-10.5 5.5t-11.5 8t-8.5 11.5q-4 9 -9 12q-11 6 -20 24t-9 23q0 2 1 6.5t1 7.5q0 5 -5.5 13t-5.5 12q0 1 1.5 5t1.5 6q0 3 -2 9t-2 10q0 2 2.5 8t2.5 8q0 3 -3.5 11t-3.5 12q0 67 12 82q7 8 12 33.5t13 36.5
q-4 -6 -4 -11q0 -3 2 -5q3 3 3 4q0 4 -2 12zM162 303q24 4 48.5 13t49 32t24.5 52q0 45 -24 45q-44 0 -81.5 -52.5t-37.5 -80.5q0 -6 17 -9h4z" />
    <glyph glyph-name="f" unicode="f" horiz-adv-x="293" 
d="M83 314q6 18 8 32q1 10 8 28.5t7 29.5q0 1 -0.5 3t-0.5 4q8 15 16 42.5t8 38.5q-1 1 20 58l12 33q8 11 14 39.5t11 33.5q20 18 20 47q0 8 7 19.5t7 14.5q1 23 24 53q3 5 8 32q17 17 25.5 38t18 28.5t40.5 7.5q32 0 49.5 -20.5t17.5 -50.5q0 -70 -17 -97q0 -13 -9 -38
t-9 -39q0 -1 -7 -15.5t-17 -31.5t-16 -23q0 -2 -1 -11.5t-2 -15.5q-1 -3 -7 -8t-6 -10q0 -13 -8.5 -19t-8.5 -23q0 -20 -17 -40t-18 -28q-2 -17 -23.5 -45t-25.5 -56q-1 -10 -22.5 -31.5t-21.5 -33.5q0 -8 -14.5 -23t-14.5 -23q0 -7 5 -7q29 10 115 59t121 49q6 0 12 -4.5
t6 -8.5q0 -10 -14 -14q-23 -10 -43.5 -19.5t-43.5 -22.5t-36 -20t-40 -24.5t-34.5 -22.5t-40 -26.5t-37.5 -24.5q-4 -3 -7 -8t-5.5 -12.5t-4 -13t-3 -14.5t-2.5 -12q31 -65 40.5 -139.5t9.5 -176.5q0 -4 -3 -11.5t-3 -9.5q0 -4 3 -14t3 -16q0 -7 -7 -34.5t-7 -33.5
q0 -3 1.5 -10.5t1.5 -11.5q0 -22 -8.5 -65.5t-8.5 -63.5q0 -4 0.5 -11t0.5 -10q0 -8 -5 -20.5t-5 -15.5t1.5 -8t1.5 -8q0 -11 -5.5 -18t-13.5 -7q-13 1 -44 5q-13 0 -23.5 39t-10.5 67q0 3 1 8t1 7t-0.5 6t-0.5 6q0 8 4 13q0 20 -1 30q0 2 -4.5 4.5t-4.5 4.5q0 1 1.5 3.5
t1.5 3.5q0 2 -1 5.5t-1 5.5q0 7 3 22.5t3 22.5q0 5 -3 15t-3 15q0 7 6.5 19t6.5 21q0 11 -10 20q3 1 3 4q0 1 -2 5t-2 5t6 5.5t6 9.5q-2 16 -2 23q0 9 3.5 26.5t3.5 25.5q0 5 -2.5 13t-2.5 13q0 8 2 11q4 9 4 26.5t2 24.5q0 1 -3 10l1 -1q6 11 7 30.5t2 24.5q0 9 -13 16
q3 36 3 38t-3 17q-1 11 -29 24.5t-28 25.5q0 22 39 29q34 9 53 49t19 83q0 2 -0.5 6.5t-0.5 6.5q0 7 6.5 18t6.5 18zM265 497q2 -6 2 -9l1 2q-2 4 -4 6q5 18 5 21q0 2 -0.5 6t-0.5 6q1 9 8.5 24t8.5 24q2 10 16.5 37t14.5 31q-1 3 -1 8q0 9 8.5 32t8.5 36q0 7 5 20.5t5 18.5
q-2 6 -2 8q0 4 2 11t2 10q0 4 -2 8t-6 9t-5 7q-22 -3 -45 -63q-17 -41 -48 -120.5t-49 -122.5q-3 -7 -6.5 -22t-4.5 -17q-11 -13 -21.5 -66t-20.5 -73q-1 -1 3 -9q18 4 20 15q1 5 9 12.5t8 15.5q0 7 0.5 11.5t1.5 7t3.5 4.5t4 2.5t7 1.5t7.5 2q-2 6 -2 8q0 11 14 33
q2 3 10.5 22t17 35t12.5 16q1 0 13 -9zM66 -464q11 19 15 55t6 45q8 20 8 74q0 13 2.5 37.5t2.5 35.5q0 6 -1 16t-1 15q0 130 -22 130q-9 0 -9 -12q0 -4 0.5 -12.5t0.5 -12.5q0 -11 -4 -36t-4 -34q0 -4 0.5 -12.5t0.5 -12.5q0 -8 -3 -24.5t-3 -25.5q0 -5 2.5 -15.5
t2.5 -15.5q0 -6 -3 -22t-3 -24q0 -15 2 -44t2 -45q0 -3 -1 -9.5t-1 -9.5q0 -7 3 -13q-2 -6 -2 -9q0 -8 9 -19zM45 -88q-1 0 -1.5 1.5t-1.5 1.5q-2 0 -2 -2t3 -5zM4 -273l3 -9q0 -4 -3 -4q-1 0 -1 1t0.5 5t0.5 7zM20 -71l1 -1v2q1 0 1 -1h-2zM84 314q-3 3 -5 4q1 1 3 1t2 -2
v-1l-1 -2h1zM264 496l1 1q2 -6 2 -9q1 1 1 2q-3 4 -4 6z" />
    <glyph glyph-name="g" unicode="g" horiz-adv-x="516" 
d="M396 51q10 -4 10 -12t-9.5 -21.5t-18.5 -16.5q10 -7 10 -11q0 -3 -6 -10t-6 -11q0 -3 5.5 -6t5.5 -6q0 -4 -7 -11t-7 -13q0 -3 2 -7.5t2 -6.5q0 -5 -3 -13.5t-3 -11.5l-8 -10q-8 -9 -8 -17q0 -7 2.5 -16t2.5 -13q0 -14 -12 -59t-12 -51q0 -3 1 -4q0 -10 -12 -33t-12 -26
q0 -2 2 -6t2 -6q0 -3 -4 -9t-4 -9q-1 -13 -12 -36.5t-11 -31.5q0 -2 1 -5t1 -4q0 -4 -5 -11.5t-5 -11.5q0 -33 -23 -54t-55 -21q-21 0 -33 7q-26 17 -36.5 25.5t-24.5 26t-18.5 42t-4.5 61.5q0 12 3.5 34t3.5 34q0 13 13 57t24 52q9 7 11.5 28t13.5 28q2 3 5 10q2 10 6.5 18
t11 17t10.5 17q9 32 37 50q1 1 4 6q5 18 27.5 39t26.5 31q2 7 20.5 31t24.5 24q3 0 9 -2q2 6 11.5 26t15.5 37t6 29q0 5 -3 14t-3 13q0 5 4 18.5t4 20.5q0 4 -1 12.5t-1 13.5q0 10 3.5 30.5t3.5 31.5q0 28 -7 28q-5 0 -6 -4q-11 -29 -37 -29q-2 0 -4 2q-3 0 -10 -16t-12 -19
v2l1 -1l-9 -12q-12 -3 -26 -20t-22 -19q-9 -3 -17.5 -16t-9.5 -14q-4 -4 -9.5 -8.5t-10 -8.5t-8.5 -11q-4 -19 -26 -50.5t-44 -36.5q-46 0 -71.5 25.5t-25.5 69.5q0 12 2.5 21.5t6.5 18.5t5 14q3 15 19 53q3 7 16.5 18.5t16.5 21.5t20 26t20 26q8 24 51.5 54.5t78.5 30.5
q23 0 56 -7q11 -2 28.5 -15t25.5 -13q7 0 13 9q6 6 10 12t5 8.5t4 4t8 1.5q31 0 59.5 -14t28.5 -45q0 -18 -19 -75.5t-19 -88.5q0 -7 -7 -19t-7 -19q0 -9 2.5 -11.5t9.5 -2.5q10 0 17 7q7 6 35.5 18t44.5 12q11 0 28 -9.5t17 -23.5q0 -12 -17 -15t-18 -4q-7 -7 -23 -11
t-21 -7q-17 -10 -30.5 -23t-20.5 -17q-1 -1 -13.5 -7t-35.5 -36q-3 -3 -5 -13t-6 -14q-2 -2 -6 -10t-4 -10v1zM284 -337q-4 13 -4 20q0 4 6 14.5t6 16.5q0 18 11 57.5t11 61.5q0 10 6 21.5t6 16.5q0 3 -4.5 7.5t-4.5 5.5q0 2 3 6q4 7 11 42.5t7 59.5q0 3 -4.5 6.5t-7.5 3.5
t-14.5 -11t-15.5 -18q-10 -17 -50.5 -83t-56 -96t-33 -86.5t-17.5 -109.5q0 -65 36 -80q7 2 20 5.5t18 4.5q2 2 9.5 12.5t12.5 15.5q5 4 6.5 15t4.5 15q7 9 14.5 36.5t23.5 40.5zM341 416q-1 1 -3 3.5t-3.5 4t-4 3t-5.5 1.5q-13 0 -74 -43t-61 -50q0 -14 -31 -51
q-37 -45 -37 -56q1 -2 1 -5t1 -3.5t4 -0.5l2 1q20 12 54 46t52 43q5 3 21 23t24 26q24 20 29 29q3 5 16 9.5t15 19.5zM364 -63q-4 0 -4 -3l3 -3q2 0 2 4q0 1 -1 2zM259 312q-1 0 -1 1t-1 2l-2 -2q0 -4 2 -4t2 3zM299 305l-1 -1v2z" />
    <glyph glyph-name="h" unicode="h" horiz-adv-x="469" 
d="M587 310q-52 -58 -73 -97q-3 -6 -11.5 -17.5t-14.5 -20.5t-6 -11q0 -26 -21 -58q-6 -9 -12 -28.5t-10 -27.5q-3 -5 -5 -20.5t-8 -21.5q-2 -2 -7.5 -19.5t-13.5 -33t-17 -15.5q-75 0 -86 108q-1 7 -6.5 18.5t-5.5 17.5q0 4 3 13.5t3 15.5q0 10 0.5 32t0.5 34q0 9 -5.5 27
t-5.5 26q0 5 2.5 15t2.5 14q0 56 -9 56q-14 0 -48.5 -29t-35.5 -38l-34 -45q-22 -31 -27 -50q-6 -21 -25 -67.5t-22 -46.5q-14 0 -42 15.5t-28 28.5q0 20 14.5 58.5t14.5 60.5q0 4 3.5 12.5t3.5 13.5q0 2 -0.5 5.5t-0.5 5.5q0 7 5.5 18t5.5 18q0 2 -1.5 7t-1.5 7
q0 7 7.5 26.5t7.5 30.5t7.5 28.5t7.5 26.5q0 2 -0.5 7t-0.5 7q0 7 2 15.5t6 20t6 17.5q2 7 9 15.5t7 10.5q0 3 -3 8t-3 7q0 3 3.5 10.5t3.5 11.5q0 1 -0.5 4.5t-0.5 5.5q0 13 23 72q1 5 2.5 15.5t2.5 16t3.5 14t7.5 15.5l-1 -1q-1 4 12.5 61.5t18.5 57.5q3 0 9 -3t22.5 -7.5
t22 -9.5t5.5 -17q0 -13 -10.5 -46.5t-24.5 -52.5l-2 -6q-2 -7 -5.5 -18.5t-7.5 -24t-6.5 -26t-2.5 -21.5q0 -9 -6.5 -21t-6.5 -16q0 -1 0.5 -4t0.5 -5q0 -6 -2.5 -17t-2.5 -16q-1 0 -6.5 -12.5t-11.5 -31t-6 -30.5q0 -26 -18.5 -69.5t-18.5 -68.5q0 -13 8 -13q7 0 20 14
t28 32t20 23q1 1 9 3t14 5.5t6 9.5q8 24 39 31q7 1 19 9t18 8q3 0 11 -2q39 -14 48.5 -29.5t9.5 -55.5q0 -38 -6 -114t-7 -86q0 -9 -5 -30t-5 -29l4 -12q4 -12 9.5 -25t7.5 -13q6 0 26.5 27.5t20.5 32.5q0 8 8 14.5t9 12.5q7 45 44 98q7 10 11 22t7.5 27.5t6.5 24.5
q10 9 25 30.5t28 35t26 13.5q16 0 16 -15q0 -2 -2 -10z" />
    <glyph glyph-name="i" unicode="i" horiz-adv-x="264" 
d="M40 233q0 36 20 139.5t40 103.5q7 0 48 -11q19 -5 32 -45.5t13 -72.5q0 -13 -5 -73q-4 -9 -4.5 -27.5t-3.5 -27.5q-1 -1 -1 -5q0 -129 27 -129q4 0 6 2q28 33 42 51t29.5 48t22.5 61q3 15 12.5 23.5t21.5 8.5q24 0 24 -18q0 -8 -16 -29t-18 -31q-17 -41 -24 -46
q-5 -3 -7 -13.5t-4 -13.5q-3 -7 -14.5 -22t-12.5 -22q0 -6 -11.5 -19.5t-13.5 -20.5q-8 -14 -31 -24t-42 -10q-24 0 -51.5 22.5t-39.5 48.5q-2 5 -12 23t-16.5 33.5t-6.5 28.5q0 12 -2 34t-2 33zM115 619q0 30 19 30q4 -1 13.5 -2.5t14.5 -3t11 -4t8.5 -7.5t2.5 -12
q0 -19 -10 -34.5t-28 -15.5q-16 0 -23.5 15.5t-7.5 33.5z" />
    <glyph glyph-name="j" unicode="j" horiz-adv-x="280" 
d="M127 609q18 0 32.5 -16t14.5 -30q0 -15 -15 -35t-27 -20q-14 0 -24 18.5t-10 33.5q0 49 29 49zM-126 -452zM350 202q10 -6 10 -15q0 -14 -14 -14q-7 -1 -30.5 -4t-33.5 -4.5t-28 -6.5t-34 -12q-7 -4 -11 -21t-7 -43t-7 -39q0 -6 0.5 -9.5t0.5 -5.5q0 -8 -3.5 -23
t-3.5 -22q0 -6 3.5 -16t3.5 -15q0 -35 -25 -59q0 -8 0.5 -21t0.5 -20q0 -10 -7 -14q0 -3 1 -8t1 -9q0 -6 -8.5 -14t-8.5 -15q0 -5 1 -7q0 -8 -8.5 -12t-8.5 -6v-7q0 -10 -8.5 -19.5t-8.5 -14.5q-8 -16 -11.5 -39.5t-11 -40t-29.5 -30.5q0 -8 -5.5 -15.5t-10.5 -7.5
q-1 0 -5 0.5t-6 0.5q-8 0 -20 -10q2 -5 4.5 -18t7.5 -18q0 -4 -22.5 -14t-30.5 -10q-4 0 -6.5 1.5t-4.5 3.5t-4.5 6t-4.5 6q-7 0 -22 -2.5t-23 -2.5q-6 0 -10.5 1t-7.5 1.5t-7 3.5t-5 4l-5.5 5.5l-5.5 5.5q-8 0 -30 31t-22 41q-19 34 -19 106q0 88 33 135q14 43 75 116
q1 1 13 15t23 26.5t26 24.5t26 15q2 0 24.5 14t46 35.5t23.5 36.5v8q0 9 0.5 23.5t0.5 22.5q0 19 -6.5 53.5t-7.5 42.5q0 1 -7 17.5t-7 25.5q0 26 12 46.5t20 20.5q9 0 27.5 -5t23.5 -6q36 -38 49 -90q0 -96 13 -116q2 -3 4 -3q43 17 96 17q7 0 21.5 -4t20.5 -4zM4 -428v6
q1 -1 1 -2zM42 -237h3l-3 4v-4zM49 -215q0 -1 4 -1q1 0 5 4q-1 2 -2 3.5t-1.5 2.5t-1.5 1q-5 -3 -5 -7zM38 -208q44 162 44 260q1 4 -2.5 8.5t-8.5 4.5q-3 0 -6.5 -3t-3.5 -5q-6 -11 -28.5 -23.5t-28.5 -22.5q-6 -11 -33 -34t-31 -42q-1 -1 -4.5 -7.5t-6.5 -8.5
q-39 -39 -60 -93.5t-21 -103.5q0 -14 6.5 -40t7.5 -35q9 -24 24.5 -37.5t25.5 -15.5l11 -1q6 0 17 8q3 3 18.5 14t27 21t11.5 18l-1 2v3q0 7 8.5 12t17.5 14t9 27q0 3 -2.5 9.5t-2.5 8.5q0 3 1.5 7t1.5 6q0 5 -3 8q0 10 12 41zM83 -359q10 6 10 16q0 18 -6 28q-12 0 -12 -28
q0 -19 6 -19q1 2 2 3zM117 -240q3 0 3 3q0 7 -6 13q-4 -4 -4 -7q0 -9 7 -9zM134 -189q2 6 2 9t-0.5 6.5t-0.5 4.5q0 2 1 5l-2 2q-3 0 -3 -2q0 -16 3 -25zM148 -83q1 0 3 -2t4 -2q3 0 3 6l-7 2q-3 0 -3 -4zM155 -146q3 0 3 7q-10 0 -10 -9q7 0 7 2zM177 -1v-1v1zM168 -17
l3 -4q6 0 6 11q0 5 -3 6q-7 -2 -7 -8q0 -4 1 -5zM180 -70q3 3 3 9q-6 6 -6 12l-6 -4q0 -17 3 -20z" />
    <glyph glyph-name="k" unicode="k" horiz-adv-x="387" 
d="M107 -47q-7 3 -12.5 14.5t-10.5 14.5q-1 1 -4 28.5t-3 41.5q0 7 -4.5 20t-4.5 18q0 3 4.5 11t4.5 15q-1 5 -1.5 10.5t-1 12t-0.5 10.5q0 8 -7 20.5t-7 21.5q0 23 4 67q0 6 6.5 15.5t6.5 13.5t-5.5 12t-5.5 13q0 2 1 6.5t1 6.5q0 5 -2 15.5t-2 15.5q0 10 6.5 29t6.5 25
q0 5 -5 14.5t-5 15.5q0 15 6 46t6 45q0 4 -2 12t-2 12q0 3 3.5 8t3.5 8t-2 8.5t-2 7.5q0 3 5 11.5t5 16.5q0 5 -4 14.5t-4 13.5q0 2 9 17.5t9 30.5q0 5 -2.5 14.5t-2.5 13.5q0 13 4.5 39t4.5 38q0 3 -1.5 9.5t-1.5 9.5q0 6 15.5 10t29.5 4q25 0 33 -12t8 -46
q0 -23 -8.5 -76.5t-8.5 -80.5q0 -4 -6 -25t-6 -36q6 -4 6 -11q0 -4 -4 -12q-12 -29 -12 -88q0 -7 -5.5 -15.5t-5.5 -11.5q0 -6 4 -10q-1 -4 -2.5 -11.5t-2.5 -10.5q0 -4 4 -4q3 0 28 31t61 62t64 31q12 0 21.5 -11.5t9.5 -22.5q0 -9 -4 -22t-7.5 -21.5t-12 -26t-10.5 -21.5
q-31 -65 -79 -105q-5 -5 -8 -11q8 -33 80 -112q8 -9 30 -25.5t32 -28.5q12 -12 45.5 -23t48.5 -36q-18 -35 -55 -35q-11 0 -57 12.5t-53 25.5q-2 6 -6 9.5t-10 6.5t-9 5q-7 7 -23.5 22t-29 27.5t-20.5 25.5q-8 12 -21 18.5t-19 6.5q0 -1 -8 -11t-8 -13q0 -6 4 -7
q5 -1 14 -28.5t9 -35.5q0 -3 -5 -9t-5 -7t6 -4q1 -1 7 -15t12 -32t6 -26q0 -17 -9 -38.5t-29 -21.5q-10 0 -17.5 9t-7.5 20q0 5 3 11l-2 2q2 -2 3 -2zM118 382q-1 1 -5 1l-2 -2q1 -1 3 -1t4 2zM283 469q-1 3 -4 3q-18 0 -48.5 -29.5t-46.5 -58.5q-3 -5 -13.5 -21.5
t-17 -29.5t-6.5 -21q0 -11 20 -11q4 0 6 1q19 10 31.5 22t27 33.5t19.5 27.5q32 53 32 84zM108 186v9q0 7 -2 7q-16 -27 -16 -28q0 -2 2 -5t4 -3q12 3 12 20zM106 83q3 6 3 12q0 14 -5 19q-3 0 -3 -3q3 -24 5 -28zM118 35v-1l-1 -2q0 -1 3 -7q4 4 4 8q0 8 -4 8q-1 0 -1 -3z
M109 138q-2 4 -3 5q-6 -2 -6 -5q0 -5 4 -5q3 0 5 5zM107 316l1 3q2 3 2 5t-3 5q-3 -1 -3 -7q0 -3 3 -6zM92 216q2 2 2 3q0 3 -2 9q-3 0 -3 -7q0 -2 3 -5zM121 183l-2 -3h3z" />
    <glyph glyph-name="l" unicode="l" horiz-adv-x="295" 
d="M148 260q8 -8 8 -31q0 -14 -7 -25.5t-7 -18.5q0 -12 4 -12l2 1q2 2 4 2q4 0 4 -40q0 -18 -8 -36.5t-8 -32.5q0 -6 -0.5 -16t-0.5 -17q0 -38 28 -38q2 0 3 1q2 -36 6 -37q6 0 19 36.5t28.5 85.5t25.5 68q3 -1 7 -1q5 0 6 11.5t4 11.5q2 0 4 -19t6 -19q7 7 7 52
q0 4 -1 12.5t-1 12.5q0 59 32 76q4 2 6 9.5t4 20t3 15.5q2 9 10.5 24t10.5 23q2 7 21.5 22t30.5 15q16 0 16 -8q0 -23 -40 -63q-10 -7 -20 -28t-17.5 -38t-11.5 -17q-2 0 -4.5 3.5t-5.5 3.5q-4 0 -5.5 -22.5t-2.5 -58t-2 -47.5q-1 -1 -13 -8q-1 -10 -1 -50.5t-5 -61.5
q-2 0 -6.5 0.5t-7.5 0.5q-2 -4 -2 -6t1.5 -7.5t1.5 -8.5q0 -2 -0.5 -7t-0.5 -8q0 -1 0.5 -5t0.5 -6q0 -16 -4.5 -31t-11.5 -33t-10 -28q-4 -15 -19.5 -25t-17.5 -15q-1 -4 -6.5 -10t-10.5 -10.5t-6 -4.5q-2 0 -7 3.5t-8 3.5t-11 -2.5t-11 -2.5q-19 2 -30.5 24t-19.5 49
t-16 35q-4 4 -4 19q0 22 -8 42t-8 51q0 9 0.5 26t0.5 23q0 9 -3 24t-3 23q0 11 3 34t3 35q0 19 -1 29q0 10 8.5 11.5t8.5 6.5q0 3 -0.5 9t-0.5 9q2 40 2 60q0 12 -5.5 33.5t-5.5 32.5q0 21 14 100q2 4 2 9q0 4 -1.5 13.5t-1.5 14.5q0 4 3 13t3 13q0 3 -1 10.5t-1 11.5
q0 11 3.5 36t3.5 35q0 4 -0.5 12t-0.5 11q0 8 0.5 23.5t0.5 22.5t-3 18.5t-3 16.5q0 23 46 23q24 0 30 -6.5t6 -27.5q0 -27 -6 -86.5t-6 -79.5q0 -2 2 -7.5t2 -8.5l-1 -2q-3 -6 -4 -12.5t-1 -15t-1 -13.5q0 -3 2 -8t2 -8q0 -2 -1.5 -6t-1.5 -5q0 -2 1.5 -7t1.5 -7
q0 -4 -2 -14t-2 -14t2 -12t2 -12q0 -9 -4 -26.5t-4 -24.5q0 -3 2 -9t2 -9q0 -4 -4.5 -12t-4.5 -12t4.5 -11t4.5 -12q-2 -14 -5 -30t-4 -22v2zM77 147q1 0 6.5 2t8 4.5t2.5 6.5t-4.5 7.5t-8.5 3.5q-7 0 -7 -13q0 -5 3 -11zM237 86l-3 1q-1 -10 -1 -30l2 -2q2 0 2 16v15z
M296 181q0 -4 -0.5 -7t-1 -5t-0.5 -3q0 -3 2 -5v1l1 2q0 1 -0.5 6t-0.5 11zM161 -44q-4 0 -4 -8q0 -4 3 -7q0 2 2 5t2 5t-3 5zM277 99q4 4 4 5q0 3 -3 3t-5 -5q0 -3 4 -3zM132 101q0 3 -2 5q-2 -4 -2 -6t1 -3q1 1 3 4zM335 313q0 4 -2 4t-2 -2q0 -1 1 -3q2 0 3 1zM129 202
l1 -3l1 2z" />
    <glyph glyph-name="m" unicode="m" horiz-adv-x="682" 
d="M443 301q0 -2 1.5 -5t1.5 -4q0 -5 -5.5 -14.5t-13.5 -21t-9 -13.5q-8 -11 -29 -76q-2 -7 -8.5 -17.5t-6.5 -18.5q0 -12 -12.5 -30.5t-29.5 -18.5q-7 -1 -39 11q-20 7 -29.5 44.5t-13 71.5t-9.5 34t-15.5 -15.5t-21 -37.5t-17.5 -30q-2 -3 -5.5 -13.5t-6.5 -13.5
q-7 -8 -19.5 -28.5t-26 -30t-38.5 -9.5q-9 0 -17 8q-6 4 -19.5 31.5t-13.5 46.5q0 10 -0.5 32t-0.5 33q0 17 2 51q1 9 10.5 30.5t9.5 39.5q0 4 -2 11.5t-2 10.5q14 58 19 99q1 13 21 13q66 -15 66 -45q0 -5 -1 -8q-9 -25 -15.5 -65.5t-12.5 -57.5q-2 -6 -3.5 -23.5
t-7.5 -25.5q0 -8 4.5 -23.5t4.5 -18.5q0 -4 -3.5 -11t-3.5 -10q0 -9 6 -9q9 0 21 18q44 70 109 129q24 2 37 2q12 0 19.5 -9.5t7.5 -22.5q0 -14 -2.5 -42t-2.5 -39q0 -3 4 -3q7 0 18 17.5t15 29.5q2 7 25.5 35.5t37.5 55.5q29 57 46 62q10 3 16.5 19t13.5 21q6 4 21.5 27
t38 40t52.5 17q19 0 31.5 -16t12.5 -47q0 -5 -2 -9q-5 -12 -7.5 -28.5t-3 -41.5t-1.5 -34q0 -5 -6 -14t-6 -17q0 -5 4.5 -10t4.5 -8q0 -4 -5 -13.5t-5 -14.5q0 -4 2 -10q-6 -32 -9 -47q-1 -3 -5 -7.5t-4 -7.5q0 -16 -12 -32q0 -22 -4.5 -60.5t-4.5 -58.5q0 -19 20 -35
q44 51 64 110q2 4 10.5 13t8.5 14q0 49 53 49q5 0 11 -5t6 -11v-1q-1 -1 -1 -2q-5 -7 -21.5 -28t-25 -36t-11.5 -34q-1 -8 -16.5 -27t-15.5 -27q0 -1 0.5 -3t0.5 -3q0 -16 -7.5 -40.5t-8.5 -35.5q-2 -14 -15 -32.5t-16 -26.5q-3 -10 -22.5 -16t-35.5 -6q-6 0 -11 1.5t-8.5 3
t-7.5 5.5t-6 6.5t-5.5 8.5t-5 9t-5 10.5t-4.5 9.5q1 2 1 6q0 12 -10.5 29t-10.5 25q0 3 8 27q3 15 3 71q0 12 7.5 33.5t7.5 29.5q0 4 -2.5 10t-2.5 9q0 4 2 6.5t6.5 6t6.5 5.5q-7 21 -7 24q0 26 14.5 68t14.5 49q0 8 0.5 26t0.5 27q0 7 -1.5 21t-1.5 21q0 2 0.5 6t0.5 6
q0 5 -5 5q-4 0 -9 -4t-9 -4q-3 0 -5 1q-1 -3 -1.5 -7t-1 -6.5t-1.5 -5.5t-2 -4.5t-3 -3.5t-5 -3q-16 -7 -32.5 -48t-32.5 -52v1q1 0 1 -1q0 1 -2 1zM617 172q-5 -6 -9 -6q0 6 7 9q1 -2 2 -3z" />
    <glyph glyph-name="n" unicode="n" 
d="M396 -93q-14 2 -15 2q-6 0 -17 -7q-36 0 -53.5 39t-19.5 88q0 5 0.5 15t0.5 14q0 7 -2 20t-2 19q0 9 9 28t9 20q0 2 -0.5 5.5t-0.5 5.5t1 5t1 5q0 3 -5 8.5t-5 9.5q0 6 3.5 19t4.5 17q0 3 -3 7.5t-3 6.5t4 6q13 9 13 40q0 8 -2 24t-2 24q0 4 2 14t2 15q0 8 -3 8
q-8 0 -37.5 -31t-31.5 -48q-2 -18 -46 -84q-22 -34 -31 -46.5t-32 -28t-50 -15.5q-43 0 -43 99q0 15 1 37t1 34q0 4 -2 12t-2 12q0 3 2.5 8.5t2.5 9.5q0 2 -0.5 7.5t-0.5 8.5q0 17 7 53t7 54q0 10 17 18t32 8q20 0 25.5 -12.5t5.5 -35.5q0 -44 -4 -132q-1 -8 -10 -29t-9 -32
q0 -2 4 -8q11 0 26.5 20t35.5 47t36 38q6 6 16.5 22t16.5 23q9 11 33 25.5t26 17.5q13 19 49 19q16 0 24.5 -4.5t12.5 -22t4.5 -32t0.5 -52.5v-22q0 -10 -10.5 -23t-10.5 -21q0 -1 1 -5t1 -6t-1.5 -7t-1.5 -7q0 -4 5.5 -11t5.5 -9q0 -3 -2.5 -5t-7 -4.5t-6.5 -3.5q0 -3 2 -9
t2 -7v-1q-9 -16 -9 -76q0 -88 8 -88q6 0 17.5 22t28.5 60.5t20 43.5q2 5 9 8.5t7 6.5q1 20 13 33q6 6 15 25t20.5 30.5t28.5 11.5q12 0 12 -11q0 -13 -18 -41t-28 -34q-3 -4 -3 -15.5t-5 -15.5q-9 -9 -14.5 -26t-10.5 -23l-4 -13q-3 -14 -6 -27l-4 -13q0 -3 1 -9.5t1 -9.5
q0 -11 -10 -25t-10 -20q0 -18 -10 -23q-1 -1 -5.5 -10t-11 -20.5t-13.5 -17.5zM323 209q0 1 -2 3l-2 -2q0 -4 2 -6q0 1 2 5zM359 56l-1 -3h2z" />
    <glyph glyph-name="o" unicode="o" horiz-adv-x="448" 
d="M538 394q0 2 2 2q4 0 11 -6t7 -12q0 -16 -42 -20q-33 -3 -95 -33q-29 -15 -37.5 -24t-11.5 -30q0 -6 -8.5 -46.5t-11.5 -43.5q-12 -7 -12.5 -30.5t-7.5 -31.5q-3 -4 -12 -19.5t-27 -38.5t-50 -55q0 1 -1 1q-9 0 -56 -29q-52 15 -65 24q-3 2 -7.5 6.5t-17 19t-22 31
t-17 43.5t-7.5 56q0 10 4 29t4 28q0 5 10.5 39t10.5 47q0 9 -14 42t-14 49q0 72 24.5 92.5t81.5 20.5h48q16 0 41.5 -13.5t31.5 -15.5q21 -8 44.5 -34.5t31.5 -53.5q0 -1 1.5 -7t2 -7.5t2 -6.5t3 -6.5t4 -4.5t5 -4t6.5 -1q3 0 9 2q7 2 35.5 12.5t40.5 14t34 8.5t41 6z
M317 246q0 3 -0.5 9t-1 9t-3.5 5.5t-8 2.5q-78 -28 -111 -28q-27 -7 -27 -66q0 -2 0.5 -7t0.5 -8q0 -7 -3.5 -21t-3.5 -20q0 -19 10.5 -40t28.5 -21q22 0 44 30t39 64t23 38q5 3 7 11.5t3 22.5t2 19zM172 471q-4 -1 -16 -3q-22 -3 -35.5 -26.5t-13.5 -47.5q0 -30 13 -30
q2 0 2 1l5.5 5.5t4 4.5t3.5 4l3 3t2.5 1.5l3 1t2.5 0.5q6 0 15 -4l5 -1q6 -2 11 -4t12.5 -4.5t14 -6t12 -7t9 -8t3.5 -9.5t-7 -18t-7 -18q0 -9 13 -9q84 10 84 37q0 12 -3 18q-56 120 -136 120z" />
    <glyph glyph-name="p" unicode="p" horiz-adv-x="494" 
d="M65 374q15 2 15 30q0 7 -2 20.5t-2 20.5q0 5 1.5 9.5t3 7t5.5 7.5t6 9q-4 26 -4 37q0 60 30 60q22 0 41 -15.5t19 -42.5q0 -16 -14.5 -52t-14.5 -62q0 -7 -6.5 -29t-6.5 -34q0 -2 2 -6.5t2 -5.5q0 -4 -6.5 -14t-6.5 -18q0 -1 1 -1q3 0 3 4q-1 1 -1 5t-1 5q10 -5 18 -5
t16 9.5t19.5 27.5t13.5 21q26 36 75 72t96 36q16 0 36 -9q2 0 9.5 -7.5t14.5 -8.5l22 -29q5 -17 5 -22q0 -51 -13 -73q-5 -5 -7 -19t-6 -19q-31 -42 -37 -61q-5 -15 -29.5 -39.5t-26.5 -37.5q-3 -11 -20 -18t-17 -13q0 -15 -50.5 -33.5t-73.5 -18.5q-5 0 -16 3t-14 3
q-10 0 -18 -29.5t-8 -59.5q0 -4 2 -11.5t2 -11.5t-1 -11t-1 -11q0 -25 7 -33q13 -17 13 -65q0 -6 5.5 -19.5t5.5 -20.5v-5v-5.5t-0.5 -5.5t-1 -5.5t-2 -5t-3.5 -5t-5 -3.5t-6.5 -3t-9 -2t-11.5 -1q-12 0 -22.5 11t-10.5 23q0 9 -5.5 28t-5.5 28q0 2 0.5 6.5t0.5 6.5t-0.5 5
t-0.5 4q0 4 3.5 12t3.5 11q0 4 -6.5 13.5t-6.5 16.5t-4 16t-4 14q0 3 5 23q-2 4 -2 14q0 3 0.5 11t0.5 12q0 9 -4 27t-4 27q0 13 6.5 38.5t6.5 37.5q0 4 -3.5 10t-3.5 9t4 9t4 10t-2.5 12t-2.5 12q0 18 10 30.5t10 14.5t-4.5 9t-4.5 11q0 5 5 21.5t5 25.5zM239 339
q0 -26 -16 -35q-4 -1 -6 -9q-4 -10 -22 -34.5t-29 -55t-11 -73.5q0 -15 14 -15q7 0 14 1t14.5 3.5t13.5 4t14.5 6.5t13 7t14 8t12 7.5t13 8t11.5 7.5q25 25 50.5 68.5t30.5 90.5q1 8 6 30.5t5 34.5q0 8 -1 12.5t-3.5 6.5t-5 2.5t-7.5 0.5q-24 0 -66.5 -36t-58.5 -41z
M124 268l-1 1q-1 1 -1 2q-10 0 -13 -18q0 -3 2 -3q4 0 8 6t5 12zM95 228l-3 6l-3 -6l3 -6zM94 -18l-1 2q-1 2 -2 2q0 -1 -2 -5q0 -1 2 -3q1 0 2 2z" />
    <glyph glyph-name="q" unicode="q" horiz-adv-x="555" 
d="M666 206q9 0 9 -4q0 -8 -12.5 -19.5t-29.5 -17.5q-50 -16 -76 -39q-14 -13 -46 -30.5t-45 -28.5q-24 -12 -64 -44.5t-61 -43.5q-17 -9 -17 -60q0 -8 1 -22t1 -21q0 -6 -4 -19t-4 -19q0 -2 1.5 -7t1.5 -8t-3 -6q-7 -5 -9 -31q0 -6 -6 -13.5t-6 -11.5q0 -12 1.5 -35.5
t1.5 -35.5q0 -47 -15 -73q-4 -7 -4 -17q0 -4 1 -11.5t1 -11.5q0 -9 -5 -41q-4 -2 -13.5 -8t-16 -9t-12.5 -3q-18 0 -28.5 14.5t-10.5 31.5q0 9 -7.5 25t-7.5 28q0 6 1 10q7 7 10 16.5t4.5 27t2.5 25.5q3 -5 4.5 -12.5t1.5 -12.5t1.5 -9t5.5 -4q9 2 11 9q0 4 -5.5 8.5
t-5.5 8.5q0 2 4 6t4 7t-1.5 8t-1.5 7q0 4 9.5 17t18.5 24l10 11q0 4 -7 9t-7 7q0 10 17 20t17 21q0 1 -0.5 4.5t-0.5 6.5q0 1 0.5 3t0.5 4q0 26 -16 26q-1 0 -22 -14q-5 0 -5 5l5 6q4 6 13 13t17 7q3 0 5 -1q4 0 4 3t-1.5 8.5t-1.5 8.5q0 7 3 14q-1 4 -3.5 11t-3.5 9h-15
q-2 4 -5.5 11.5t-6 13t-2.5 9.5q1 8 7.5 17t15.5 12q21 7 87.5 47t94.5 46q4 1 10 6.5t8 6.5q14 7 40 25t42 25q7 3 53.5 27t66.5 27zM267 -246l2 2zM194 -393q-2 0 -3 -1q0 -4 2 -4l2 2l-1 1v2zM202 454q23 28 37 28q6 0 12 -3q12 2 17 2q7 0 59 -13q9 -2 26.5 -15.5
t24.5 -13.5q12 0 24 27.5t33 27.5q1 0 3.5 -0.5t3.5 -0.5q3 0 8.5 2.5t9.5 2.5q13 0 30.5 -15t18.5 -23q-12 -16 -12 -25q0 -10 -3.5 -15.5t-6 -6t-10.5 -2.5q-1 -3 -1.5 -7.5t-1 -7t-2 -5t-4.5 -3.5q-4 -3 -7 -11t-5 -22.5t-3 -18.5q-1 -5 -19.5 -30t-18.5 -32q0 -3 4 -6.5
t4 -5.5t-2.5 -6.5t-2.5 -6.5t2 -5.5t2 -5.5q0 -4 -5 -8.5t-9 -4.5t-13 18q-3 -42 -6 -42q-5 0 -5 9.5t-4 9.5q-3 0 -10 -2.5t-9 -2.5q-5 0 -6 13.5t-5 13.5q-1 0 -1.5 -11.5t-2.5 -24t-6 -14.5q-9 0 -9 6q1 6 4 20t3 17t-3.5 9t-3.5 9t2.5 9.5t2.5 10.5q0 20 -11 20
q-5 0 -9.5 -16.5t-13.5 -16.5q-3 0 -6 3.5t-5 3.5q-3 0 -6 -9t-3 -15v-2q1 -2 1 -3t-4.5 -12t-13 -23t-15.5 -12q-1 0 -3 0.5t-3 0.5q-5 -22 -30 -49.5t-27 -42.5q-4 -24 -27.5 -36.5t-51.5 -12.5t-49 22q-12 12 -25.5 33t-13.5 31q0 3 1.5 10t1.5 10q0 2 -0.5 6t-0.5 6
q0 10 3 19q0 1 -0.5 3t-0.5 3q15 21 16 43q1 15 14.5 40t25.5 42.5t41 58.5q2 3 15 16.5t23 26t10 17.5q4 13 7.5 14.5t25.5 1.5zM92 154q0 -5 0.5 -12t1 -10.5t1.5 -7.5t4 -5.5t8 -1.5q1 0 1 0.5t1 0.5q18 8 55 49t58 53q3 2 4 8.5t2 8.5q7 11 25.5 28t25.5 30
q8 16 31.5 40.5t31.5 37.5q3 4 14.5 13.5t11.5 13.5q0 7 -19.5 17.5t-31.5 10.5q-18 0 -73 -36q-12 -8 -35.5 -34.5t-39.5 -36.5q-9 -1 -16.5 -18t-12.5 -17q-1 0 -6 3t-8 3q-7 0 -14 -16.5t-7 -26.5q0 -9 -10 -18t-10 -16q0 -6 5 -20t5 -21q0 -11 -3 -20zM380 248q0 3 -6 3
q-10 0 -10 -10q0 -4 4 -4q11 8 12 11zM438 347q0 9 -2 10q-5 -3 -5 -7q0 -11 2 -13q5 5 5 10zM367 270q2 2 2 3q-1 3 -2 3q-2 0 -2 -4q0 -2 2 -2zM255 215q0 5 -3 5q-1 0 -4.5 -3t-3.5 -6q0 -2 3 -2q5 0 8 6zM350 343l2 -1zM355 147q-6 -17 -18 -17q-1 0 -7 5t-11.5 12.5
t-5.5 13.5q0 4 7 6t16.5 4.5t14.5 7.5q4 0 4 -5q0 -7 -10.5 -13t-10.5 -14q2 -2 3 -2q13 0 18 2zM238 -110q4 0 8.5 5.5t8.5 5.5t4 -4q-4 -8 -11 -8q-2 0 -5.5 0.5t-4.5 0.5zM340 83q-6 12 -6 13q0 7 5 7q2 0 2 -2q0 -3 -0.5 -9t-0.5 -9zM218 -259q0 -11 -5 -11t-5 7
q2 3 8 7l1 -1q1 -1 1 -2zM323 49q0 -4 -3 -8.5t-6 -4.5q-4 0 -4 4q0 7 11 11q1 -2 2 -2zM259 -190q0 -9 -6 -9q-4 0 -4 8q0 5 5 5q1 0 5 -4zM322 105l-9 -3q-1 0 -3 2q0 6 7 6q5 0 5 -5zM254 -163q0 -3 -3 -3l-2 2q1 0 2.5 2t2.5 2v-3zM237 -110q3 -8 3 -14t-2 -14
q-1 5 -1 15q0 8 1 12zM339 83h1q-1 1 -1 2h2zM373 180l3 -2l-1 -1q-1 0 -2 3zM375 181l-1 -1h-1zM305 136h2h-2zM355 146q1 1 1 3l1 -1q0 -2 -2 -2zM291 25l1 -3z" />
    <glyph glyph-name="r" unicode="r" horiz-adv-x="435" 
d="M49 222l-8 6q7 1 15 22t11 24q-1 5 -1 14t5.5 25.5t5.5 21.5q1 17 7.5 34.5t20 43.5t16.5 33q6 14 20 38t19 24q1 0 3.5 -0.5t3.5 -0.5q5 0 16 2t16 2q9 0 15.5 -3.5t10.5 -11.5t6 -12.5t4.5 -16.5t3.5 -14q0 -3 -1.5 -9.5t-1.5 -10.5q6 9 18.5 22.5t20.5 23t9 15.5
q4 14 31.5 35.5t50.5 21.5q36 0 52.5 -28t16.5 -62q0 -28 -7.5 -43t-29.5 -31q-9 -6 -14.5 -24.5t-13.5 -18.5q-18 0 -26 30t-11 60.5t-8 30.5q-1 0 -1 -0.5t-1 -0.5q-28 -17 -61 -63.5t-49 -85.5q-19 -44 -22 -48q-8 -12 -16 -46t-23 -70q-6 -14 -13.5 -49.5t-17.5 -53.5
l-11 -38q-19 -47 -44 -47q-34 0 -34 67q0 4 1 13t1 14q0 7 -2 21.5t-2 23.5q0 48 17 69l1 1v3q0 3 -2.5 9t-2.5 8q0 6 6 30zM177 306l-1 3l-2 -3h3z" />
    <glyph glyph-name="s" unicode="s" horiz-adv-x="518" 
d="M374 120q9 -8 9 -19q0 -19 -11.5 -30.5t-32.5 -11.5q-17 0 -20 42q-22 0 -44 -23.5t-34 -29.5q-17 -8 -39.5 -29t-30.5 -26q-10 -4 -19.5 -15t-21 -32.5t-14.5 -26.5q-4 -6 -5 -13t-1.5 -16.5t-1.5 -13.5q0 -13 21 -13q4 0 12 1.5t11 1.5q2 0 5.5 -0.5t5.5 -0.5
q9 0 13.5 7.5l10.5 17.5t16 13q8 2 14 6t11 12.5t7 13t7 18t6 16.5q1 1 13 18.5t18 29t6 20.5v-1q1 0 12 16t12 16q9 0 11 -12.5t5 -12.5q1 0 5 0.5t7 0.5q7 0 7 -6q0 -22 -43 -46q-3 0 -11 2l2 -2l-1 3q3 -1 11 -3v-16t-1.5 -12.5t-5.5 -13t-10 -6.5q-6 -1 -9.5 -13.5
t-10.5 -15.5q-8 -3 -12 -20t-18 -17q-7 0 -14 -10.5t-11 -11.5q-9 -3 -19 -11q-25 -20 -62 -20q-12 0 -21 -9t-14 -9q-17 0 -36 27t-19 43q0 1 3 7.5t7.5 16t6.5 15.5q1 9 6.5 28t23 49t39.5 43q6 4 17.5 19t24.5 18q17 5 33.5 24t19.5 19q10 1 20.5 12.5t20.5 11.5
q11 0 26 19t28 22q12 3 19 9t11.5 17.5t6 19.5t4 27.5t3.5 28.5q0 11 -6.5 19.5t-17.5 8.5q-3 0 -7.5 -1t-6.5 -1q-3 0 -9 2.5t-10 2.5q-6 0 -27 -11t-37 -16q-17 -5 -48 -26q-3 1 -6.5 3t-5.5 3t-4 1q-32 -28 -73 -28q-3 0 -7 8t-7 10q-56 21 -56 58q0 2 1 5t1 4
q0 3 -1.5 10t-1.5 10q0 5 4 15t4 16q1 26 28 51q43 43 43 46q4 14 23.5 22.5t23.5 21.5q2 6 19.5 17t23.5 20q7 11 15 19t18.5 17t16.5 15q3 -1 16 -2.5t21.5 -3.5t20 -6t18 -11t7.5 -17q0 -11 -7 -13q-37 -5 -67 -50q-6 -7 -21 -16.5t-27 -22.5t-18 -34q-2 -6 -18 -20
t-20 -27q-1 -2 -9.5 -15t-8.5 -18q0 -7 9 -7q4 0 6 1q2 0 38 10.5t51.5 14t47 8t58.5 4.5q44 0 75 -31q2 -4 3 -18.5t7 -20.5q11 8 13 8q4 0 5.5 -6t3 -16.5t1.5 -12.5q7 -1 11.5 -12t20.5 -11q11 0 19 4q10 5 28.5 6t26.5 4q2 0 17.5 -2.5t23 -7t7.5 -12.5q0 -10 -11 -19
t-21 -9q-3 0 -8.5 1t-7.5 1q-23 0 -57.5 -11.5t-42.5 -31.5q-3 -6 -11 -6q-1 0 -5 0.5t-5 0.5q-8 0 -23.5 -14.5t-15.5 -26.5q0 -1 0.5 -4t0.5 -5q0 -5 -6 -5q-2 0 -6 0.5t-5 0.5q-16 0 -16 -19q0 -13 5 -22q-2 0 -5 2t-5 2q-3 0 -7 -7q3 0 5.5 0.5t4 1l3 1t2.5 2.5l1.5 3
t1 4t0.5 4t0.5 4.5t0.5 5.5t-0.5 7t-0.5 7z" />
    <glyph glyph-name="t" unicode="t" horiz-adv-x="538" 
d="M230 283q-1 13 -6 13q-1 0 -4 -0.5t-5 -0.5q-6 0 -10.5 18.5t-4.5 30.5l2 1q0 -1 -1 -2q0 1 1 2q-15 -15 -15 -22q0 -4 7 -14.5t7 -15.5l-7 -11q-8 -12 -8 -23q0 -3 0.5 -10t0.5 -11q0 -16 -9 -21v-1q0 8 -8.5 11t-8.5 6t7 7.5t7 8.5q0 3 -5 8.5t-5 7.5q0 1 0.5 3.5
t0.5 4.5q0 5 -1.5 15t-1.5 15q0 3 1.5 11t1.5 12q0 2 -0.5 8.5t-0.5 9.5q0 32 13 57q2 4 2 8q0 3 -3 8.5t-3 8.5q0 2 0.5 6t0.5 6q0 11 -12 11q-3 0 -5 -1t-3 -2.5t-2 -2.5q-12 0 -35.5 -14.5t-51.5 -14.5q-16 0 -41 10t-25 29q0 3 3 5.5t8 3.5t9.5 1.5t11 1.5t8.5 1
q11 2 30 12t24 10l10 7q10 7 27 15.5t34 11.5q29 7 29 109q0 9 -2 27q7 14 12 20.5t14 12t21 5.5q24 0 32.5 -16t8.5 -50q0 -27 -8 -32q1 1 3 1q0 -1 -1 -2v1l-1 2q4 -3 8 -12t9 -11q2 1 15 6.5t22 8.5t23 6.5t24 3.5q7 0 23 12.5t22 12.5q3 0 8.5 -6.5t8.5 -6.5q4 0 8.5 9
t12.5 9q18 0 24.5 -10t7 -19.5t4.5 -9.5q3 0 4 3q3 -6 3 -10q0 -5 -10 -15t-13 -10q-1 0 -8 3t-10 3q-2 0 -8 -3.5t-9 -3.5q-2 0 -5 0.5t-5 0.5q-7 0 -11 -3q-11 -7 -23 -12t-19.5 -6.5t-23 -4.5t-22.5 -4l-17 -9q-16 -8 -34.5 -20.5t-21.5 -19.5q1 -2 1 -7q0 -3 -2.5 -10
t-2.5 -11q0 -3 1 -4q-2 -12 -4 -36.5t-4 -37.5q0 -8 -6.5 -21t-6.5 -20q0 -21 -6 -52zM206 370v1q1 1 1 2t-2 1q-1 0 -1 -3q1 0 2 -1zM211 414q-1 -1 -1 -2q0 -3 2 -3l2 2q0 3 -3 3zM210 232q2 -2 5 -2t7 1t7 1q-1 -2 -6 -14.5t-5 -19.5q0 -2 1 -8t1 -8q0 -24 -4.5 -67
t-4.5 -65q0 -5 5.5 -13t5.5 -13q0 -3 -6 -9t-6 -12q0 -11 5 -14q9 -5 9 -31t17 -26q18 0 65 86q13 24 79 118l4 -16q0 -7 -14 -22q-3 -18 -3 -36q0 -11 3 -33.5t3 -32.5q0 -19 -12.5 -30.5t-13.5 -17.5v-9.5t-1 -12t-3 -4.5q-1 0 -4 2l-3 1q-12 0 -15 -2t-5 -13
q0 -6 -7 -10.5t-8 -9.5q-1 -3 -15.5 -17t-16.5 -14q-1 0 -3 0.5t-3 0.5q-9 0 -9 -4q-3 -10 -16.5 -14.5t-22.5 -4.5q-18 0 -34 13t-16 23q0 4 1 7q0 11 -11.5 32.5t-11.5 29.5q0 2 0.5 5t0.5 5q0 1 -6 19t-6 25l11 22q11 22 11 33q0 2 -0.5 6t-0.5 6q0 7 6.5 19t6.5 17
q-5 7 -7 7q-4 0 -10.5 -15.5t-10.5 -15.5q-2 0 -4.5 2.5t-2.5 3.5q3 5 5 17.5t5 21t7 8.5q2 0 6 -3.5t8 -3.5t8.5 5t4.5 11q0 5 -10 9h-1q7 10 7 22q0 2 -0.5 5.5t-0.5 5.5q0 9 5 11q4 0 4 -24q0 -4 -0.5 -13t-0.5 -14q0 -50 13 -50q6 0 6 13q0 1 -0.5 3.5t-0.5 3.5
q0 5 3.5 14t3.5 13q0 5 -5 14t-5 12q0 1 6 12.5t6 19.5q0 2 -1 6t-1 6q0 4 1.5 13t1.5 14zM187 49l-3 -18q0 -3 2 -3q16 0 16 25q0 20 -6 20q-4 -2 -6 -5t-2.5 -5.5t-0.5 -7v-6.5zM334 -57q6 0 6.5 0.5t0.5 6.5q0 8 -9 8q-4 0 -8 -7q0 -4 1.5 -5t4.5 -1.5t4 -1.5zM343 -16
l-3 3q-4 4 -6 4q-5 0 -5 -7q0 -2 6 -6q4 0 8 6zM366 42q0 7 -2 7q-3 0 -3 -3q0 -5 3 -5l1 1h1zM313 -78q0 1 -2 3q-1 0 -3 -2q0 -6 2 -6q3 0 3 5zM338 23l2 -2q0 1 1 2.5t2 2.5l-1 1q-1 1 -1 2zM229 284q5 -10 5 -16q0 -10 -12 -20t-12 -16l1 1q-9 -7 -11 -7q-6 0 -6 5
q0 27 4 35q1 -3 9 -8q1 5 2 8t2.5 5.5t2 4t3 3t3.5 1.5t5 1.5t5 1.5zM430 218q6 4 16 21.5t21 17.5q4 0 4 -3q0 -14 -7 -29.5t-17 -15.5q-2 0 -17 9zM652 418q-9 0 -9 8q0 11 9 17.5t21 7.5q5 0 5 -4q0 -8 -0.5 -12.5t-5 -8t-7 -4t-13.5 -4.5zM515 300q-4 4 -4 10q0 4 3 8.5
t8 4.5q7 0 7 -7q0 -3 -5.5 -9.5t-8.5 -6.5zM151 185q6 -12 6 -13q0 -4 -3 -5q-3 0 -3 18zM490 273l-6 -3q-2 4 -2 6q2 3 4 3q5 0 5 -3q0 -2 -1 -3zM408 161q8 0 8 -4q0 -5 -7 -5q-8 0 -8 4q0 5 7 5zM585 383q0 1 -2 3l-1 2q0 5 5 5q4 0 4 -5q0 -6 -4 -6q-1 0 -1 0.5t-1 0.5z
M561 366q5 5 7 5q4 0 7 -4q0 -4 -4 -4q-1 0 -5 1.5t-5 1.5zM560 368q-3 -13 -6 -13t-3 2q0 4 10 9zM402 121l-2 -2v1l-1 2l1 1l1 1q1 -1 1 -3zM170 206q0 -7 -6 -7l-2 1l-3 3q2 2 7 3h4zM178 217q-1 -4 -7 -12l-1 1q2 2 4.5 5.5t3.5 5.5zM170 146l-1 -1q1 0 2 1h-2h1z" />
    <glyph glyph-name="u" unicode="u" horiz-adv-x="560" 
d="M385 380q-23 0 -57.5 -46.5t-37.5 -61.5q-1 -6 -8.5 -14t-8.5 -14q-8 -5 -17 -32q-10 -32 -15 -45.5t-17.5 -34t-30 -29t-42.5 -8.5q-32 0 -59.5 24t-27.5 64q0 14 -7 39t-7 38q0 12 5 64q0 5 2 29.5t4 45t5 44t6.5 37.5t7.5 14q80 0 80 -42q0 -33 -4 -85.5t-4 -93.5
q0 -61 13 -61q7 4 12.5 10.5t13 18.5t9.5 14q83 115 165 173q4 3 14.5 12t18.5 13t18 4q47 0 61.5 -14t14.5 -64q0 -27 -8 -58t-8 -48q0 -6 0.5 -17.5t0.5 -17.5q0 -11 -7.5 -32.5t-7.5 -34.5q0 -2 0.5 -6.5t0.5 -6.5q-2 -45 -11 -66q-6 -14 -6 -27q0 -40 12 -40
q11 0 65 108q30 60 55 93l13.5 27t16.5 20.5t25 11.5q17 0 17 -10q-4 -11 -13 -24.5t-22 -30.5t-19 -25q-4 -8 -11 -23.5t-13.5 -27.5t-13.5 -22q-4 -6 -6 -21t-7 -21q-9 -11 -22 -46.5t-30.5 -59.5t-44.5 -24q-16 0 -32.5 10.5t-18.5 21.5q0 4 -11 29t-11 56q3 21 3 22
q0 3 -1.5 10.5t-1.5 11.5q0 7 0.5 21t0.5 20q0 7 -1.5 22t-1.5 23q0 19 5 56.5t5 55.5q0 2 -0.5 6.5t-0.5 6.5q0 8 2 23t2 22q0 9 -1 13z" />
    <glyph glyph-name="v" unicode="v" horiz-adv-x="477" 
d="M118 -22q-11 7 -29 19q-29 54 -29 174q0 3 0.5 9t0.5 9q5 37 9 108t5 83q0 8 3.5 26.5t3.5 25.5q0 4 -3 14t-3 14q0 24 12 24q24 0 48 -7t24 -22q0 -57 -10 -160.5t-10 -154.5q0 -15 5 -15q4 0 13.5 15t20.5 34t15 24t10 18.5t9 16.5q15 15 15 38q0 3 -1 9.5t-1 9.5
q0 4 1 12.5t1 12.5q0 8 7.5 14t21.5 10.5t27 7.5t32.5 6.5t30.5 6.5q122 30 201 30q12 0 25.5 -9t13.5 -18q0 -7 -5.5 -13.5t-12.5 -7.5q-43 -3 -125 -29t-110 -32q-21 -4 -31.5 -16.5t-20 -33t-18.5 -31.5q-14 -17 -26 -42t-27.5 -66.5t-20.5 -54.5q-16 -39 -30 -49
t-42 -10z" />
    <glyph glyph-name="w" unicode="w" horiz-adv-x="725" 
d="M542 136q-5 -9 -10 -43q-5 -5 -13.5 -12t-10.5 -10t-4.5 -10t-2.5 -18q0 -2 0.5 -7.5t0.5 -7.5q0 -24 -6.5 -40t-18.5 -33.5t-18 -33.5q-6 -12 -27 -24q-13 8 -15 8t-8 -7t-9 -7q-10 0 -32 14.5t-23 27.5q0 3 -9.5 9t-9.5 14q0 2 0.5 5t0.5 4q0 4 -4.5 9t-4.5 7t2 6.5
t2 7.5q0 4 -7 8.5t-7 10.5q0 13 1.5 38t1.5 37q-1 5 -1 16q0 24 11 42q1 1 1 5q0 3 -1 8.5t-1 7.5q0 8 7 25.5t7 27.5q0 13 6 29t6 22q0 4 -3.5 11.5t-3.5 11.5q0 10 4.5 31.5t5.5 25.5q0 15 -15 18q-19 -6 -19 -14q0 -5 -2 -9.5t-4 -7.5t-7 -7t-7 -5.5t-8 -5.5t-7 -5
q-5 -2 -12.5 -15.5t-14.5 -18.5q-4 -2 -20.5 -31.5t-40.5 -55.5t-50 -26q-12 0 -48 20q-10 5 -15 23t-9 44.5t-7 37.5q-3 6 -3 13q0 14 8.5 43.5t8.5 34.5q0 12 7.5 33t7.5 32l1 5q24 119 50 119q15 0 30.5 -15.5t15.5 -24.5q0 -12 -12 -38.5t-13 -40.5q-1 -18 -10 -69.5
t-9 -80.5q0 -6 7 -27q9 0 29.5 19t46.5 46t38 37q89 71 99 71q27 -2 42 -5.5t27.5 -17.5t12.5 -38q0 -118 -26 -180q-4 -8 -6 -19t-3.5 -23.5t-2.5 -19.5q1 -5 1 -16q0 -20 -8 -54t-8 -43q0 -10 4.5 -25t11.5 -15q10 0 27.5 31t17.5 44q0 8 11.5 19t11.5 15q0 2 -1 5
t-1.5 5.5t-0.5 4.5q0 11 8 11q2 0 5 -2l4 -3l2 3q2 3 5 7t5 6q3 3 14 44t33 41l-1 1q-3 -10 -4.5 -27t-3.5 -24q-6 0 -6 -1l2 -4q3 3 3 6q0 -5 -6.5 -15.5t-6.5 -15.5q0 -7 14 -10zM492 49q2 8 2 10q0 4 -1 10.5t-1 9.5q-2 -12 -2 -18q0 -4 2 -12zM514 121l1 3h-2zM621 341
l-3 -2q4 -4 4 -9q0 -9 -14.5 -34t-14.5 -26q0 -2 0.5 -6t0.5 -5q0 -12 -7.5 -17.5t-20 -9t-16.5 -5.5l1 -1q-7 23 -8 28q13 19 19 30t12.5 36.5t6.5 59.5q0 9 -7.5 24.5t-7.5 22.5q0 10 13 19t26 9q28 0 85.5 3.5t86.5 3.5q13 0 20.5 -0.5t17.5 -3t15 -8.5t5 -16
q0 -18 -27 -18q-4 0 -10 0.5t-10 0.5q-20 0 -43 -5q-10 -2 -47.5 -5t-49.5 -11q-4 -8 -8.5 -21t-9 -21.5t-12.5 -14.5q1 0 3 2zM583 256q0 2 -2 5q0 -1 -1 -3q0 -2 1 -3q1 1 2 1zM542 135l-1 3l1 -1v-2z" />
    <glyph glyph-name="x" unicode="x" horiz-adv-x="510" 
d="M339 286q-3 -6 -9 -16q-4 -7 -14 -8.5t-10 -5.5q-4 -11 -20 -28t-18 -20q7 -12 7 -16q0 -2 -1 -6.5t-1 -6.5l3 -7q4 -8 9.5 -18t11.5 -15q41 -37 127 -68q9 -3 21 -5l18 -3t10.5 -5.5t4.5 -14.5q0 -16 -3 -26.5t-6 -16.5t-12 -9.5t-13.5 -4t-19 -1t-21.5 -1.5
q-8 0 -17 6.5t-15 6.5q-1 0 -1 -0.5t-1 -0.5q-3 0 -9 4t-10 4q-2 0 -5 -1t-5 -1q-18 0 -60.5 30.5t-53.5 35.5q-4 2 -9.5 11t-12.5 9q-6 0 -14.5 -9.5t-13.5 -9.5q-16 -1 -30.5 -29t-22.5 -35q2 -8 4 -23t2 -17q-18 -9 -28.5 -34t-12.5 -41.5t-2 -30.5q0 -6 6.5 -16.5
t6.5 -15.5q0 -10 -9 -15t-19 -5q-15 0 -24.5 19t-9.5 38q0 55 31 113q4 8 9.5 28t11.5 34t16 17q17 5 29 44q0 2 -3.5 7.5t-3.5 9.5q0 8 9.5 25.5t9.5 27.5q0 20 -17.5 59t-17.5 57q0 5 -14 41t-18 51q-3 12 -12 33.5t-12 32.5q-6 21 -30.5 32t-24.5 17q0 5 2 7
q15 21 37 26.5t60 5.5q16 0 31 -10.5t26.5 -29.5t19.5 -35t16.5 -37t10.5 -26q5 -12 6 -35t7 -34q4 -10 17 -27.5t23 -19.5q15 0 15 13q0 3 -2 7.5t-2 5.5q4 6 13.5 11.5t12.5 13.5q3 9 18 20.5t17 15.5q2 5 6 12.5t5.5 9.5t5 6t7.5 6.5t11 4.5q6 2 28 31t40 39q6 2 13.5 11
t10.5 9q6 0 30.5 -16.5t24.5 -27.5q0 -23 -68 -64q-8 -5 -21.5 -19t-21.5 -17q-1 0 -3.5 -4t-5.5 -8.5t-6 -6.5q-13 -7 -24 -23.5t-22 -22.5q0 10 -4 10q-5 0 -5 -5t5 -5q1 0 3 1h2zM107 82l2 -2q-2 -2 -6 -4q-1 2 -2 2q2 2 6 4z" />
    <glyph glyph-name="y" unicode="y" horiz-adv-x="550" 
d="M317 -232q-13 -13 -19 -46t-16 -47q0 -37 -35.5 -76.5t-77.5 -39.5q-21 0 -33 5.5t-22.5 16t-17.5 14.5q-26 15 -26 75q0 77 31 130q4 5 11.5 30t10.5 33q20 44 49 91q2 3 8 10t9 11q4 6 12.5 23t15.5 27.5t15 13.5q9 5 19.5 20t17.5 21q33 27 47 103q1 9 11 23.5
t10 22.5q0 6 -2 6q-1 0 -6.5 -3.5t-7.5 -3.5q-4 0 -4 4q0 24 10 43.5t10 29.5q0 67 -18 67q-10 0 -17 -11.5t-10 -11.5q-29 -22 -33 -40l-7 -7q-26 -32 -37 -38q-3 -2 -14 -21.5t-13 -31.5q-1 -8 -7 -15t-19.5 -18.5t-15.5 -13.5q-106 10 -106 149q0 11 2 31q0 12 4 49
t17.5 83.5t33.5 46.5q27 0 44 -20t17 -39q0 -24 -9 -72.5t-9 -70.5q0 -13 7 -13q9 0 32 19.5t35 33.5q18 22 51 37q8 4 10.5 13.5t8.5 11.5q7 3 11.5 15t11.5 17q2 1 11.5 10t17 15.5t19.5 12.5t23 6q19 0 42.5 -13.5t23.5 -27.5q0 -1 -3 -52q-3 -12 -9 -61t-16 -67
q-9 -17 -9 -55q0 -10 9 -10q5 0 14.5 5t22.5 13t20 11q28 25 53 33q24 9 29 17q2 3 32 15t39 12q15 0 34.5 -7.5t19.5 -23.5q0 -18 -15 -20q-11 0 -19.5 -2t-12.5 -4t-13 -7.5t-16 -9.5q-77 -41 -118 -70q-17 -10 -38 -27t-28 -21q-24 -16 -38.5 -37t-32.5 -69
q-1 -3 -8.5 -7t-7.5 -10q0 -10 4 -11q5 0 9 4q4 -13 4 -29q0 -8 -2 -24q-1 -9 -19 -16t-18 -20q0 -2 1 -6t1 -6q3 2 6 13t14 11t11 -12q0 -6 -2.5 -15t-2.5 -12l-7 -7q-7 -6 -7 -13q0 -1 0.5 -4t0.5 -5q0 -1 -0.5 -3t-0.5 -4q0 -4 3 -12.5t3 -12.5l-3 -13q-2 -13 -6 -26.5
t-9 -13.5q-1 0 -2.5 0.5t-2.5 0.5q-3 0 -6 -3l-1 -2q2 2 16 5zM312 -184q-10 -1 -12.5 -3.5t-2.5 -11.5q0 -1 2 -3q7 0 10.5 9t4.5 10q0 2 -1 2q-2 0 -2 -1l1 -1v-1zM138 -331q0 -33 24 -33q8 0 19 9t16 11q12 5 22.5 17.5t21 30t17.5 25.5q-1 2 -4.5 6t-3.5 7
q0 10 8.5 21.5t8.5 20.5q0 2 -0.5 6t-0.5 5q0 8 8.5 28t8.5 34q0 3 -1 8t-1 7q0 12 8 52t8 60q0 14 -9 14q-5 0 -28 -32t-32 -50q-2 -4 -6 -9q-54 -63 -55 -105q0 -4 -4 -10q-9 -10 -25 -123zM311 -139l-2.5 -2.5t-3 -2t-2.5 -2t-1 -2.5q0 -4 6 -4q10 3 10 9q-4 2 -7 4z
M315 -39q-1 1 -2.5 2t-2.5 1q-4 0 -4 -4q0 -2 3 -2q2 0 3 1q2 2 3 2zM278 -249q-4 0 -4 -3q0 -2 2 -2t2 5zM242 -324l-1 1q-1 1 -1 2q-2 -2 -2 -3q0 -3 2 -3t2 3zM339 22q0 5 -2 5q-2 -1 -2 -2q0 -3 4 -3zM275 -217l1 -3l1 1q1 1 2 1l-2 2zM301 -235v-2l1 2h-1z" />
    <glyph glyph-name="z" unicode="z" horiz-adv-x="562" 
d="M1 100l23 11q9 0 13 7l17 21q17 21 34.5 44.5t17.5 29.5q0 4 -4 6q-26 9 -26 38q0 16 8 16q16 -8 35 -8q55 0 67 21q6 10 14 16t20 12t19 12l29 26q30 26 30 28t-3 2q-17 0 -49.5 -2t-47.5 -2q-52 0 -102 41t-50 95q0 16 9 16q12 0 27 -24q21 -35 93 -39q39 0 120.5 16
t124.5 16q36 0 67 -7q10 -2 35 -29.5t25 -47.5q0 -30 -25 -43t-56 -18t-37 -11q-9 -10 -34 -15.5t-35 -17.5q-2 -2 -16 -7t-26 -11.5t-12 -13.5t10 -7q7 0 27 0.5t32 0.5q69 0 69 -24q0 -13 -36 -13q-5 0 -15 0.5t-14 0.5q-99 -2 -156 -27q-10 -5 -22.5 -22t-19.5 -19
q-9 -2 -16 -13t-9 -13q0 12 -5 14q-3 0 -3 -4l9 -9q-26 -17 -26 -38q0 -6 6 -6q8 1 52 11t63 10q2 0 5.5 -0.5t5.5 -0.5q10 0 29.5 3t30.5 3q3 0 8 -0.5t8 -0.5t11 1.5t11 1.5q23 0 43 -3l8 -1q8 -1 21 -3t29 -5.5t32 -9t29 -12t21 -17t8 -22.5q0 -9 -11 -13t-21 -4
q-8 0 -28 5.5t-30 5.5q-20 0 -50 -7t-33 -7q-5 0 -15 1.5t-14 1.5q-2 0 -17 -5t-35.5 -10.5t-34.5 -7.5q-3 0 -25 -11t-52.5 -20.5t-57.5 -9.5q-46 0 -72 16q-22 13 -39 42.5t-17 52.5q0 11 1 16z" />
    <glyph glyph-name="braceleft" unicode="{" horiz-adv-x="351" 
d="M101 554q5 5 16 33t30 48.5t49 20.5q8 0 28 -4q2 -1 13 -6t19.5 -10t18.5 -11.5t16 -15t6 -17.5q0 -7 -11 -7q-7 0 -21.5 8t-20.5 8q-4 0 -10 -1.5t-10 -1.5q-3 0 -8.5 1t-7.5 1q-10 0 -17 -12.5t-10 -14.5q-27 -23 -27 -71q0 -15 8 -33q21 -56 21 -100q0 -25 -12 -102
q-2 -10 -10.5 -23t-8.5 -19q0 -4 3 -7q40 -32 40 -68q0 -14 -1 -40t-1 -39q0 -8 -6.5 -25.5t-7.5 -23.5q0 -7 -5.5 -36.5t-5.5 -41.5q0 -14 5 -29q0 -1 5.5 -19.5t9.5 -28.5t14 -20.5t22 -10.5q15 0 25.5 15.5t15.5 34.5t14.5 34.5t22.5 15.5q19 0 19 -11q-3 -17 -18 -43
t-16 -38q-2 -16 -24 -34.5t-47 -18.5q-21 0 -42 17.5t-25 39.5q-2 8 -5 10q-4 4 -16.5 36t-12.5 47q0 5 2 13t2 12t-2 11.5t-2 10.5q0 24 5.5 72.5t5.5 74.5q0 15 -2 22q-1 7 -27.5 26t-26.5 39q0 21 19 34q18 13 30.5 56t12.5 74q0 28 -14.5 71.5t-14.5 59.5q0 3 0.5 8
t0.5 7q0 4 -1.5 11.5t-1.5 10.5z" />
    <glyph glyph-name="bar" unicode="|" horiz-adv-x="347" 
d="M180 228q11 -19 11 -32q0 -21 -23 -41q2 -6 13.5 -18.5t11.5 -20.5q0 -3 -6.5 -10.5t-6.5 -12.5q0 -6 3 -9q12 -19 12 -49q0 -12 -1.5 -35t-1.5 -34q0 -5 -6 -15t-7 -14q5 -5 28 -35q-18 -4 -48.5 -11.5t-34.5 -8.5q-24 34 -24 100q0 17 1 49t1 50q0 12 6 38t6 39
q0 8 -2 23.5t-2 23.5q0 31 25 46q-20 20 -20 37q0 7 8 25.5t8 36.5q0 6 -2.5 18t-2.5 19q0 5 6.5 15.5t6.5 14.5q0 9 -6.5 28.5t-6.5 29.5q0 7 7.5 18t7.5 14q-11 19 -11 41q0 16 8 48t8 49q0 3 -0.5 11t-0.5 11q0 19 2 39.5t6 47t6 39.5q29 13 46 13q42 0 42 -64
q-6 -158 -36 -232q-3 -4 -3 -10q0 -7 4 -21.5t4 -21.5q0 -26 -9.5 -77.5t-9.5 -76.5q0 -4 3 -14t3 -15t-4 -13t-10.5 -18t-8.5 -15zM149 111q2 0 4 -0.5t3 -0.5q2 5 6 17l-12 4q0 -3 -0.5 -10t-0.5 -10z" />
    <glyph glyph-name="braceright" unicode="}" horiz-adv-x="324" 
d="M43 625q2 1 13 8.5t14 9t13 7.5t14.5 8l13.5 6t15.5 5t15.5 2.5t17 1.5q35 0 65 -18t30 -57q0 -15 -10.5 -49t-11.5 -39q-4 -21 -35 -107t-31 -137q0 -58 22 -77q17 -14 22 -23.5t5 -30.5q0 -5 -10 -58t-10 -92q0 -14 -5.5 -41t-5.5 -39q0 -40 -21 -64t-58 -24
q-15 0 -45 11.5t-30 28.5q0 19 16 19q5 0 16 -1.5t15 -1.5q19 0 39 18t20 32q0 3 -0.5 10t-0.5 11q0 5 0.5 17t0.5 18q0 23 -2 69t-2 69q0 8 0.5 23.5t0.5 23.5q0 12 -9.5 41t-9.5 56q0 4 2.5 11.5t2.5 10.5q0 2 -2 8q0 31 16 103q1 7 8 15t7 14q0 2 -0.5 6t-0.5 6
q0 11 26.5 70.5t26.5 103.5q0 30 -44 30q-22 0 -52 -21t-37 -21q-6 0 -15.5 7t-9.5 16q0 1 0.5 2.5t0.5 2.5z" />
    <glyph glyph-name="asciitilde" unicode="~" horiz-adv-x="436" 
d="M296 295q-2 -1 -22 -4.5t-31 -9t-18 -15.5q-38 -26 -72 -26q-28 0 -50.5 27.5t-22.5 52.5q0 27 7 27q3 0 18.5 -25.5t29.5 -25.5q15 0 25 7q31 16 46 23.5t40.5 15t48.5 7.5t42 -22t19 -42q0 -13 -6 -27.5t-15 -14.5q-11 0 -18 8.5t-12.5 24t-8.5 19.5z" />
    <glyph glyph-name="nbspace" unicode="&#xa0;" horiz-adv-x="270" 
 />
    <glyph glyph-name="exclamdown" unicode="&#xa1;" horiz-adv-x="248" 
d="M157 326q0 -11 1.5 -34.5t1.5 -35.5q0 -8 -0.5 -21.5t-0.5 -19.5q0 -16 1 -48.5t1 -48.5l-1 -2v-2q-5 -16 -7 -32.5t-3 -41.5t-2 -33q-1 -11 -5 -36.5t-4 -38.5q0 -3 1 -10t1 -12q-2 -12 -2.5 -40t-2 -44.5t-14 -31t-36.5 -14.5q-10 0 -18 10t-8 22q0 17 5.5 48t5.5 46
q0 3 -1 10.5t-1 11.5q0 5 2 13q10 24 10 90q0 4 -2 12t-2 12q0 5 0.5 14t0.5 13q-1 14 -1 41q0 13 1.5 37.5t1.5 35.5q0 5 -0.5 13t-0.5 12q0 6 2.5 16t2.5 15q0 7 -4 21.5t-4 22.5q0 17 14 20q11 3 27.5 13t20.5 10q6 0 19 -13zM68 448q6 44 34 44q22 -3 44 -17.5t22 -40.5
q0 -7 -4 -12q-18 -18 -25.5 -22t-27.5 -4q-22 0 -29.5 11t-13.5 41z" />
    <glyph glyph-name="cent" unicode="&#xa2;" horiz-adv-x="458" 
d="M391 402q-10 3 -26.5 9t-27.5 9.5t-19 3.5q-6 0 -10.5 -2t-6.5 -7.5t-2.5 -8.5t-1.5 -11t-1 -10q-7 -54 -11.5 -111.5t-9 -138.5t-6.5 -112q12 -6 23 -6q19 0 47.5 33t28.5 64q0 16 29 16q8 0 22.5 -1.5t18.5 -1.5q-44 -147 -163 -147q-4 -48 -4 -71t2 -67
q-25 4 -36 12.5t-13 18t-6.5 39t-12.5 56.5q-5 9 -20 15q-74 24 -119.5 89t-45.5 144q0 76 96 210q25 35 49 54t58 19q12 0 19 -1q1 8 2 23t2 27.5t2 24.5q4 -1 13.5 -1.5t14 -1t10.5 -3t8.5 -7.5t2.5 -13q0 -5 -0.5 -15t-0.5 -15q0 -23 13 -36t37 -25.5t35 -23.5zM228 361
q-32 -21 -49 -54t-29 -73.5t-24 -60.5q-5 -7 -5 -16q0 -13 3.5 -25.5t11.5 -25.5t13 -21t17 -23t15 -19q3 -5 32 -18q1 38 10 125.5t9 135.5q0 42 -4 75z" />
    <glyph glyph-name="sterling" unicode="&#xa3;" horiz-adv-x="588" 
d="M164 134q-19 25 -19 36q0 3 4 11t4 13q0 4 -3.5 14.5t-3.5 15.5q-6 68 -8 97q-11 1 -27.5 1.5t-27 1t-24.5 1.5t-22 3.5t-16 6.5t-11.5 10t-3.5 15q0 5 2 23q24 3 70.5 8.5t67.5 8.5q6 66 11.5 102t20 83.5t38.5 87.5q19 31 80 31q48 0 93.5 -32t45.5 -80q0 -44 -23 -44
q-10 0 -30 9q3 18 3 21q0 27 -17 51t-39 24q-11 0 -26.5 -16.5t-15.5 -35.5q0 -30 -17 -84t-18 -87q0 -9 10 -16t20 -7q17 0 52 2t52 2q87 0 87 -41q0 -13 -6.5 -18t-20.5 -6q-75 -6 -77 -6q-8 0 -23 2t-22 2q-91 0 -91 -62q0 -19 -1 -56.5t-1 -56.5q0 -31 24 -37
q16 -4 49 -13.5t54.5 -15.5t50 -11t50.5 -5q86 0 117 51q14 23 29 25q16 0 29.5 -14.5t13.5 -30.5q0 -42 -79 -82q-2 -1 -21 -10q-3 -3 -7 -3q-9 4 -19 4q-11 0 -32 -7t-32 -7q-16 0 -56.5 14t-54.5 17q-13 2 -42.5 9.5t-51.5 11t-44 3.5q-46 0 -83.5 -18.5t-85.5 -55.5
q-40 30 -40 47q0 13 45 45.5t80 39.5q6 1 19 4t20 4z" />
    <glyph glyph-name="currency" unicode="&#xa4;" horiz-adv-x="505" 
d="M246 329q-8 -9 -16 -13t-12.5 -4t-7.5 -3.5t-3 -13.5q0 -26 -2 -58q14 -5 56 -7t75.5 -3.5t33.5 -6.5q0 -14 -10.5 -25t-22.5 -11q-7 0 -43.5 2.5t-54.5 2.5q-35 0 -35 -7q0 -33 3 -86.5t3 -84.5q0 -22 -38 -22q-9 1 -19 9t-10 17q0 10 -5 28.5t-5 29.5v46q0 68 -24 68
q-9 0 -26 -2.5t-26 -2.5q-15 0 -26 10.5t-11 27.5q0 13 8 13q45 0 86 7q7 21 7 32q0 3 -1 11t-1 12q0 6 2 20q0 19 -16 19q-8 0 -23.5 -2t-23.5 -2q-13 0 -22.5 10.5t-9.5 22.5q0 15 36 15h22q35 0 35 14q0 9 -1.5 28.5t-1.5 29.5q0 12 3 35.5t3 36.5q0 6 -3 18.5t-3 19.5
q0 4 0.5 14t0.5 15q0 9 -0.5 28t-0.5 31q0 65 37 65q11 0 50 -22q57 13 66 13q196 0 196 -169q0 -85 -60 -159q-6 -8 -32 -20.5t-42 -12.5q-9 -1 -29 -9.5t-32 -8.5q-16 0 -24 4zM210 394q10 -4 15 -4l3 2q3 1 9.5 3.5t15 5.5t19.5 6.5t23 7t25.5 7t25.5 5.5q5 0 18 10.5
t19 13.5q19 10 29 37t10 57q0 55 -25 83t-71 28q-4 0 -11 -0.5t-11 -0.5q-1 0 -10 -0.5t-16.5 -1t-18.5 -1.5t-20 -3.5t-17 -6t-12.5 -9.5t-4.5 -14q0 -7 -1.5 -20.5t-1.5 -19.5t2 -16.5t2 -15.5q0 -9 -2 -13q3 -8 3 -16q0 -5 -2 -17t-2 -18q0 -5 1.5 -15.5t1.5 -15.5
t-1 -17.5t-1 -18.5q0 -12 6 -22z" />
    <glyph glyph-name="yen" unicode="&#xa5;" horiz-adv-x="505" 
d="M452 696q33 -17 33 -32q0 -14 -35 -74q-20 -34 -94 -175q-1 -2 -18.5 -28.5t-31 -54.5t-13.5 -48q0 -11 1.5 -16.5t9.5 -8t12 -2.5h20q55 0 55 -26q0 -28 -18 -28q-10 0 -31 2.5t-32 2.5q-15 0 -15 -35q0 -34 4.5 -41t30.5 -7q52 0 52 -25q0 -8 -4.5 -14.5t-11.5 -6.5
q-5 0 -16.5 0.5t-17.5 0.5q-25 0 -25 -22q0 -6 3 -17t3 -16q0 -6 -7.5 -11t-9.5 -8q-4 -16 -31 -16q-39 0 -39 12q-5 18 -9 35.5t-5 23t-5.5 11t-9.5 6t-19 0.5q-64 0 -67 42q0 5 5 5q14 -4 82 -6q6 0 13 12t7 21q0 7 -1 10l-4 14l-3 10.5t-2 7.5t-2 6t-3 3.5t-4 2t-6 0.5
q-8 0 -24 -1.5t-24 -1.5q-27 0 -37 10t-10 29q0 4 4 4q5 0 15 -2t14 -2q78 0 78 21q0 11 -19.5 39.5t-19.5 52.5q0 19 -20.5 62t-23.5 60t-24 66q-1 3 -24 71q0 9 -9 28t-9 28q0 10 24 10q22 0 49 -19.5t27 -38.5q0 -2 -0.5 -4t-0.5 -3q0 -2 5 -4.5t10 -10.5t5 -22
q0 -12 7 -30t7 -28q0 -9 -1 -13q0 -1 5 -4q2 2 4.5 9t5.5 7t6 -7.5t5 -20t3 -23t2 -21.5t1 -12q0 -3 -0.5 -9.5t-0.5 -9.5q0 -31 20 -31q5 0 10 12.5t8 13.5q16 6 41.5 59t26.5 54q2 4 10 16t10 20q3 14 61 118q6 12 13.5 15t28.5 3zM197 438q3 8 3 13q0 6 -3 6q-2 -2 -2 -3
q1 -3 1.5 -8t0.5 -8z" />
    <glyph glyph-name="brokenbar" unicode="&#xa6;" horiz-adv-x="276" 
d="M170 642q-1 -14 -2.5 -38.5t-2.5 -45t-1 -38.5q0 -34 -13 -34q-29 0 -40 14t-11 41q0 18 4.5 53.5t4.5 54.5q0 7 -1.5 21.5t-1.5 21.5q0 11 16 11q13 0 21.5 -2.5t13.5 -5.5t7.5 -11t3 -12t1.5 -15t1 -15zM171 131q3 -39 3 -41q0 -6 -1.5 -17t-1.5 -16q0 -7 2.5 -20
t2.5 -19q0 -14 -20 -14q-45 0 -45 19q0 1 0.5 5t0.5 6q0 4 -0.5 12t-0.5 12q0 18 3.5 53t3.5 52q0 33 -1 50q0 12 13 12q26 0 33.5 -19t7.5 -52v-23z" />
    <glyph glyph-name="section" unicode="&#xa7;" horiz-adv-x="521" 
d="M401 601q-194 -18 -213 -117q12 -6 58.5 -27.5t73 -36t61 -38t51.5 -50t17 -56.5t-8 -32q-12 -4 -42 -24.5t-51 -21.5q-4 0 -69 -11q8 -7 34 -26.5t37.5 -29t32.5 -27.5t31.5 -31.5t23.5 -31t18 -35t5 -35.5q0 -35 -20 -58.5t-59.5 -35t-83.5 -16t-106 -4.5
q-106 0 -140 50q-6 9 -11 19.5t-11 28t-10 27.5q33 -5 84 -26t84 -21q17 0 55.5 5.5t62.5 5.5q31 0 64.5 18t33.5 35q0 9 -15 30q-57 79 -188 120q-9 3 -30.5 8.5t-33.5 9.5q-38 15 -61 49.5t-23 73.5q0 21 10.5 44t18 34t30.5 38t25 29q-2 4 -9 17t-10 19.5t-7.5 16.5
t-6.5 18.5t-2 16.5q0 45 39 87.5t89 66.5q3 1 13.5 6.5t19 10t20 8t19.5 3.5q26 0 55 -25.5t44 -56.5q1 -2 1 -6q0 -2 -0.5 -7t-0.5 -9zM338 320q-42 54 -91 54q-59 0 -102 -77q24 -10 49 -10q27 0 75 15t69 18z" />
    <glyph glyph-name="dieresis" unicode="&#xa8;" horiz-adv-x="260" 
d="M129 658q-5 -27 -6 -29l-3 -7q-3 -8 -6.5 -17.5t-8 -19t-9.5 -16t-8 -6.5q-15 0 -21.5 17.5t-6.5 34.5q7 87 26 87q14 0 29.5 -7t15.5 -18q0 -7 -3 -19h1zM168 625q1 4 2 15t2 20t2.5 18t5 14.5t7.5 5.5h1q2 -1 3 -1q10 0 29.5 -7.5t19.5 -17.5q0 -12 -14 -35.5
t-28.5 -41.5t-16.5 -18q-9 0 -13 48z" />
    <glyph glyph-name="copyright" unicode="&#xa9;" horiz-adv-x="564" 
d="M475 292q-1 -1 -5 -9.5t-7 -12.5q-1 -1 -10.5 -14t-21 -26t-26 -28t-31 -24t-30.5 -9q-8 0 -25.5 -4.5t-26.5 -4.5q-97 0 -164.5 68t-67.5 161q0 5 1.5 15t1.5 14t-1 10t-1 10q0 13 7 26q7 72 91 185q1 1 6.5 9t9.5 13t10 11.5t12 10t11 3.5q4 0 10.5 -2t10.5 -2
q13 0 40.5 4.5t41.5 4.5q50 0 71 -22q5 -5 17 -7q37 -10 56 -47q3 -6 13 -23.5t17 -31t10 -24.5q1 -2 8 -9t7 -12q0 -2 -0.5 -6t-0.5 -6q0 -15 8 -31q5 -9 7 -55q0 -1 -10 -18.5t-10 -28.5l3 -30q0 -6 -13 -21t-19 -37zM492 488q-2 4 -21.5 35t-24.5 53q-1 6 -8.5 11t-9.5 8
q-9 16 -22 27t-29.5 22t-25.5 19q-5 4 -30.5 11.5t-35.5 7.5q-22 0 -68 -41q-35 -31 -78.5 -93.5t-43.5 -121.5q0 -4 1 -10t1 -10t-0.5 -12t-0.5 -12q0 -74 66.5 -131t144.5 -57q42 0 74 20q14 9 30 29t24 26q8 5 14 23t15 23q-1 0 -1 1t7 14.5t14 36t7 45.5q0 10 -1.5 29.5
t-1.5 28.5q0 10 5 18q-2 1 -2 5q1 0 1 -5zM475 291v1v-2v1zM492 488h1q-2 1 -2 5q1 0 1 -5zM240 276l-3 6t-3.5 6t-4 4t-6.5 2q-6 1 -15 13t-17 37.5t-8 55.5q0 74 24 118q0 1 7 16.5t14.5 28t18.5 28t25 24.5t29 9q21 0 56.5 -18t35.5 -37q0 -15 -12 -15q-9 0 -25.5 12
t-29.5 12q-15 0 -32 -23.5t-20 -25.5q-35 -38 -35 -128q0 -30 13 -59.5t37 -29.5q28 0 60 34.5t43 34.5q22 0 22 -13q0 -5 -6 -11q-3 -3 -13.5 -14t-14 -15t-13 -13.5t-14.5 -13.5t-13.5 -11t-14.5 -10l-14 -7t-15 -5.5t-14 -1.5q-2 0 -42 10z" />
    <glyph glyph-name="ordfeminine" unicode="&#xaa;" horiz-adv-x="308" 
d="M207 523q2 10 5 28t6 29t8 16q-3 8 -3 15q0 9 4.5 26t4.5 27q-8 7 -35 7q-13 0 -25 -5t-20 -10.5t-19 -18.5t-15 -19.5t-15 -24t-13 -21.5q-4 3 -9.5 6t-8.5 5l-6 4t-4.5 4.5t-1.5 4.5q0 24 24 51t45 41.5t26 16.5q27 5 34 5q37 0 68 -25.5t31 -54.5q0 -9 -6 -31t-6 -35
q0 -3 1.5 -8t1.5 -7q0 -8 -11 -31.5t-11 -29.5q8 -4 8 -6q-2 -3 -7 -11.5t-7 -13.5q3 -5 3 -8t-2.5 -9.5t-2.5 -10.5q0 -7 1 -22t1 -22q0 -23 -16 -23q-19 0 -34 49q-3 -3 -6.5 -9.5t-7 -10t-8.5 -3.5q-3 0 -11 5l-25 -25q-4 1 -17 6t-15.5 6t-11 5.5t-11 8.5t-6 10.5
t-5.5 15.5q0 1 -4 7t-4 10q3 74 26 80q3 0 3 9q22 15 47 15q28 0 62 -18zM201 443q0 3 -0.5 9t-0.5 9q0 16 14 23q-34 12 -42 12q-30 0 -46 -24t-16 -47q0 -22 19 -22q8 0 19 6t28.5 18t24.5 16z" />
    <glyph glyph-name="guillemotleft" unicode="&#xab;" horiz-adv-x="625" 
d="M274 300q-12 -32 -51 -58q-12 -8 -23 -20.5t-23 -30t-20 -26.5q17 -25 73.5 -64.5t74.5 -76.5q-6 1 -14.5 1t-13.5 0.5t-8 2.5l-45.5 26t-52 30.5t-44 30.5t-35.5 37.5t-12 39.5q0 17 7 33.5t21.5 34.5t26 30t32.5 32t29 28t42 45.5t55.5 56t35.5 18.5q23 0 44.5 -26.5
t25.5 -54.5q0 -11 -5 -13q-8 -6 -26.5 -22t-29 -24.5t-28.5 -17.5t-36 -12zM313 269q12 0 22 5t15 10.5t13.5 15.5t12.5 15q18 19 39.5 39t49 44.5t43.5 39.5l11 -10q11 -10 18.5 -20.5t7.5 -19.5q0 -12 -22 -37.5t-64 -65t-47 -45.5q-4 -3 -11 -12t-11 -13q96 -76 146 -150
q-4 -6 -6 -11q-4 2 -17 6.5t-19 9.5q-10 8 -51 46t-61 44q-35 12 -50 38.5t-19 70.5z" />
    <glyph glyph-name="logicalnot" unicode="&#xac;" horiz-adv-x="405" 
d="M308 199q-11 5 -28 31q-5 7 -6 28t-5.5 36t-18.5 15q-20 0 -42 -6q-40 -10 -97 -10q-10 0 -20.5 11.5t-10.5 22.5t47.5 19t89.5 10q8 0 26 6.5t26 6.5q19 0 31.5 -14t17 -34.5t6 -32.5t1.5 -21q0 -44 -17 -68z" />
    <glyph glyph-name="uni00AD" unicode="&#xad;" horiz-adv-x="422" 
d="M317 268q-17 6 -33 6q-6 0 -18.5 -2t-18.5 -2q-5 0 -16 1t-17 1q-9 0 -23.5 -4.5t-18.5 -4.5q-2 0 -4.5 0.5t-3.5 0.5q-4 0 -12 -4t-12 -4q-17 0 -38.5 26t-21.5 50q0 14 10 14q5 0 14 -7t15 -7q14 -1 42 -1q20 0 62.5 1t64.5 1q18 0 36 -14.5t18 -29.5q0 -8 -7 -15
t-14 -7q-1 0 -3 1h-1z" />
    <glyph glyph-name="registered" unicode="&#xae;" horiz-adv-x="600" 
d="M81 479q-1 1 -1 2q0 2 3.5 16.5t10 31t13.5 17.5q29 71 104 114l3 2q3 1 7 3.5t10 6t13 6.5t15.5 6.5t17.5 6.5t18 5.5t18.5 4t18.5 1.5q43 0 106 -30.5t80 -77.5q3 -8 8 -17q34 -53 34 -139q0 -6 -12 -42l-13 -35q0 -1 0.5 -4t0.5 -5q0 -8 -12.5 -24t-20.5 -17
q-2 0 -6.5 -18t-7.5 -18q-1 0 -3.5 1.5t-3.5 1.5q-3 0 -3 -6q-7 -21 -16.5 -32.5t-25.5 -22.5t-25 -20q-7 -7 -22.5 -13t-22.5 -12q-17 -14 -74 -14q-52 0 -92 26t-64.5 72t-38 101.5t-17.5 121.5zM124 515q13 13 13 14q0 3 -4 3q-2 0 -9 -18v1zM169 575q3 -1 9.5 -4.5
t10 -5t8 -4.5t6.5 -6.5t2 -7.5q0 -8 -5 -13q-26 -26 -40.5 -65t-14.5 -75q0 -75 43 -137t115 -62q19 0 46 6.5t37 15.5q6 6 26 15.5t34 19.5t14 20q0 4 -3 6q-2 1 -22.5 14t-39 24t-40.5 21t-34 10q-16 0 -23 -12t-8.5 -26t-10 -26t-26.5 -12q-19 0 -19 45q0 2 1.5 8t1.5 8
q0 4 -1 12.5t-1 13.5q0 7 3.5 20t3.5 19q0 5 -2.5 16t-2.5 17q0 4 3.5 10.5t3.5 9.5q-6 11 -6 27q0 5 0.5 14t0.5 13q0 10 -7.5 23t-7.5 14t8 11.5t8 19.5q0 18 6 24.5t20 6.5q7 0 20 -6t19 -6q2 0 8 2q16 -3 26.5 -5.5t25.5 -10t23 -22t8 -35.5q0 -11 -19 -60.5t-19 -56.5
q0 -4 20 -15t51 -29t50 -34q1 -1 10 -4q12 16 12 24q1 4 11 33.5t10 48.5v23q0 46 -11 63l1 2v3q0 15 -19 49.5t-61.5 69t-92.5 34.5q-31 0 -110 -35q-8 -4 -19.5 -16.5t-16.5 -14.5q-13 -4 -24 -30zM345 517q0 30 -15 30t-28 -9.5t-13 -26.5q0 -5 0.5 -17t0.5 -18
q0 -5 -2 -15t-2 -15t4.5 -11t9.5 -6q4 0 7 3q37 37 38 85z" />
    <glyph glyph-name="macron" unicode="&#xaf;" horiz-adv-x="360" 
d="M66 740q31 -20 67 -27t79 -8t66 -6q19 -4 23 -5t13 -6.5t13.5 -13.5t12.5 -26q-101 -13 -232 -13q-26 0 -37 10t-11 34q0 19 6 61z" />
    <glyph glyph-name="degree" unicode="&#xb0;" horiz-adv-x="302" 
d="M282 586l-6.5 -19.5t-8.5 -23.5t-10.5 -21t-15 -20.5t-19.5 -12.5t-26 -6q-46 0 -81 32t-35 83q0 39 24.5 80t59.5 41q46 0 82 -40t36 -93zM146 533q12 -2 18 -2q29 0 50.5 19t21.5 51q0 27 -23 53q-70 -24 -70 -94q0 -14 3 -27z" />
    <glyph glyph-name="plusminus" unicode="&#xb1;" horiz-adv-x="473" 
d="M232 515q38 -15 38 -57q0 -6 -0.5 -19t-0.5 -19q0 -20 19 -20h18h19.5t17.5 -0.5t17.5 -2t15 -4t15 -6.5t11 -9.5t10.5 -13t7 -17.5q-23 -8 -50 -8q-9 0 -27 1t-26 1q-30 0 -52 -9q-6 -17 -11 -63t-18 -70q-22 17 -28 40.5t-5.5 52t-4.5 43.5q-4 0 -26 -1.5t-33 -1.5
q-39 0 -56.5 10t-17.5 34q0 12 7 38q54 -5 137 -10q7 31 24 111zM493 159q-325 -6 -462 -8q-11 15 -11 29q0 9 5 23.5t6 21.5q47 -12 104 -12q29 0 84.5 5.5t83.5 5.5q40 0 142 -13q20 -3 29.5 -15t18.5 -37z" />
    <glyph glyph-name="twosuperior" unicode="&#xb2;" horiz-adv-x="315" 
d="M159 485q-8 -27 -13 -29q-6 -4 -8.5 -9t-4 -11.5t-2.5 -9.5q15 -6 37 -13q16 17 41 17q4 0 14.5 -2.5t15.5 -2.5q3 0 8.5 2.5t7.5 2.5q6 0 19.5 -4t20.5 -4q-1 -4 -2 -12.5t-2 -13.5q-9 3 -15 3q-14 0 -37 -15t-34 -15q-5 0 -11 3q-11 -7 -30 -7h-14q-7 0 -19.5 -3
t-18.5 -3q-18 0 -33 16q0 1 1.5 5t1.5 6q-4 2 -11.5 6.5t-10.5 5.5q1 4 4 15t3 15q0 2 -1 7t-1 7q0 25 49 53q1 0 4 -1.5t4 -1.5q0 28 30 34q8 19 45.5 44t45.5 54q-2 0 -6.5 1t-6.5 1q-52 0 -91 -30q-15 -12 -25 -12q-8 0 -18.5 14.5t-10.5 31.5q0 14 50.5 29t75.5 15
q61 0 65 -36q0 -2 8 -11t8 -15q0 -11 -3 -22t-8 -20t-12 -17.5t-14.5 -15.5t-16 -13t-16 -10.5t-15 -8t-12.5 -6t-9 -3.5l-4 -2q-5 -3 -13.5 -6t-9.5 -3zM168 535l2 -7q6 1 17.5 2.5t17.5 2.5q-1 2 -1 6q-6 -1 -18 -2t-18 -2z" />
    <glyph glyph-name="threesuperior" unicode="&#xb3;" horiz-adv-x="317" 
d="M163 408h26q-2 7 -7 17q50 25 68 67q-13 11 -21 11q-31 0 -72 -23t-43 -23q-10 0 -17 8t-7 20q0 14 7.5 24.5t26.5 24t23 16.5q1 1 3 5.5t6 10.5t8 9q5 3 9 6t9.5 9t9.5 11.5t15 19t21 25.5q-35 0 -56.5 -14t-45.5 -42q-17 4 -23.5 13t-9.5 35q4 1 11 8.5t13 7.5
q4 0 6 -1q2 0 4 2q8 28 76 28q25 0 49 -11t24 -37q0 -14 -32 -42.5t-38 -39.5q35 -4 63 -22t28 -45q0 -3 -3 -11t-3 -12q0 -1 0.5 -4.5t0.5 -5.5q-6 -22 -32 -46.5t-48 -38t-27 -14.5q-12 -1 -36 -10.5t-35 -9.5q-7 0 -11 10t-13 13q-14 5 -29 8q-11 17 -21 38q5 5 12 5
q8 0 21 -4t31 -11.5t25 -9.5l1 1q1 0 2.5 0.5t4 1t4.5 1.5q-3 2 -8.5 4t-8.5 4q6 3 8 8t5 5q2 0 7 -2t7 -2l-7 -7q8 -5 11 -5q4 0 8 16zM184 376q-11 9 -12 9q-3 0 -9 -6q4 -1 21 -3z" />
    <glyph glyph-name="acute" unicode="&#xb4;" horiz-adv-x="193" 
d="M60 590q47 82 109 110q4 -5 4 -11q0 -3 -2 -7q-3 -6 -13.5 -27.5t-17.5 -33.5t-17.5 -28t-22 -23.5t-24.5 -7.5q-5 0 -8 2t-3.5 4.5t-2 9.5t-2.5 12z" />
    <glyph glyph-name="mu" unicode="&#xb5;" horiz-adv-x="539" 
d="M407 451q40 -2 62 -4q10 -68 10 -100q0 -36 -7 -65q-17 -78 -17 -168q0 -6 0.5 -18t0.5 -18q0 -9 -4.5 -26.5t-4.5 -26.5q0 -3 1 -11t1 -12q0 -22 -21 -22q-35 0 -45.5 21.5t-10.5 55.5v96q-12 -1 -28.5 -20t-36 -49t-29.5 -41q-29 -34 -81 -34q-18 0 -30 4.5t-29.5 16.5
t-32.5 19q2 -42 3 -121t4 -141t12 -118q-38 1 -50.5 11.5t-17.5 43.5q-16 111 -16 277q0 77 12 178q3 39 3 40q0 7 -1.5 21t-1.5 21q0 21 7 60.5t8 55.5q1 6 1.5 22.5t1.5 21.5t4 15.5t7.5 14t13.5 7t22 3.5q21 0 29.5 -10.5t8.5 -42.5q0 -3 -0.5 -7t-0.5 -6
q-18 -121 -18 -202q0 -59 10.5 -83t44.5 -54q7 -6 18 -6q32 0 90 89q2 2 16.5 25t17.5 28t15.5 25.5t16 28.5t13 26.5t12.5 30t8 28t6.5 31.5t1.5 31q0 6 -1 18t-1 19q0 8 3 21z" />
    <glyph glyph-name="paragraph" unicode="&#xb6;" horiz-adv-x="587" 
d="M446 -27q-60 29 -63 91q-2 27 -6 84t-6.5 103t-2.5 86q0 52 4.5 156t4.5 161q-49 7 -62 7q-39 0 -71 -20q8 -253 8 -286q0 -83 -2 -124q0 -11 -3 -37t-3 -40q0 -7 2 -22t2 -23q0 -9 -5 -26t-6 -22q-58 0 -75.5 27t-17.5 97q0 68 18 112q12 30 12 91q0 57 -18 74
q-76 71 -76 166q0 40 25 77t61 37q11 0 28 -5q57 -21 107 -21q12 0 37.5 5t38.5 5q12 0 24 -5q31 -17 66 -17q12 0 37 5t35 5q38 0 48 -55q-77 -12 -79 -12q-41 -3 -45 -77q-18 -299 -18 -495q0 -15 0.5 -49t0.5 -53z" />
    <glyph glyph-name="periodcentered" unicode="&#xb7;" horiz-adv-x="267" 
d="M90 365q0 1 1 8.5t2 12t7 9t15 4.5q23 0 42.5 -13t19.5 -35q0 -16 -13.5 -32t-29.5 -16q-21 0 -32.5 19t-11.5 43z" />
    <glyph glyph-name="cedilla" unicode="&#xb8;" horiz-adv-x="268" 
d="M52 -82q13 17 36.5 56.5t39.5 56.5q1 -2 5.5 -2h8t3.5 -2t-6 -18t-14.5 -38.5t-12.5 -32.5h9q36 0 61.5 -30.5t25.5 -68.5v-1q0 -54 -34.5 -80t-85.5 -28q-68 0 -68 24q0 19 7 42.5t20 23.5q6 0 11 -7.5t5 -15.5q0 -7 -2 -21q0 -4 4 -4q39 0 61 20.5t22 53.5
q0 24 -10 38.5t-22 14.5q-16 0 -29.5 -11t-15.5 -11q-3 0 -5 0.5t-3.5 2t-2 3.5t-1.5 5.5l-2 7t-2.5 10t-2.5 12.5z" />
    <glyph glyph-name="onesuperior" unicode="&#xb9;" horiz-adv-x="323" 
d="M254 420q-13 -13 -13 -26q0 -2 1.5 -8t1.5 -9q0 -8 -8.5 -19t-9.5 -14q-28 13 -28 33q0 3 1.5 11.5t1.5 12.5t-1 12.5t-1 12.5q0 7 3.5 19.5t3.5 18.5q0 3 -2 9t-2 10q0 14 9 54t9 62q-2 2 -5 2q-20 -20 -38 -42t-42 -53.5t-33 -43.5q-9 6 -23.5 17.5t-18.5 14.5
q15 29 26 42q4 4 11 16.5t14.5 20t18.5 10.5q5 0 18 21t21 21q5 0 11 -3q3 11 7.5 16.5t12 9.5t11.5 8q3 3 10 13.5t15 14.5t23 4q24 0 34 -10t10 -31q0 -19 -23 -59.5t-27 -59.5q-13 -62 -13 -76q0 -11 1.5 -14t12.5 -18z" />
    <glyph glyph-name="ordmasculine" unicode="&#xba;" horiz-adv-x="332" 
d="M101 637q-1 3 -1 8q0 19 13 27t36 13t34 12q5 3 19 3q46 -4 85 -37q25 -22 25 -92q0 -90 -73 -185q-19 -19 -56 -19q-60 0 -91.5 51.5t-31.5 108.5q0 108 41 110zM131 487q11 -3 11 -16q0 -2 -1 -7.5t-1 -8.5q0 -16 18 -38t36 -22q35 0 62 67.5t27 105.5q0 74 -62 105
q-6 3 -10 3q-7 0 -21.5 -23t-19.5 -41q-3 -11 -13.5 -31t-13.5 -30q-2 -6 -2.5 -20.5t-4.5 -20.5q-2 -3 -2.5 -6.5t-1 -8.5t-1.5 -8z" />
    <glyph glyph-name="guillemotright" unicode="&#xbb;" horiz-adv-x="615" 
d="M341 184q12 32 51 58q12 8 23 20.5t23 30t20 26.5q-17 25 -73.5 64.5t-74.5 76.5q6 -1 14.5 -1t13.5 -0.5t8 -2.5l45.5 -26t52 -30.5t44 -30.5t35.5 -37.5t12 -39.5q0 -17 -7 -33.5t-21.5 -34.5t-26 -30t-32.5 -32t-29 -28t-42 -45.5t-55.5 -56t-35.5 -18.5
q-23 0 -44.5 26.5t-25.5 54.5q0 11 5 13q8 6 26.5 22t29 24.5t28.5 17.5t36 12zM312 255q-12 0 -22 -5t-15 -10.5t-13.5 -15.5t-12.5 -15q-18 -19 -39.5 -39t-49 -44.5t-43.5 -39.5l-11 10q-11 10 -18.5 20.5t-7.5 19.5q0 12 22 37.5t64 65t47 45.5q4 3 11 12t11 13
q-96 76 -146 150q4 6 6 11q4 -2 17 -6.5t19 -9.5q10 -8 51 -46t61 -44q35 -12 50 -38.5t19 -70.5z" />
    <glyph glyph-name="onequarter" unicode="&#xbc;" horiz-adv-x="667" 
d="M354 330q-20 0 -20 -10q0 -3 3 -9t3 -8q0 -5 -3.5 -8.5t-9 -6.5t-7.5 -5q5 -10 5 -16q0 -8 -23 -16q0 -3 4.5 -5t4.5 -4q-1 -3 -3 -8.5t-3 -7t-4.5 -3.5t-9.5 -2q-12 0 -12 -8q0 -4 4 -11t4 -12q0 -8 -4 -13q-6 -6 -13.5 -28.5t-14.5 -29.5q-2 -2 -2 -4q0 -1 0.5 -2.5
t0.5 -2.5q0 -2 -3 -5.5t-3 -5.5t2 -6q0 -5 -12.5 -34.5t-18.5 -29.5q-2 0 -8.5 -0.5t-10.5 -0.5q-20 0 -20 12q0 11 2 21t5.5 22.5t5.5 21.5q0 11 11 22t11 14q0 18 13.5 44t15.5 36q1 7 11 18.5t10 20.5q0 15 20 49t25 46q4 12 18.5 33t17.5 35q2 9 11 16t9 14q0 1 -0.5 2
t-0.5 2t1 3q13 20 33.5 61.5t31.5 59.5q2 6 17.5 32t29 48.5t12.5 22.5q15 0 32 -18t17 -31q0 -7 -10.5 -22.5t-25 -33.5t-19.5 -27l15 -6l1 1q-14 -10 -35 -31q2 4 2 5q0 3 -2 3l-2 -1l2 -4q1 -1 1 -2q-2 -5 -14 -9.5t-12 -14.5t-11.5 -17.5t-11.5 -16.5q0 -8 -11 -9.5
t-11 -5.5t5 -7.5t5 -6.5q0 -2 -5 -10t-5 -14q0 -14 -16.5 -24.5t-16.5 -16.5q0 -1 3 -4t3 -5t-6.5 -11t-7.5 -15zM375 396q7 5 7 8q0 2 -3 2q-6 0 -6 -4q0 -2 2 -6zM352 330h3h-3zM499 546v3l1 -2zM244 420q-13 -13 -13 -26q0 -2 1.5 -8t1.5 -9q0 -8 -8.5 -19t-9.5 -14
q-28 13 -28 33q0 3 1.5 11.5t1.5 12.5t-1 12.5t-1 12.5q0 7 3.5 19.5t3.5 18.5q0 3 -2 9t-2 10q0 14 9 54t9 62q-2 2 -5 2q-20 -20 -38 -42t-42 -53.5t-33 -43.5q-9 6 -23.5 17.5t-18.5 14.5q15 29 26 42q4 4 11 16.5t14.5 20t18.5 10.5q5 0 18 21t21 21q5 0 11 -3
q3 11 7.5 16.5t12 9.5t11.5 8q3 3 10 13.5t15 14.5t23 4q24 0 34 -10t10 -31q0 -19 -23 -59.5t-27 -59.5q-13 -62 -13 -76q0 -11 1.5 -14t12.5 -18zM617 279q-10 -61 -18 -72q-5 -6 -9 -22t-10 -22q-2 -4 -6 -25.5t-7 -28.5q-2 -4 -7.5 -31t-14 -45t-20.5 -18q-29 4 -29 28
q0 4 2 12q14 68 19 107q0 7 -7 7q-11 -1 -32 -7.5t-30 -6.5q-12 0 -26 13t-14 26q0 19 8 24q7 8 13 18.5t9 17t9.5 22t7.5 18.5q23 80 33 80q12 0 20 -11t8 -22q0 -14 -5.5 -33t-15.5 -43.5t-13 -35.5q-1 -2 -1 -5q0 -6 8 -8.5t22 -2.5t19 -1q12 0 26 47t20 47q9 0 21.5 -8
t19.5 -19z" />
    <glyph glyph-name="onehalf" unicode="&#xbd;" horiz-adv-x="689" 
d="M354 330q-20 0 -20 -10q0 -3 3 -9t3 -8q0 -5 -3.5 -8.5t-9 -6.5t-7.5 -5q5 -10 5 -16q0 -8 -23 -16q0 -3 4.5 -5t4.5 -4q-1 -3 -3 -8.5t-3 -7t-4.5 -3.5t-9.5 -2q-12 0 -12 -8q0 -4 4 -11t4 -12q0 -8 -4 -13q-6 -6 -13.5 -28.5t-14.5 -29.5q-2 -2 -2 -4q0 -1 0.5 -2.5
t0.5 -2.5q0 -2 -3 -5.5t-3 -5.5t2 -6q0 -5 -12.5 -34.5t-18.5 -29.5q-2 0 -8.5 -0.5t-10.5 -0.5q-20 0 -20 12q0 11 2 21t5.5 22.5t5.5 21.5q0 11 11 22t11 14q0 18 13.5 44t15.5 36q1 7 11 18.5t10 20.5q0 15 20 49t25 46q4 12 18.5 33t17.5 35q2 9 11 16t9 14q0 1 -0.5 2
t-0.5 2t1 3q13 20 33.5 61.5t31.5 59.5q2 6 17.5 32t29 48.5t12.5 22.5q15 0 32 -18t17 -31q0 -7 -10.5 -22.5t-25 -33.5t-19.5 -27l15 -6l1 1q-14 -10 -35 -31q2 4 2 5q0 3 -2 3l-2 -1l2 -4q1 -1 1 -2q-2 -5 -14 -9.5t-12 -14.5t-11.5 -17.5t-11.5 -16.5q0 -8 -11 -9.5
t-11 -5.5t5 -7.5t5 -6.5q0 -2 -5 -10t-5 -14q0 -14 -16.5 -24.5t-16.5 -16.5q0 -1 3 -4t3 -5t-6.5 -11t-7.5 -15zM375 396q7 5 7 8q0 2 -3 2q-6 0 -6 -4q0 -2 2 -6zM352 330h3h-3zM499 546v3l1 -2zM244 420q-13 -13 -13 -26q0 -2 1.5 -8t1.5 -9q0 -8 -8.5 -19t-9.5 -14
q-28 13 -28 33q0 3 1.5 11.5t1.5 12.5t-1 12.5t-1 12.5q0 7 3.5 19.5t3.5 18.5q0 3 -2 9t-2 10q0 14 9 54t9 62q-2 2 -5 2q-20 -20 -38 -42t-42 -53.5t-33 -43.5q-9 6 -23.5 17.5t-18.5 14.5q15 29 26 42q4 4 11 16.5t14.5 20t18.5 10.5q5 0 18 21t21 21q5 0 11 -3
q3 11 7.5 16.5t12 9.5t11.5 8q3 3 10 13.5t15 14.5t23 4q24 0 34 -10t10 -31q0 -19 -23 -59.5t-27 -59.5q-13 -62 -13 -76q0 -11 1.5 -14t12.5 -18zM503 139q-8 -27 -13 -29q-6 -4 -8.5 -9t-4 -11.5t-2.5 -9.5q15 -6 37 -13q16 17 41 17q4 0 14.5 -2.5t15.5 -2.5
q3 0 8.5 2.5t7.5 2.5q6 0 19.5 -4t20.5 -4q-1 -5 -2 -13t-2 -13q-9 3 -15 3q-14 0 -37 -15t-34 -15q-5 0 -11 3q-10 -7 -30 -7h-14q-7 0 -19.5 -3t-18.5 -3q-18 0 -33 16q0 1 1.5 5t1.5 6q-4 2 -11.5 6.5t-10.5 5.5q1 4 4 15t3 15q0 2 -1 6.5t-1 7.5q0 25 49 53q1 0 4 -1.5
t4 -1.5q0 28 30 34q8 19 45.5 44t45.5 54q-2 0 -6.5 1t-6.5 1q-52 0 -91 -30q-15 -12 -25 -12q-8 0 -18.5 14.5t-10.5 31.5q0 14 50.5 29t75.5 15q61 0 65 -36q0 -2 8 -11t8 -15q0 -11 -3 -22t-8 -20t-12 -17.5t-14.5 -15.5t-16 -13t-16 -10.5t-15 -8t-12.5 -6t-9 -3.5
l-4 -2q-5 -3 -13.5 -6t-9.5 -3zM512 189l2 -7q5 1 17.5 2.5t17.5 2.5q-1 2 -1 6q-6 -1 -18 -2t-18 -2z" />
    <glyph glyph-name="threequarters" unicode="&#xbe;" horiz-adv-x="577" 
d="M266 330q-20 0 -20 -10q0 -3 3 -9t3 -8q0 -5 -3.5 -8.5t-9 -6.5t-7.5 -5q5 -10 5 -16q0 -8 -23 -16q0 -3 4.5 -5t4.5 -4q-1 -3 -3 -8.5t-3 -7t-4.5 -3.5t-9.5 -2q-12 0 -12 -8q0 -4 4 -11t4 -12q0 -8 -4 -13q-6 -6 -13.5 -28.5t-14.5 -29.5q-2 -2 -2 -4q0 -1 0.5 -2.5
t0.5 -2.5q0 -2 -3 -5.5t-3 -5.5t2 -6q0 -5 -12.5 -34.5t-18.5 -29.5q-2 0 -8.5 -0.5t-10.5 -0.5q-20 0 -20 12q0 11 2 21t5.5 22.5t5.5 21.5q0 11 11 22t11 14q0 18 13.5 44t15.5 36q1 7 11 18.5t10 20.5q0 15 20 49t25 46q4 12 18.5 33t17.5 35q2 9 11 16t9 14q0 1 -0.5 2
t-0.5 2t1 3q13 20 33.5 61.5t31.5 59.5q2 6 17.5 32t29 48.5t12.5 22.5q15 0 32 -18t17 -31q0 -7 -10.5 -22.5t-25 -33.5t-19.5 -27q3 -1 5.5 -2l5 -2t4.5 -2l1 1q-14 -10 -35 -31q2 4 2 5q0 3 -2 3l-2 -1l2 -4q1 -1 1 -2q-2 -5 -14 -9.5t-12 -14.5t-11.5 -17.5t-11.5 -16.5
q0 -8 -11 -9.5t-11 -5.5t5 -7.5t5 -6.5q0 -2 -5 -10t-5 -14q0 -14 -16.5 -24.5t-16.5 -16.5q0 -1 3 -4t3 -5t-6.5 -11t-7.5 -15zM287 396q7 5 7 8q0 2 -3 2q-6 0 -6 -4q0 -2 2 -6zM239 537q3 -5 18 -19.5t15 -24.5q0 -17 -11 -35q-8 -7 -36.5 -42t-53.5 -53t-54 -18
q-23 0 -45 22.5t-22 42.5q0 5 4.5 12.5t11.5 7.5t18 -16.5t25 -16.5q30 0 66 24q1 0 11.5 10.5t21 24t10.5 19.5q0 4 -7 4q-10 0 -22.5 -14t-20.5 -14q-11 0 -23 14t-12 27q0 2 2 6l13 14q13 14 25.5 27t12.5 12q0 1 -1.5 5t-1.5 5q0 9 35 41.5t35 47.5q0 8 -6 8
q-13 -1 -44 -28.5t-45 -27.5q-10 0 -21.5 11.5t-11.5 23.5q0 3 2 5q3 2 14 8.5t15.5 9t15 8t16 8t15 6.5t16.5 5.5t15.5 3t16.5 1.5q21 0 41.5 -10.5t20.5 -30.5q0 -18 -13.5 -38t-33.5 -42t-27 -34zM527 279q-10 -61 -18 -72q-5 -6 -9 -22t-10 -22q-2 -4 -6 -25.5t-7 -28.5
q-2 -4 -7.5 -31t-14 -45t-20.5 -18q-29 4 -29 28q0 4 2 12q14 68 19 107q0 7 -7 7q-11 -1 -32 -7.5t-30 -6.5q-12 0 -26 13t-14 26q0 19 8 24q7 8 13 18.5t9 17t9.5 22t7.5 18.5q23 80 33 80q12 0 20 -11t8 -22q0 -14 -5.5 -33t-15.5 -43.5t-13 -35.5q-1 -2 -1 -5
q0 -6 8 -8.5t22 -2.5t19 -1q12 0 26 47t20 47q9 0 21.5 -8t19.5 -19zM264 330h3h-3zM411 546v3l1 -2z" />
    <glyph glyph-name="questiondown" unicode="&#xbf;" horiz-adv-x="333" 
d="M293 -23q-3 -12 -6 -21t-8.5 -18.5t-8.5 -14.5t-12.5 -18.5t-13.5 -19.5q-54 -81 -152 -81q-41 0 -76.5 28t-35.5 76q0 16 11 42t11 41q0 3 -0.5 7.5t-0.5 7.5q0 22 11 34q8 9 13 20.5t10 25.5t8 21t12 18t12 16q14 30 16 33q57 75 57 120q0 9 -1 14q0 26 15.5 41
t31.5 15q24 0 33 -30t9 -56q0 -12 -4.5 -24.5t-12.5 -28.5t-11 -25q-5 -12 -13 -25.5t-21.5 -33t-16.5 -23.5q-32 -48 -47 -72.5t-31 -68.5t-16 -84q0 -23 11.5 -34t29.5 -11q7 0 11.5 2t7.5 4t8.5 6t11.5 7q11 5 18.5 14t15.5 23.5t12 19.5q28 37 28 58q0 2 -0.5 5t-0.5 4
q0 6 5.5 13.5t10.5 7.5q40 0 69 -35zM11 -23q4 -8 6 -8q6 0 6 9q0 6 -5 6q-6 0 -7 -7zM175 492q1 0 5 -0.5t7 -1.5q24 -12 24 -48q0 -31 -61 -31q-10 0 -16.5 8t-6.5 18q2 29 12 42t36 13z" />
    <glyph glyph-name="Agrave" unicode="&#xc0;" horiz-adv-x="522" 
d="M88 265q1 11 2 27.5t1.5 24t4 18.5t10.5 21q5 7 12.5 44.5t16.5 54.5q12 30 12 31q1 6 8 15t7 15q3 29 7 36q12 18 30.5 70t39.5 83t53 31h17q60 0 60 -145q0 -23 -2 -32q5 -8 8.5 -21.5t4.5 -24t2 -28.5t2 -24q11 -58 11 -62q0 -5 -0.5 -16t-0.5 -16q0 -50 38 -108
q-8 -22 -12 -32q3 -11 7 -35t8 -41t8 -22q5 -7 11 -42t10 -48q8 -23 8 -63q-2 -2 -16 -10q-4 -3 -14.5 -13.5t-19 -16.5t-15.5 -6q-5 0 -11.5 8.5t-8.5 9.5q-26 14 -34 64q-1 4 -7.5 26.5t-6.5 37.5q0 2 0.5 6t0.5 6q0 31 -10.5 84t-27.5 53q-4 0 -46 -12q-5 -6 -18.5 -8.5
t-18.5 -5.5t-8 -3t-11 2q-1 0 -18 -8t-29 -8q-17 0 -30 -32t-23 -74t-16 -52q-29 -72 -57 -72q-9 0 -18 7.5t-9 15.5q0 3 1 5q23 63 29 93q1 8 17 62.5t16 79.5q0 7 -4.5 20t-4.5 20q0 9 8 9q2 0 7 -0.5t8 -0.5t11 2zM205 433q0 -18 -2 -26q0 -1 -17.5 -39.5t-17.5 -65.5
q0 -24 9 -24q15 0 33.5 3t41 7t34.5 6q15 8 15 29q0 23 -10.5 84t-10.5 91q0 4 1 7v-1l-3 13q-3 13 -7 25.5t-7 12.5q-4 0 -17.5 -30.5t-13.5 -41.5q0 -32 -28 -50zM317 830q-1 -5 -2.5 -12t-2 -9.5t-3.5 -4.5t-8 -2q-13 0 -24.5 7.5t-22 23.5t-17.5 28t-17.5 33.5
t-13.5 27.5q-2 4 -2 7q0 6 4 11q62 -28 109 -110z" />
    <glyph glyph-name="Aacute" unicode="&#xc1;" horiz-adv-x="522" 
d="M88 265q1 11 2 27.5t1.5 24t4 18.5t10.5 21q5 7 12.5 44.5t16.5 54.5q12 30 12 31q1 6 8 15t7 15q3 29 7 36q12 18 30.5 70t39.5 83t53 31h17q60 0 60 -145q0 -23 -2 -32q5 -8 8.5 -21.5t4.5 -24t2 -28.5t2 -24q11 -58 11 -62q0 -5 -0.5 -16t-0.5 -16q0 -50 38 -108
q-8 -22 -12 -32q3 -11 7 -35t8 -41t8 -22q5 -7 11 -42t10 -48q8 -23 8 -63q-2 -2 -16 -10q-4 -3 -14.5 -13.5t-19 -16.5t-15.5 -6q-5 0 -11.5 8.5t-8.5 9.5q-26 14 -34 64q-1 4 -7.5 26.5t-6.5 37.5q0 2 0.5 6t0.5 6q0 31 -10.5 84t-27.5 53q-4 0 -46 -12q-5 -6 -18.5 -8.5
t-18.5 -5.5t-8 -3t-11 2q-1 0 -18 -8t-29 -8q-17 0 -30 -32t-23 -74t-16 -52q-29 -72 -57 -72q-9 0 -18 7.5t-9 15.5q0 3 1 5q23 63 29 93q1 8 17 62.5t16 79.5q0 7 -4.5 20t-4.5 20q0 9 8 9q2 0 7 -0.5t8 -0.5t11 2zM205 433q0 -18 -2 -26q0 -1 -17.5 -39.5t-17.5 -65.5
q0 -24 9 -24q15 0 33.5 3t41 7t34.5 6q15 8 15 29q0 23 -10.5 84t-10.5 91q0 4 1 7v-1l-3 13q-3 13 -7 25.5t-7 12.5q-4 0 -17.5 -30.5t-13.5 -41.5q0 -32 -28 -50zM284 830q47 82 109 110q4 -5 4 -11q0 -3 -2 -7q-3 -6 -13.5 -27.5t-17.5 -33.5t-17.5 -28t-22 -23.5
t-24.5 -7.5q-5 0 -8 2t-3.5 4.5t-2 9.5t-2.5 12z" />
    <glyph glyph-name="Acircumflex" unicode="&#xc2;" horiz-adv-x="522" 
d="M88 265q1 11 2 27.5t1.5 24t4 18.5t10.5 21q5 7 12.5 44.5t16.5 54.5q12 30 12 31q1 6 8 15t7 15q3 29 7 36q12 18 30.5 70t39.5 83t53 31h17q60 0 60 -145q0 -23 -2 -32q5 -8 8.5 -21.5t4.5 -24t2 -28.5t2 -24q11 -58 11 -62q0 -5 -0.5 -16t-0.5 -16q0 -50 38 -108
q-8 -22 -12 -32q3 -11 7 -35t8 -41t8 -22q5 -7 11 -42t10 -48q8 -23 8 -63q-2 -2 -16 -10q-4 -3 -14.5 -13.5t-19 -16.5t-15.5 -6q-5 0 -11.5 8.5t-8.5 9.5q-26 14 -34 64q-1 4 -7.5 26.5t-6.5 37.5q0 2 0.5 6t0.5 6q0 31 -10.5 84t-27.5 53q-4 0 -46 -12q-5 -6 -18.5 -8.5
t-18.5 -5.5t-8 -3t-11 2q-1 0 -18 -8t-29 -8q-17 0 -30 -32t-23 -74t-16 -52q-29 -72 -57 -72q-9 0 -18 7.5t-9 15.5q0 3 1 5q23 63 29 93q1 8 17 62.5t16 79.5q0 7 -4.5 20t-4.5 20q0 9 8 9q2 0 7 -0.5t8 -0.5t11 2zM205 433q0 -18 -2 -26q0 -1 -17.5 -39.5t-17.5 -65.5
q0 -24 9 -24q15 0 33.5 3t41 7t34.5 6q15 8 15 29q0 23 -10.5 84t-10.5 91q0 4 1 7v-1l-3 13q-3 13 -7 25.5t-7 12.5q-4 0 -17.5 -30.5t-13.5 -41.5q0 -32 -28 -50zM393 806q-8 -8 -16 -8q-22 0 -40 39q-2 3 -6 12t-8 16.5t-8.5 15.5t-8.5 12.5t-6 4.5q-4 0 -11.5 -10
t-16 -22.5t-12.5 -15.5q-3 -2 -16.5 -27t-27.5 -25q-5 0 -16 5.5t-11 13.5q0 1 1 3q14 14 36 47.5t40 56t31 22.5q8 0 21.5 -5t18.5 -13q56 -84 56 -122z" />
    <glyph glyph-name="Atilde" unicode="&#xc3;" horiz-adv-x="522" 
d="M88 265q1 11 2 27.5t1.5 24t4 18.5t10.5 21q5 7 12.5 44.5t16.5 54.5q12 30 12 31q1 6 8 15t7 15q3 29 7 36q12 18 30.5 70t39.5 83t53 31h17q60 0 60 -145q0 -23 -2 -32q5 -8 8.5 -21.5t4.5 -24t2 -28.5t2 -24q11 -58 11 -62q0 -5 -0.5 -16t-0.5 -16q0 -50 38 -108
q-8 -22 -12 -32q3 -11 7 -35t8 -41t8 -22q5 -7 11 -42t10 -48q8 -23 8 -63q-2 -2 -16 -10q-4 -3 -14.5 -13.5t-19 -16.5t-15.5 -6q-5 0 -11.5 8.5t-8.5 9.5q-26 14 -34 64q-1 4 -7.5 26.5t-6.5 37.5q0 2 0.5 6t0.5 6q0 31 -10.5 84t-27.5 53q-4 0 -46 -12q-5 -6 -18.5 -8.5
t-18.5 -5.5t-8 -3t-11 2q-1 0 -18 -8t-29 -8q-17 0 -30 -32t-23 -74t-16 -52q-29 -72 -57 -72q-9 0 -18 7.5t-9 15.5q0 3 1 5q23 63 29 93q1 8 17 62.5t16 79.5q0 7 -4.5 20t-4.5 20q0 9 8 9q2 0 7 -0.5t8 -0.5t11 2zM205 433q0 -18 -2 -26q0 -1 -17.5 -39.5t-17.5 -65.5
q0 -24 9 -24q15 0 33.5 3t41 7t34.5 6q15 8 15 29q0 23 -10.5 84t-10.5 91q0 4 1 7v-1l-3 13q-3 13 -7 25.5t-7 12.5q-4 0 -17.5 -30.5t-13.5 -41.5q0 -32 -28 -50zM360 847q-3 -1 -19.5 -4.5t-26.5 -8.5t-16 -14q-34 -22 -64 -22q-25 0 -44.5 24t-19.5 47q0 24 6 24
q2 0 16 -23t26 -23q13 0 22 6q75 41 119 41q20 0 36.5 -19.5t16.5 -37.5q0 -11 -5 -23.5t-13 -12.5q-9 0 -15 8t-11.5 21t-7.5 17z" />
    <glyph glyph-name="Adieresis" unicode="&#xc4;" horiz-adv-x="522" 
d="M88 265q1 11 2 27.5t1.5 24t4 18.5t10.5 21q5 7 12.5 44.5t16.5 54.5q12 30 12 31q1 6 8 15t7 15q3 29 7 36q12 18 30.5 70t39.5 83t53 31h17q60 0 60 -145q0 -23 -2 -32q5 -8 8.5 -21.5t4.5 -24t2 -28.5t2 -24q11 -58 11 -62q0 -5 -0.5 -16t-0.5 -16q0 -50 38 -108
q-8 -22 -12 -32q3 -11 7 -35t8 -41t8 -22q5 -7 11 -42t10 -48q8 -23 8 -63q-2 -2 -16 -10q-4 -3 -14.5 -13.5t-19 -16.5t-15.5 -6q-5 0 -11.5 8.5t-8.5 9.5q-26 14 -34 64q-1 4 -7.5 26.5t-6.5 37.5q0 2 0.5 6t0.5 6q0 31 -10.5 84t-27.5 53q-4 0 -46 -12q-5 -6 -18.5 -8.5
t-18.5 -5.5t-8 -3t-11 2q-1 0 -18 -8t-29 -8q-17 0 -30 -32t-23 -74t-16 -52q-29 -72 -57 -72q-9 0 -18 7.5t-9 15.5q0 3 1 5q23 63 29 93q1 8 17 62.5t16 79.5q0 7 -4.5 20t-4.5 20q0 9 8 9q2 0 7 -0.5t8 -0.5t11 2zM205 433q0 -18 -2 -26q0 -1 -17.5 -39.5t-17.5 -65.5
q0 -24 9 -24q15 0 33.5 3t41 7t34.5 6q15 8 15 29q0 23 -10.5 84t-10.5 91q0 4 1 7v-1l-3 13q-3 13 -7 25.5t-7 12.5q-4 0 -17.5 -30.5t-13.5 -41.5q0 -32 -28 -50zM300 888q-6 -28 -6 -29l-3 -7q-3 -8 -6.5 -17.5t-8 -19t-9.5 -16t-8 -6.5q-15 0 -21.5 17.5t-6.5 34.5
q7 87 26 87q14 0 29.5 -7t15.5 -18q0 -7 -3 -19h1zM339 855q1 4 2 15t2 20t2.5 18t5 14.5t7.5 5.5h2q1 -1 2 -1q10 0 29.5 -7.5t19.5 -17.5q0 -12 -14 -35.5t-28.5 -41.5t-16.5 -18q-9 0 -13 48z" />
    <glyph glyph-name="Aring" unicode="&#xc5;" horiz-adv-x="522" 
d="M88 265q1 11 2 27.5t1.5 24t4 18.5t10.5 21q5 7 12.5 44.5t16.5 54.5q12 30 12 31q1 6 8 15t7 15q3 29 7 36q12 18 30.5 70t39.5 83t53 31h17q60 0 60 -145q0 -23 -2 -32q5 -8 8.5 -21.5t4.5 -24t2 -28.5t2 -24q11 -58 11 -62q0 -5 -0.5 -16t-0.5 -16q0 -50 38 -108
q-8 -22 -12 -32q3 -11 7 -35t8 -41t8 -22q5 -7 11 -42t10 -48q8 -23 8 -63q-2 -2 -16 -10q-4 -3 -14.5 -13.5t-19 -16.5t-15.5 -6q-5 0 -11.5 8.5t-8.5 9.5q-26 14 -34 64q-1 4 -7.5 26.5t-6.5 37.5q0 2 0.5 6t0.5 6q0 31 -10.5 84t-27.5 53q-4 0 -46 -12q-5 -6 -18.5 -8.5
t-18.5 -5.5t-8 -3t-11 2q-1 0 -18 -8t-29 -8q-17 0 -30 -32t-23 -74t-16 -52q-29 -72 -57 -72q-9 0 -18 7.5t-9 15.5q0 3 1 5q23 63 29 93q1 8 17 62.5t16 79.5q0 7 -4.5 20t-4.5 20q0 9 8 9q2 0 7 -0.5t8 -0.5t11 2zM205 433q0 -18 -2 -26q0 -1 -17.5 -39.5t-17.5 -65.5
q0 -24 9 -24q15 0 33.5 3t41 7t34.5 6q15 8 15 29q0 23 -10.5 84t-10.5 91q0 4 1 7v-1l-3 13q-3 13 -7 25.5t-7 12.5q-4 0 -17.5 -30.5t-13.5 -41.5q0 -32 -28 -50zM229 853q0 55 9 84.5t43 52.5q111 -36 111 -97q0 -35 -25.5 -64.5t-63.5 -29.5q-8 0 -15.5 2.5t-12.5 5
t-12.5 9.5t-10.5 10.5t-11.5 13.5t-11.5 13zM337 883q0 11 -8 27.5t-19 16.5q-13 0 -27 -13t-14 -26t9.5 -26.5t23.5 -13.5q13 0 23.5 10t11.5 25z" />
    <glyph glyph-name="AE" unicode="&#xc6;" horiz-adv-x="743" 
d="M433 427q13 -19 38 -19q27 0 81.5 6.5t81.5 6.5q19 0 32 -14t13 -34q0 -19 -22 -19q-31 0 -91.5 -2t-91.5 -2q-23 0 -51 -24.5t-28 -41.5q0 -3 2 -7q15 -28 15 -51q0 -19 -10 -36q10 -10 10 -24q0 -8 -4 -23.5t-4 -22.5q0 -5 4 -14t4 -13q0 -5 -3 -17.5t-4 -15.5
q48 -8 116 -8q15 0 43.5 0.5t41.5 0.5q31 0 41.5 -9.5t23.5 -48.5q-35 -8 -80 -8q-8 0 -24 0.5t-24 0.5q-23 0 -69.5 -1t-70.5 -1q-44 0 -49 20q-8 30 -8 59q0 21 8 59t11 67q-14 21 -99 21h-7q-33 0 -41.5 -4.5t-8.5 -28.5q0 -39 -10.5 -78t-37 -69.5t-64.5 -30.5
q-52 0 -84.5 50.5t-32.5 104.5q0 40 8 78.5t27 38.5q70 0 70 -40q0 -17 -5 -56.5t-5 -57.5q0 -38 29 -73q32 51 48 136q3 15 4.5 45t3.5 45q27 163 145 387q11 21 33 36.5t45 15.5q56 0 164.5 -4.5t128.5 -5.5q17 -1 32 -15.5t15 -30.5q0 -21 -125 -21q-22 0 -47.5 1
t-42 1.5t-19.5 0.5q-26 0 -26 -26q0 -10 -4.5 -27.5t-4.5 -25.5q0 -4 2.5 -12t2.5 -12l-1 -1v-2q-13 -17 -16 -54t-9 -50zM369 631q-43 -38 -92 -158t-49 -180q0 -8 2 -16q93 -15 103 -15q29 0 51 22q-24 1 -24 19q0 7 5 20t5 20q0 4 -2 12t-2 11q0 17 18 47q-18 16 -18 24
q0 3 2.5 12t10 21.5t17.5 16.5q-24 1 -24 16q0 2 0.5 7t0.5 8q0 16 -2 55t-2 58z" />
    <glyph glyph-name="Ccedilla" unicode="&#xc7;" horiz-adv-x="412" 
d="M144 -82q9 12 42 68q-8 4 -19 4q-2 0 -6 -0.5t-6 -0.5q-13 0 -16 2.5t-4 11.5q-1 3 -1 4q0 2 -25.5 25.5t-25.5 35.5q0 11 -7 31t-7 30q0 4 3 12.5t3 13.5q0 6 -6 14.5t-6 12.5q0 2 1.5 6t1.5 7q0 2 -3 7.5t-3 9.5q0 3 2 8.5t2 7.5q0 4 -2 15.5t-2 17.5q0 3 0.5 10
t0.5 11q0 3 -0.5 10.5t-0.5 11.5q0 8 10 28t10 53q0 6 4 15.5t4 14.5q0 13 6.5 31t6.5 28q0 5 -2 15t-2 16t5 13.5t5 9.5q-1 2 -1 6q0 7 9.5 14.5t18.5 19.5t9 31l1 3q1 2 2.5 7.5t4.5 12t7.5 14.5t9.5 16t12 15.5t15 12.5q1 1 9.5 23t23.5 42.5t34 20.5q3 0 15 -1t17 -2
t14 -3.5t16 -6.5q8 -5 20 -7.5t21 -3.5t15.5 -7t6.5 -17q0 -17 -21 -78q-1 -17 -9 -41.5t-20 -27.5q-19 0 -19 68q0 5 1 13.5t1 12.5q0 14 -7 14q-9 0 -18 -5.5t-18.5 -18.5t-14.5 -20t-15 -24t-10 -18q1 -2 1 -5q0 -4 -4.5 -11t-11 -17t-9.5 -15q-3 -4 -10.5 -14.5
t-13.5 -18.5l-6 -9q0 -1 1.5 -5t1.5 -5q-1 0 -6.5 -13.5t-11 -36.5t-5.5 -44q0 -26 -8 -67t-8 -57q0 -4 0.5 -11.5t0.5 -11.5t-1 -10.5t-1 -9.5q0 -20 6 -56t7 -49q2 -24 17.5 -46t41.5 -22q15 0 23 7q7 5 22 14.5t26 16.5l11 7q0 1 -1 5t-1 6q0 5 6 11q8 5 19 21t19.5 29
t12.5 13q3 0 13 -13q-7 -11 -7 -20q0 -29 -17.5 -59t-43.5 -47q-8 -20 -30 -41.5t-43 -21.5l-2 1h-2q-17 -45 -19 -50h9q36 0 61.5 -30.5t25.5 -68.5v-1q0 -54 -34.5 -80t-85.5 -28q-68 0 -68 24q0 19 7 42.5t20 23.5q6 0 11 -7.5t5 -15.5q0 -7 -2 -21q0 -4 4 -4
q39 0 61 20.5t22 53.5q0 24 -10 38.5t-22 14.5q-16 0 -29.5 -11t-15.5 -11q-3 0 -5 0.5t-3.5 2t-2 3.5t-1.5 5.5l-2 7t-2.5 10t-2.5 12.5zM512 378q0 -17 -14 -19q-9 -1 -10.5 -12t-6.5 -21.5t-23 -10.5q-10 0 -10 8q0 1 0.5 1t0.5 1q7 7 13 24t14.5 28t24.5 14q11 0 11 -13
zM369 176v1l-1 -1q-2 6 -2 17t6 24.5t13 13.5q3 0 6 -17.5t3 -30.5q0 -18 -7 -18q-2 0 -3 4t-2.5 11t-3.5 12q-2 -4 -5 -8.5t-4 -7.5zM407 212q-9 10 -9 24q0 23 17 37q4 -7 4 -15q0 -13 -6 -16t-6 -6q0 -2 2 -9t2 -10q0 -1 -4 -5zM449 265q0 -15 -10 -15q-7 0 -7 10
q3 28 13 28q3 0 3.5 -2.5t0.5 -20.5zM313 72q0 3 -2 3q-1 0 -2 -1q1 -2 1 -3l1 1h2zM295 54q2 -2 4 -2q0 4 -3 4zM149 384q0 2 -3 2q0 -2 3 -2z" />
    <glyph glyph-name="Egrave" unicode="&#xc8;" 
d="M188 118q1 -1 7 -4.5t8 -6.5t2 -8q0 -4 -4.5 -15t-4.5 -17q0 -8 27 -8q15 0 56 3.5t61 3.5q2 0 6.5 -0.5t7.5 -0.5q8 0 15 4q76 -5 76 -29q0 -27 -11.5 -34t-35.5 -7q-14 0 -42.5 2t-42.5 2q-18 0 -181 -8q-19 0 -31 11.5t-17.5 34t-7 43t-1.5 50.5l1 8q1 7 4 17t6 13
q0 4 -3.5 13t-3.5 14q0 1 0.5 4t0.5 5q0 16 -1 48t-1 48q0 4 4 12t4 11q0 6 -8 22t-8 24q0 4 5 12t5 14q-2 16 -2 25q0 5 1.5 13t1.5 12q0 3 -0.5 8.5t-0.5 7.5q0 3 2 8t2 7q0 6 -2.5 16t-2.5 15q0 8 2 31.5t2 34.5q0 3 -0.5 11t-0.5 11q0 36 5.5 77.5t19.5 41.5h1l2 -1
q34 -14 81 -14q3 0 9.5 0.5t9.5 0.5q5 0 16 -2.5t17 -2.5q4 0 10.5 0.5t10.5 0.5q19 0 56.5 -2.5t56.5 -2.5q3 0 9.5 1t9.5 1q68 0 68 -33q0 -2 -0.5 -7t-0.5 -7t2 -8t2 -9q0 -9 -27 -14q-138 0 -247 16q-5 0 -10 -4t-5 -9q0 -27 2.5 -80.5t2.5 -79.5q0 -5 -1 -17t-1 -18
q0 -25 5 -32t24 -7q5 0 26.5 1t36.5 1q75 0 75 -28q0 -26 -25 -35.5t-55.5 -7.5t-55.5 -5.5t-25 -29.5q0 -8 1.5 -21.5t1.5 -19.5q0 -3 -3 -9t-3 -9q0 -2 2.5 -6.5t2.5 -7.5q0 -2 -0.5 -6t-0.5 -5q0 -4 2.5 -12t2.5 -12q0 -7 -4 -20.5t-4 -15.5q0 -6 3 -22zM132 157
q-3 -6 -3 -11q0 -8 5 -18q5 12 5 14q0 14 -7 14q3 6 3 12q0 12 -7 12q-6 0 -6 -10t10 -13zM166 225q4 12 4 17q0 9 -5 14q-6 -7 -6 -15q0 -6 7 -16zM129 397q0 5 0.5 14.5t1.5 14.5q0 3 -5 3q-3 0 -3 -11q0 -9 6 -21zM158 441q4 4 4 9q0 7 -5 7q-3 0 -3 -6q0 -4 4 -10z
M123 279l-2 2q-1 0 -3 -2q0 -4 2 -4t2 1.5t1 2.5zM160 398q0 4 -3 5l-2 -2q2 -4 3 -5zM106 163q0 3 -2 3q-1 0 -1 -1q0 -2 3 -2zM310 830q-1 -5 -2.5 -12t-2 -9.5t-3.5 -4.5t-8 -2q-13 0 -24.5 7.5t-22 23.5t-17.5 28t-17.5 33.5t-13.5 27.5q-2 4 -2 7q0 6 4 11
q62 -28 109 -110z" />
    <glyph glyph-name="Eacute" unicode="&#xc9;" 
d="M188 118q1 -1 7 -4.5t8 -6.5t2 -8q0 -4 -4.5 -15t-4.5 -17q0 -8 27 -8q15 0 56 3.5t61 3.5q2 0 6.5 -0.5t7.5 -0.5q8 0 15 4q76 -5 76 -29q0 -27 -11.5 -34t-35.5 -7q-14 0 -42.5 2t-42.5 2q-18 0 -181 -8q-19 0 -31 11.5t-17.5 34t-7 43t-1.5 50.5l1 8q1 7 4 17t6 13
q0 4 -3.5 13t-3.5 14q0 1 0.5 4t0.5 5q0 16 -1 48t-1 48q0 4 4 12t4 11q0 6 -8 22t-8 24q0 4 5 12t5 14q-2 16 -2 25q0 5 1.5 13t1.5 12q0 3 -0.5 8.5t-0.5 7.5q0 3 2 8t2 7q0 6 -2.5 16t-2.5 15q0 8 2 31.5t2 34.5q0 3 -0.5 11t-0.5 11q0 36 5.5 77.5t19.5 41.5h1l2 -1
q34 -14 81 -14q3 0 9.5 0.5t9.5 0.5q5 0 16 -2.5t17 -2.5q4 0 10.5 0.5t10.5 0.5q19 0 56.5 -2.5t56.5 -2.5q3 0 9.5 1t9.5 1q68 0 68 -33q0 -2 -0.5 -7t-0.5 -7t2 -8t2 -9q0 -9 -27 -14q-138 0 -247 16q-5 0 -10 -4t-5 -9q0 -27 2.5 -80.5t2.5 -79.5q0 -5 -1 -17t-1 -18
q0 -25 5 -32t24 -7q5 0 26.5 1t36.5 1q75 0 75 -28q0 -26 -25 -35.5t-55.5 -7.5t-55.5 -5.5t-25 -29.5q0 -8 1.5 -21.5t1.5 -19.5q0 -3 -3 -9t-3 -9q0 -2 2.5 -6.5t2.5 -7.5q0 -2 -0.5 -6t-0.5 -5q0 -4 2.5 -12t2.5 -12q0 -7 -4 -20.5t-4 -15.5q0 -6 3 -22zM132 157
q-3 -6 -3 -11q0 -8 5 -18q5 12 5 14q0 14 -7 14q3 6 3 12q0 12 -7 12q-6 0 -6 -10t10 -13zM166 225q4 12 4 17q0 9 -5 14q-6 -7 -6 -15q0 -6 7 -16zM129 397q0 5 0.5 14.5t1.5 14.5q0 3 -5 3q-3 0 -3 -11q0 -9 6 -21zM158 441q4 4 4 9q0 7 -5 7q-3 0 -3 -6q0 -4 4 -10z
M123 279l-2 2q-1 0 -3 -2q0 -4 2 -4t2 1.5t1 2.5zM160 398q0 4 -3 5l-2 -2q2 -4 3 -5zM106 163q0 3 -2 3q-1 0 -1 -1q0 -2 3 -2zM267 820q47 82 109 110q4 -5 4 -11q0 -3 -2 -7q-3 -6 -13.5 -27.5t-17.5 -33.5t-17.5 -28t-22 -23.5t-24.5 -7.5q-5 0 -8 2t-3.5 4.5t-2 9.5
t-2.5 12z" />
    <glyph glyph-name="Ecircumflex" unicode="&#xca;" 
d="M188 118q1 -1 7 -4.5t8 -6.5t2 -8q0 -4 -4.5 -15t-4.5 -17q0 -8 27 -8q15 0 56 3.5t61 3.5q2 0 6.5 -0.5t7.5 -0.5q8 0 15 4q76 -5 76 -29q0 -27 -11.5 -34t-35.5 -7q-14 0 -42.5 2t-42.5 2q-18 0 -181 -8q-19 0 -31 11.5t-17.5 34t-7 43t-1.5 50.5l1 8q1 7 4 17t6 13
q0 4 -3.5 13t-3.5 14q0 1 0.5 4t0.5 5q0 16 -1 48t-1 48q0 4 4 12t4 11q0 6 -8 22t-8 24q0 4 5 12t5 14q-2 16 -2 25q0 5 1.5 13t1.5 12q0 3 -0.5 8.5t-0.5 7.5q0 3 2 8t2 7q0 6 -2.5 16t-2.5 15q0 8 2 31.5t2 34.5q0 3 -0.5 11t-0.5 11q0 36 5.5 77.5t19.5 41.5h1l2 -1
q34 -14 81 -14q3 0 9.5 0.5t9.5 0.5q5 0 16 -2.5t17 -2.5q4 0 10.5 0.5t10.5 0.5q19 0 56.5 -2.5t56.5 -2.5q3 0 9.5 1t9.5 1q68 0 68 -33q0 -2 -0.5 -7t-0.5 -7t2 -8t2 -9q0 -9 -27 -14q-138 0 -247 16q-5 0 -10 -4t-5 -9q0 -27 2.5 -80.5t2.5 -79.5q0 -5 -1 -17t-1 -18
q0 -25 5 -32t24 -7q5 0 26.5 1t36.5 1q75 0 75 -28q0 -26 -25 -35.5t-55.5 -7.5t-55.5 -5.5t-25 -29.5q0 -8 1.5 -21.5t1.5 -19.5q0 -3 -3 -9t-3 -9q0 -2 2.5 -6.5t2.5 -7.5q0 -2 -0.5 -6t-0.5 -5q0 -4 2.5 -12t2.5 -12q0 -7 -4 -20.5t-4 -15.5q0 -6 3 -22zM132 157
q-3 -6 -3 -11q0 -8 5 -18q5 12 5 14q0 14 -7 14q3 6 3 12q0 12 -7 12q-6 0 -6 -10t10 -13zM166 225q4 12 4 17q0 9 -5 14q-6 -7 -6 -15q0 -6 7 -16zM129 397q0 5 0.5 14.5t1.5 14.5q0 3 -5 3q-3 0 -3 -11q0 -9 6 -21zM158 441q4 4 4 9q0 7 -5 7q-3 0 -3 -6q0 -4 4 -10z
M123 279l-2 2q-1 0 -3 -2q0 -4 2 -4t2 1.5t1 2.5zM160 398q0 4 -3 5l-2 -2q2 -4 3 -5zM106 163q0 3 -2 3q-1 0 -1 -1q0 -2 3 -2zM395 796q-8 -8 -16 -8q-22 0 -40 39q-2 3 -6 12t-8 16.5t-8.5 15.5t-8.5 12.5t-6 4.5q-4 0 -11.5 -10t-16 -22.5t-12.5 -15.5q-3 -2 -16.5 -27
t-27.5 -25q-5 0 -16 5.5t-11 13.5q0 1 1 3q14 14 36 47.5t40 56t31 22.5q8 0 21.5 -5t18.5 -13q56 -84 56 -122z" />
    <glyph glyph-name="Edieresis" unicode="&#xcb;" 
d="M188 118q1 -1 7 -4.5t8 -6.5t2 -8q0 -4 -4.5 -15t-4.5 -17q0 -8 27 -8q15 0 56 3.5t61 3.5q2 0 6.5 -0.5t7.5 -0.5q8 0 15 4q76 -5 76 -29q0 -27 -11.5 -34t-35.5 -7q-14 0 -42.5 2t-42.5 2q-18 0 -181 -8q-19 0 -31 11.5t-17.5 34t-7 43t-1.5 50.5l1 8q1 7 4 17t6 13
q0 4 -3.5 13t-3.5 14q0 1 0.5 4t0.5 5q0 16 -1 48t-1 48q0 4 4 12t4 11q0 6 -8 22t-8 24q0 4 5 12t5 14q-2 16 -2 25q0 5 1.5 13t1.5 12q0 3 -0.5 8.5t-0.5 7.5q0 3 2 8t2 7q0 6 -2.5 16t-2.5 15q0 8 2 31.5t2 34.5q0 3 -0.5 11t-0.5 11q0 36 5.5 77.5t19.5 41.5h1l2 -1
q34 -14 81 -14q3 0 9.5 0.5t9.5 0.5q5 0 16 -2.5t17 -2.5q4 0 10.5 0.5t10.5 0.5q19 0 56.5 -2.5t56.5 -2.5q3 0 9.5 1t9.5 1q68 0 68 -33q0 -2 -0.5 -7t-0.5 -7t2 -8t2 -9q0 -9 -27 -14q-138 0 -247 16q-5 0 -10 -4t-5 -9q0 -27 2.5 -80.5t2.5 -79.5q0 -5 -1 -17t-1 -18
q0 -25 5 -32t24 -7q5 0 26.5 1t36.5 1q75 0 75 -28q0 -26 -25 -35.5t-55.5 -7.5t-55.5 -5.5t-25 -29.5q0 -8 1.5 -21.5t1.5 -19.5q0 -3 -3 -9t-3 -9q0 -2 2.5 -6.5t2.5 -7.5q0 -2 -0.5 -6t-0.5 -5q0 -4 2.5 -12t2.5 -12q0 -7 -4 -20.5t-4 -15.5q0 -6 3 -22zM132 157
q-3 -6 -3 -11q0 -8 5 -18q5 12 5 14q0 14 -7 14q3 6 3 12q0 12 -7 12q-6 0 -6 -10t10 -13zM166 225q4 12 4 17q0 9 -5 14q-6 -7 -6 -15q0 -6 7 -16zM129 397q0 5 0.5 14.5t1.5 14.5q0 3 -5 3q-3 0 -3 -11q0 -9 6 -21zM158 441q4 4 4 9q0 7 -5 7q-3 0 -3 -6q0 -4 4 -10z
M123 279l-2 2q-1 0 -3 -2q0 -4 2 -4t2 1.5t1 2.5zM160 398q0 4 -3 5l-2 -2q2 -4 3 -5zM106 163q0 3 -2 3q-1 0 -1 -1q0 -2 3 -2zM292 888q-6 -28 -6 -29l-3 -7q-3 -8 -6.5 -17.5t-8 -19t-9.5 -16t-8 -6.5q-15 0 -21.5 17.5t-6.5 34.5q7 87 26 87q14 0 29.5 -7t15.5 -18
q0 -7 -3 -19h1zM331 855q1 4 2 15t2 20t2.5 18t5 14.5t7.5 5.5h2q1 -1 2 -1q10 0 29.5 -7.5t19.5 -17.5q0 -12 -14 -35.5t-28.5 -41.5t-16.5 -18q-9 0 -13 48z" />
    <glyph glyph-name="Igrave" unicode="&#xcc;" horiz-adv-x="565" 
d="M584 45q-9 3 -11 3q-1 0 -12 -7.5t-20 -7.5q-5 0 -14.5 4t-16.5 4q-9 0 -28 -6t-29 -6q-1 0 -3.5 0.5t-4.5 0.5q-7 -5 -26 -5q-4 0 -28 -7t-33 -7q-4 0 -8 4.5t-6 4.5q-1 0 -2.5 -0.5t-2.5 -0.5t-5 0.5t-6 0.5q-6 0 -21 -8t-23 -8t-21 -5t-20 -5q-2 0 -6 1t-6 1
q-5 0 -16 -7.5t-20 -7.5q-2 0 -6.5 0.5t-7.5 0.5q-7 0 -46.5 -10.5t-48.5 -16.5q-7 -4 -16 -6.5t-21 -4.5t-17 -3q-24 0 -40 9q-42 43 -42 54q0 6 8.5 11t24.5 10t21 8q19 8 63.5 15t66.5 20q0 71 11 156q1 11 8 34t7 27q0 2 -2.5 12.5t-2.5 17.5t7.5 17.5t7.5 13.5t-3 9.5
t-3 10.5q0 11 18 33q-9 18 -9 33q0 6 2 19t2 20q0 3 -1.5 10t-1.5 10q0 5 6 14.5t6 15.5q0 36 -6.5 44t-30.5 10q-12 1 -32 2t-26.5 1t-18.5 1.5t-16.5 4t-12 6.5t-12 10t-10.5 15q-1 1 -4.5 10.5t-7 21.5t-3.5 17q0 17 12 17t74 -5q8 2 13 2q10 0 27 -4t25 -4q4 0 10.5 2
t9.5 2t11 -2t11 -2q7 0 21.5 2t21.5 2q12 0 34.5 -2.5t33.5 -2.5q6 0 17 2.5t16 2.5q6 0 17.5 -4.5t17.5 -4.5q5 0 15 1t14 1q13 0 36.5 -4t34.5 -4q1 0 4.5 0.5t5.5 0.5q35 0 46 -24q0 -18 -10.5 -32.5t-28.5 -14.5q-6 0 -21 1.5t-19 1.5l-6 -8q-6 -7 -19 -7q-19 0 -36 4
q-5 1 -10 8t-7 7l-21 -12q-21 -11 -38 -11q-9 0 -13 1q-6 0 -6 -12q0 -16 2 -49t2 -54q0 -42 -10 -57q-1 -1 -3 -8.5t-4 -17.5t-2 -15t3 -9l-3 -6l-33 -34q0 -3 4.5 -8t4.5 -6t-5 -8.5t-5 -12.5q0 -6 12 -33q-17 -26 -19 -44q-1 -6 -8 -19t-7 -14q0 -17 -3 -27v2
q10 -5 10 -16q0 -2 -0.5 -5t-0.5 -5q0 -7 14 -7q1 0 4.5 0.5t5.5 0.5q5 0 14 -4.5t15 -4.5q67 7 80 11q28 7 141 14q9 0 25.5 2.5t24.5 2.5q6 0 18 -7t14 -17q0 -3 12.5 -7t12.5 -9q0 -8 -14 -16t-14 -9q0 -4 10 -10t10 -11q0 -8 -12 -8q-8 0 -12 7h2zM439 588l-5 2.5
l-5 2.5t-4 1q-3 0 -3 -5q2 -2 3 -2q3 0 7.5 0.5t6.5 0.5q0 1 -1 2q0 -2 1 -2zM239 307q-3 8 -5 8q-6 0 -6 -5q0 -3 11 -3zM269 830q-1 -5 -2.5 -12t-2 -9.5t-3.5 -4.5t-8 -2q-13 0 -24.5 7.5t-22 23.5t-17.5 28t-17.5 33.5t-13.5 27.5q-2 4 -2 7q0 6 4 11q62 -28 109 -110z
" />
    <glyph glyph-name="Iacute" unicode="&#xcd;" horiz-adv-x="565" 
d="M584 45q-9 3 -11 3q-1 0 -12 -7.5t-20 -7.5q-5 0 -14.5 4t-16.5 4q-9 0 -28 -6t-29 -6q-1 0 -3.5 0.5t-4.5 0.5q-7 -5 -26 -5q-4 0 -28 -7t-33 -7q-4 0 -8 4.5t-6 4.5q-1 0 -2.5 -0.5t-2.5 -0.5t-5 0.5t-6 0.5q-6 0 -21 -8t-23 -8t-21 -5t-20 -5q-2 0 -6 1t-6 1
q-5 0 -16 -7.5t-20 -7.5q-2 0 -6.5 0.5t-7.5 0.5q-7 0 -46.5 -10.5t-48.5 -16.5q-7 -4 -16 -6.5t-21 -4.5t-17 -3q-24 0 -40 9q-42 43 -42 54q0 6 8.5 11t24.5 10t21 8q19 8 63.5 15t66.5 20q0 71 11 156q1 11 8 34t7 27q0 2 -2.5 12.5t-2.5 17.5t7.5 17.5t7.5 13.5t-3 9.5
t-3 10.5q0 11 18 33q-9 18 -9 33q0 6 2 19t2 20q0 3 -1.5 10t-1.5 10q0 5 6 14.5t6 15.5q0 36 -6.5 44t-30.5 10q-12 1 -32 2t-26.5 1t-18.5 1.5t-16.5 4t-12 6.5t-12 10t-10.5 15q-1 1 -4.5 10.5t-7 21.5t-3.5 17q0 17 12 17t74 -5q8 2 13 2q10 0 27 -4t25 -4q4 0 10.5 2
t9.5 2t11 -2t11 -2q7 0 21.5 2t21.5 2q12 0 34.5 -2.5t33.5 -2.5q6 0 17 2.5t16 2.5q6 0 17.5 -4.5t17.5 -4.5q5 0 15 1t14 1q13 0 36.5 -4t34.5 -4q1 0 4.5 0.5t5.5 0.5q35 0 46 -24q0 -18 -10.5 -32.5t-28.5 -14.5q-6 0 -21 1.5t-19 1.5l-6 -8q-6 -7 -19 -7q-19 0 -36 4
q-5 1 -10 8t-7 7l-21 -12q-21 -11 -38 -11q-9 0 -13 1q-6 0 -6 -12q0 -16 2 -49t2 -54q0 -42 -10 -57q-1 -1 -3 -8.5t-4 -17.5t-2 -15t3 -9l-3 -6l-33 -34q0 -3 4.5 -8t4.5 -6t-5 -8.5t-5 -12.5q0 -6 12 -33q-17 -26 -19 -44q-1 -6 -8 -19t-7 -14q0 -17 -3 -27v2
q10 -5 10 -16q0 -2 -0.5 -5t-0.5 -5q0 -7 14 -7q1 0 4.5 0.5t5.5 0.5q5 0 14 -4.5t15 -4.5q67 7 80 11q28 7 141 14q9 0 25.5 2.5t24.5 2.5q6 0 18 -7t14 -17q0 -3 12.5 -7t12.5 -9q0 -8 -14 -16t-14 -9q0 -4 10 -10t10 -11q0 -8 -12 -8q-8 0 -12 7h2zM439 588l-5 2.5
l-5 2.5t-4 1q-3 0 -3 -5q2 -2 3 -2q3 0 7.5 0.5t6.5 0.5q0 1 -1 2q0 -2 1 -2zM239 307q-3 8 -5 8q-6 0 -6 -5q0 -3 11 -3zM236 830q47 82 109 110q4 -5 4 -11q0 -3 -2 -7q-3 -6 -13.5 -27.5t-17.5 -33.5t-17.5 -28t-22 -23.5t-24.5 -7.5q-5 0 -8 2t-3.5 4.5t-2 9.5t-2.5 12z
" />
    </font>
</defs>
</svg>
